# Blender v2.91.0 OBJ File: ''
# www.blender.org
o Cylinder.001
v 0.000000 -0.001500 -0.015000
v 0.000293 -0.001471 0.015000
v 0.000000 -0.001500 0.015000
v 0.000293 -0.001471 -0.015000
v 0.000574 -0.001386 0.015000
v 0.000574 -0.001386 -0.015000
v 0.000833 -0.001247 0.015000
v 0.000833 -0.001247 -0.015000
v 0.001061 -0.001061 0.015000
v 0.001061 -0.001061 -0.015000
v 0.001247 -0.000833 0.015000
v 0.001247 -0.000833 -0.015000
v 0.001386 -0.000574 0.015000
v 0.001386 -0.000574 -0.015000
v 0.001471 -0.000293 0.015000
v 0.001471 -0.000293 -0.015000
v 0.001500 0.000000 0.015000
v 0.001500 0.000000 -0.015000
v 0.001471 0.000293 0.015000
v 0.001471 0.000293 -0.015000
v 0.001386 0.000574 0.015000
v 0.001386 0.000574 -0.015000
v 0.001247 0.000833 0.015000
v 0.001247 0.000833 -0.015000
v 0.001061 0.001061 0.015000
v 0.001061 0.001061 -0.015000
v 0.000833 0.001247 0.015000
v 0.000833 0.001247 -0.015000
v 0.000574 0.001386 0.015000
v 0.000574 0.001386 -0.015000
v 0.000293 0.001471 0.015000
v 0.000293 0.001471 -0.015000
v 0.000000 0.001500 0.015000
v 0.000000 0.001500 -0.015000
v -0.000293 0.001471 0.015000
v -0.000293 0.001471 -0.015000
v -0.000574 0.001386 0.015000
v -0.000574 0.001386 -0.015000
v -0.000833 0.001247 0.015000
v -0.000833 0.001247 -0.015000
v -0.001061 0.001061 0.015000
v -0.001061 0.001061 -0.015000
v -0.001247 0.000833 0.015000
v -0.001247 0.000833 -0.015000
v -0.001386 0.000574 0.015000
v -0.001386 0.000574 -0.015000
v -0.001471 0.000293 0.015000
v -0.001471 0.000293 -0.015000
v -0.001500 0.000000 0.015000
v -0.001500 0.000000 -0.015000
v -0.001471 -0.000293 0.015000
v -0.001471 -0.000293 -0.015000
v -0.001386 -0.000574 0.015000
v -0.001386 -0.000574 -0.015000
v -0.001247 -0.000833 0.015000
v -0.001247 -0.000833 -0.015000
v -0.001061 -0.001061 0.015000
v -0.001061 -0.001061 -0.015000
v -0.000833 -0.001247 0.015000
v -0.000833 -0.001247 -0.015000
v -0.000574 -0.001386 0.015000
v -0.000574 -0.001386 -0.015000
v -0.000293 -0.001471 0.015000
v -0.000293 -0.001471 -0.015000
vt 1.000000 1.000000
vt 0.968750 0.500000
vt 1.000000 0.500000
vt 0.968750 1.000000
vt 0.937500 0.500000
vt 0.937500 1.000000
vt 0.906250 0.500000
vt 0.906250 1.000000
vt 0.875000 0.500000
vt 0.875000 1.000000
vt 0.843750 0.500000
vt 0.843750 1.000000
vt 0.812500 0.500000
vt 0.812500 1.000000
vt 0.781250 0.500000
vt 0.781250 1.000000
vt 0.750000 0.500000
vt 0.750000 1.000000
vt 0.718750 0.500000
vt 0.718750 1.000000
vt 0.687500 0.500000
vt 0.687500 1.000000
vt 0.656250 0.500000
vt 0.656250 1.000000
vt 0.625000 0.500000
vt 0.625000 1.000000
vt 0.593750 0.500000
vt 0.593750 1.000000
vt 0.562500 0.500000
vt 0.562500 1.000000
vt 0.531250 0.500000
vt 0.531250 1.000000
vt 0.500000 0.500000
vt 0.500000 1.000000
vt 0.468750 0.500000
vt 0.468750 1.000000
vt 0.437500 0.500000
vt 0.437500 1.000000
vt 0.406250 0.500000
vt 0.406250 1.000000
vt 0.375000 0.500000
vt 0.375000 1.000000
vt 0.343750 0.500000
vt 0.343750 1.000000
vt 0.312500 0.500000
vt 0.312500 1.000000
vt 0.281250 0.500000
vt 0.281250 1.000000
vt 0.250000 0.500000
vt 0.250000 1.000000
vt 0.218750 0.500000
vt 0.218750 1.000000
vt 0.187500 0.500000
vt 0.187500 1.000000
vt 0.156250 0.500000
vt 0.156250 1.000000
vt 0.125000 0.500000
vt 0.125000 1.000000
vt 0.093750 0.500000
vt 0.093750 1.000000
vt 0.062500 0.500000
vt 0.158156 0.028269
vt 0.471731 0.158156
vt 0.341844 0.471731
vt 0.062500 1.000000
vt 0.031250 0.500000
vt 0.031250 1.000000
vt 0.000000 0.500000
vt 0.796822 0.014612
vt 0.514611 0.203179
vt 0.703179 0.485389
vt 0.296822 0.485388
vt 0.250000 0.490000
vt 0.203179 0.485389
vt 0.158156 0.471731
vt 0.116663 0.449553
vt 0.028269 0.341844
vt 0.080295 0.419706
vt 0.050447 0.383337
vt 0.014612 0.296822
vt 0.010000 0.250000
vt 0.014611 0.203179
vt 0.028269 0.158156
vt 0.050447 0.116663
vt 0.080294 0.080294
vt 0.116663 0.050447
vt 0.203178 0.014612
vt 0.341844 0.028269
vt 0.250000 0.010000
vt 0.296822 0.014612
vt 0.383337 0.050447
vt 0.419706 0.080294
vt 0.449553 0.116663
vt 0.485388 0.203178
vt 0.490000 0.250000
vt 0.485388 0.296822
vt 0.471731 0.341844
vt 0.449553 0.383337
vt 0.419706 0.419706
vt 0.383337 0.449553
vt 0.000000 1.000000
vt 0.750000 0.490000
vt 0.796822 0.485388
vt 0.841844 0.471731
vt 0.883337 0.449553
vt 0.919706 0.419706
vt 0.985388 0.296822
vt 0.949553 0.383337
vt 0.971731 0.341844
vt 0.990000 0.250000
vt 0.949553 0.116663
vt 0.985389 0.203178
vt 0.971731 0.158156
vt 0.919706 0.080294
vt 0.883337 0.050447
vt 0.841844 0.028269
vt 0.750000 0.010000
vt 0.703178 0.014612
vt 0.658156 0.028269
vt 0.616663 0.050447
vt 0.580294 0.080294
vt 0.550447 0.116663
vt 0.528269 0.158156
vt 0.510000 0.250000
vt 0.514612 0.296822
vt 0.528269 0.341844
vt 0.550447 0.383337
vt 0.580295 0.419706
vt 0.616663 0.449553
vt 0.658156 0.471731
vn 0.0982 -0.9952 0.0000
vn 0.0980 -0.9952 -0.0000
vn 0.2904 -0.9569 0.0000
vn 0.2903 -0.9569 -0.0000
vn 0.4714 -0.8819 0.0000
vn 0.6344 -0.7730 0.0000
vn 0.7730 -0.6344 0.0000
vn 0.8819 -0.4714 0.0000
vn 0.9570 -0.2902 0.0000
vn 0.9569 -0.2903 0.0000
vn 0.9952 -0.0982 0.0000
vn 0.9952 -0.0980 0.0000
vn 0.9952 0.0982 0.0000
vn 0.9952 0.0980 -0.0000
vn 0.9569 0.2903 0.0000
vn 0.9570 0.2902 -0.0000
vn 0.8819 0.4714 0.0000
vn 0.7730 0.6344 0.0000
vn 0.6344 0.7730 0.0000
vn 0.4714 0.8819 0.0000
vn 0.2903 0.9569 0.0000
vn 0.2904 0.9569 0.0000
vn 0.0982 0.9952 0.0000
vn 0.0980 0.9952 0.0000
vn -0.0982 0.9952 0.0000
vn -0.0980 0.9952 -0.0000
vn -0.2904 0.9569 0.0000
vn -0.2903 0.9569 -0.0000
vn -0.4714 0.8819 0.0000
vn -0.6344 0.7730 0.0000
vn -0.7730 0.6344 0.0000
vn -0.8819 0.4714 0.0000
vn -0.9570 0.2902 0.0000
vn -0.9569 0.2903 0.0000
vn -0.9952 0.0982 0.0000
vn -0.9952 0.0980 0.0000
vn -0.9952 -0.0982 0.0000
vn -0.9952 -0.0980 -0.0000
vn -0.9569 -0.2903 0.0000
vn -0.9570 -0.2902 -0.0000
vn -0.8819 -0.4714 0.0000
vn -0.7730 -0.6344 0.0000
vn -0.6344 -0.7730 0.0000
vn -0.4714 -0.8819 0.0000
vn -0.0000 0.0000 -1.0000
vn -0.2903 -0.9569 0.0000
vn -0.2904 -0.9569 0.0000
vn -0.0982 -0.9952 0.0000
vn -0.0980 -0.9952 0.0000
vn 0.0000 0.0000 1.0000
vn 0.0001 0.0000 1.0000
s 1
f 1/1/1 2/2/1 3/3/2
f 4/4/3 5/5/4 2/2/4
f 6/6/5 7/7/5 5/5/5
f 8/8/6 9/9/6 7/7/6
f 10/10/7 11/11/7 9/9/7
f 12/12/8 13/13/8 11/11/8
f 14/14/9 15/15/10 13/13/10
f 16/16/11 17/17/11 15/15/12
f 18/18/13 19/19/13 17/17/14
f 20/20/15 21/21/16 19/19/16
f 22/22/17 23/23/17 21/21/17
f 24/24/18 25/25/18 23/23/18
f 26/26/19 27/27/19 25/25/19
f 28/28/20 29/29/20 27/27/20
f 30/30/21 31/31/22 29/29/21
f 32/32/23 33/33/23 31/31/24
f 34/34/25 35/35/25 33/33/26
f 36/36/27 37/37/28 35/35/28
f 38/38/29 39/39/29 37/37/29
f 40/40/30 41/41/30 39/39/30
f 42/42/31 43/43/31 41/41/31
f 44/44/32 45/45/32 43/43/32
f 46/46/33 47/47/34 45/45/34
f 48/48/35 49/49/35 47/47/36
f 50/50/37 51/51/37 49/49/38
f 52/52/39 53/53/40 51/51/40
f 54/54/41 55/55/41 53/53/41
f 56/56/42 57/57/42 55/55/42
f 58/58/43 59/59/43 57/57/43
f 60/60/44 61/61/44 59/59/44
f 38/62/45 22/63/45 6/64/45
f 62/65/46 63/66/47 61/61/46
f 64/67/48 3/68/48 63/66/49
f 31/69/50 47/70/50 63/71/50
f 1/1/1 4/4/2 2/2/1
f 4/4/3 6/6/4 5/5/4
f 6/6/5 8/8/5 7/7/5
f 8/8/6 10/10/6 9/9/6
f 10/10/7 12/12/7 11/11/7
f 12/12/8 14/14/8 13/13/8
f 14/14/9 16/16/9 15/15/10
f 16/16/11 18/18/12 17/17/11
f 18/18/13 20/20/14 19/19/13
f 20/20/15 22/22/15 21/21/16
f 22/22/17 24/24/17 23/23/17
f 24/24/18 26/26/18 25/25/18
f 26/26/19 28/28/19 27/27/19
f 28/28/20 30/30/20 29/29/20
f 30/30/21 32/32/21 31/31/22
f 32/32/23 34/34/24 33/33/23
f 34/34/25 36/36/26 35/35/25
f 36/36/27 38/38/28 37/37/28
f 38/38/29 40/40/29 39/39/29
f 40/40/30 42/42/30 41/41/30
f 42/42/31 44/44/31 43/43/31
f 44/44/32 46/46/32 45/45/32
f 46/46/33 48/48/33 47/47/34
f 48/48/35 50/50/36 49/49/35
f 50/50/37 52/52/38 51/51/37
f 52/52/39 54/54/39 53/53/40
f 54/54/41 56/56/41 55/55/41
f 56/56/42 58/58/42 57/57/42
f 58/58/43 60/60/43 59/59/43
f 60/60/44 62/65/44 61/61/44
f 6/64/45 4/72/45 1/73/45
f 1/73/45 64/74/45 62/75/45
f 62/75/45 60/76/45 54/77/45
f 60/76/45 58/78/45 54/77/45
f 58/78/45 56/79/45 54/77/45
f 54/77/45 52/80/45 50/81/45
f 50/81/45 48/82/45 54/77/45
f 48/82/45 46/83/45 54/77/45
f 46/83/45 44/84/45 42/85/45
f 42/85/45 40/86/45 46/83/45
f 40/86/45 38/62/45 46/83/45
f 38/62/45 36/87/45 30/88/45
f 36/87/45 34/89/45 30/88/45
f 34/89/45 32/90/45 30/88/45
f 30/88/45 28/91/45 26/92/45
f 26/92/45 24/93/45 22/63/45
f 22/63/45 20/94/45 18/95/45
f 18/95/45 16/96/45 14/97/45
f 14/97/45 12/98/45 10/99/45
f 10/99/45 8/100/45 6/64/45
f 6/64/45 1/73/45 54/77/45
f 1/73/45 62/75/45 54/77/45
f 30/88/45 26/92/45 38/62/45
f 26/92/45 22/63/45 38/62/45
f 22/63/45 18/95/45 14/97/45
f 14/97/45 10/99/45 6/64/45
f 54/77/45 46/83/45 38/62/45
f 22/63/45 14/97/45 6/64/45
f 6/64/45 54/77/45 38/62/45
f 62/65/46 64/67/46 63/66/47
f 64/67/48 1/101/49 3/68/48
f 63/71/50 3/102/50 2/103/50
f 2/103/50 5/104/50 7/105/50
f 7/105/50 9/106/50 15/107/50
f 9/106/50 11/108/50 15/107/50
f 11/108/50 13/109/51 15/107/50
f 15/107/50 17/110/50 23/111/50
f 17/110/50 19/112/50 23/111/50
f 19/112/50 21/113/51 23/111/50
f 23/111/50 25/114/50 31/69/50
f 25/114/50 27/115/50 31/69/50
f 27/115/50 29/116/50 31/69/50
f 31/69/50 33/117/50 35/118/50
f 35/118/50 37/119/50 39/120/50
f 39/120/50 41/121/50 43/122/50
f 43/122/50 45/123/50 39/120/50
f 45/123/50 47/70/50 39/120/50
f 47/70/50 49/124/50 51/125/50
f 51/125/50 53/126/50 47/70/50
f 53/126/50 55/127/50 47/70/50
f 55/127/50 57/128/50 63/71/50
f 57/128/50 59/129/50 63/71/50
f 59/129/50 61/130/50 63/71/50
f 63/71/50 2/103/50 7/105/50
f 31/69/50 35/118/50 39/120/50
f 63/71/50 7/105/50 15/107/50
f 15/107/50 23/111/50 31/69/50
f 31/69/50 39/120/50 47/70/50
f 47/70/50 55/127/50 63/71/50
f 63/71/50 15/107/50 31/69/50
