# Blender v3.1.2 OBJ File: '10.blend'
# www.blender.org
mtllib g1.mtl
o Cylinder010_网格.010
v 0.013477 -0.000238 -0.000287
v 0.012529 -0.000238 -0.005664
v 0.009799 -0.000238 -0.010393
v 0.005616 -0.000238 -0.013903
v 0.000485 -0.000238 -0.015771
v -0.004976 -0.000238 -0.015771
v -0.010107 -0.000238 -0.013903
v -0.014290 -0.000238 -0.010393
v -0.017020 -0.000238 -0.005664
v -0.017969 -0.000238 -0.000287
v -0.017020 -0.000238 0.005091
v -0.014290 -0.000238 0.009820
v -0.010107 -0.000238 0.013330
v -0.004976 -0.000238 0.015197
v 0.000485 -0.000238 0.015197
v 0.005616 -0.000238 0.013330
v 0.009799 -0.000238 0.009820
v 0.012529 -0.000238 0.005091
v 0.013477 0.004492 -0.000287
v 0.012529 0.004492 -0.005664
v 0.009799 0.004492 -0.010393
v 0.005616 0.004492 -0.013903
v 0.000485 0.004492 -0.015771
v -0.004976 0.004492 -0.015771
v -0.010107 0.004492 -0.013903
v -0.014290 0.004492 -0.010393
v -0.017020 0.004492 -0.005664
v -0.017969 0.004492 -0.000287
v -0.017020 0.004492 0.005091
v -0.014290 0.004492 0.009820
v -0.010107 0.004492 0.013330
v -0.004976 0.004492 0.015197
v 0.000485 0.004492 0.015197
v 0.005616 0.004492 0.013330
v 0.009799 0.004492 0.009820
v 0.012529 0.004492 0.005091
vt 0.861111 0.000000
vt 0.805556 0.000000
vt 0.750000 0.000000
vt 0.340035 0.000000
vt 0.195328 0.000000
vt 0.087369 0.000000
vt 0.029179 0.000000
vt 0.027778 0.000000
vt 0.083333 0.000000
vt 0.189144 0.000000
vt 0.332450 0.000000
vt 0.495964 0.000000
vt 0.659965 0.000000
vt 0.804672 0.000000
vt 0.912631 0.000000
vt 0.970820 0.000000
vt 0.972222 0.000000
vt 0.916667 0.000000
vt 0.805556 1.000000
vt 0.750000 1.000000
vt 0.861111 1.000000
vt 0.916667 1.000000
vt 0.972222 1.000000
vt 0.027778 1.000000
vt -0.027778 1.000000
vt -0.027778 0.000000
vt 0.027778 0.000000
vt 0.083333 1.000000
vt 0.083333 0.000000
vt 0.138889 1.000000
vt 0.138889 0.000000
vt 0.194444 1.000000
vt 0.194444 0.000000
vt 0.250000 1.000000
vt 0.250000 0.000000
vt 0.305556 1.000000
vt 0.305556 0.000000
vt 0.361111 1.000000
vt 0.361111 0.000000
vt 0.416667 1.000000
vt 0.416667 0.000000
vt 0.472222 1.000000
vt 0.472222 0.000000
vt 0.527778 1.000000
vt 0.527778 0.000000
vt 0.583333 1.000000
vt 0.583333 0.000000
vt 0.638889 1.000000
vt 0.638889 0.000000
vt 0.694444 1.000000
vt 0.694444 0.000000
vt 0.029179 1.000000
vt 0.087368 1.000000
vt 0.195327 1.000000
vt 0.970821 1.000000
vt 0.912631 1.000000
vt 0.804673 1.000000
vt 0.659966 1.000000
vt 0.495965 1.000000
vt 0.332450 1.000000
vt 0.189145 1.000000
vt 0.083333 1.000000
vt 0.027778 1.000000
vn -0.0000 -1.0000 0.0000
vn 0.9397 0.0000 -0.3420
vn 1.0000 0.0000 0.0000
vn 0.7660 0.0000 -0.6428
vn 0.5000 0.0000 -0.8660
vn 0.1736 0.0000 -0.9848
vn -0.1736 0.0000 -0.9848
vn -0.5000 0.0000 -0.8660
vn -0.7660 0.0000 -0.6428
vn -0.9397 0.0000 -0.3420
vn -1.0000 -0.0000 -0.0000
vn -0.9397 -0.0000 0.3420
vn -0.7660 0.0000 0.6428
vn -0.5000 0.0000 0.8660
vn -0.1736 0.0000 0.9848
vn 0.1736 0.0000 0.9848
vn 0.5000 0.0000 0.8660
vn 0.7660 0.0000 0.6428
vn 0.9397 0.0000 0.3420
vn 0.0000 1.0000 0.0000
usemtl Material_#25.005
s 1
f 3/1/1 2/2/1 1/3/1
f 1/3/1 18/4/1 17/5/1
f 17/5/1 16/6/1 15/7/1
f 1/3/1 17/5/1 15/7/1
f 3/1/1 1/3/1 15/7/1
f 15/7/1 14/8/1 13/9/1
f 13/9/1 12/10/1 11/11/1
f 15/7/1 13/9/1 11/11/1
f 3/1/1 15/7/1 11/11/1
f 11/11/1 10/12/1 9/13/1
f 9/13/1 8/14/1 7/15/1
f 11/11/1 9/13/1 7/15/1
f 3/1/1 11/11/1 7/15/1
f 7/15/1 6/16/1 5/17/1
f 3/1/1 7/15/1 5/17/1
f 3/1/1 5/17/1 4/18/1
f 20/19/2 19/20/3 1/3/3
f 1/3/3 2/2/2 20/19/2
f 21/21/4 20/19/2 2/2/2
f 2/2/2 3/1/4 21/21/4
f 22/22/5 21/21/4 3/1/4
f 3/1/4 4/18/5 22/22/5
f 23/23/6 22/22/5 4/18/5
f 4/18/5 5/17/6 23/23/6
f 24/24/7 23/25/6 5/26/6
f 5/26/6 6/27/7 24/24/7
f 25/28/8 24/24/7 6/27/7
f 6/27/7 7/29/8 25/28/8
f 26/30/9 25/28/8 7/29/8
f 7/29/8 8/31/9 26/30/9
f 27/32/10 26/30/9 8/31/9
f 8/31/9 9/33/10 27/32/10
f 28/34/11 27/32/10 9/33/10
f 9/33/10 10/35/11 28/34/11
f 29/36/12 28/34/11 10/35/11
f 10/35/11 11/37/12 29/36/12
f 30/38/13 29/36/12 11/37/12
f 11/37/12 12/39/13 30/38/13
f 31/40/14 30/38/13 12/39/13
f 12/39/13 13/41/14 31/40/14
f 32/42/15 31/40/14 13/41/14
f 13/41/14 14/43/15 32/42/15
f 33/44/16 32/42/15 14/43/15
f 14/43/15 15/45/16 33/44/16
f 34/46/17 33/44/16 15/45/16
f 15/45/16 16/47/17 34/46/17
f 35/48/18 34/46/17 16/47/17
f 16/47/17 17/49/18 35/48/18
f 36/50/19 35/48/18 17/49/18
f 17/49/18 18/51/19 36/50/19
f 19/20/3 36/50/19 18/51/19
f 18/51/19 1/3/3 19/20/3
f 33/52/20 34/53/20 35/54/20
f 35/54/20 36/50/20 19/20/20
f 19/20/20 20/19/20 21/21/20
f 35/54/20 19/20/20 21/21/20
f 33/52/20 35/54/20 21/21/20
f 21/21/20 22/22/20 23/23/20
f 23/23/20 24/55/20 25/56/20
f 21/21/20 23/23/20 25/56/20
f 33/52/20 21/21/20 25/56/20
f 25/56/20 26/57/20 27/58/20
f 27/58/20 28/59/20 29/60/20
f 25/56/20 27/58/20 29/60/20
f 33/52/20 25/56/20 29/60/20
f 29/60/20 30/61/20 31/62/20
f 33/52/20 29/60/20 31/62/20
f 33/52/20 31/62/20 32/63/20
o Line017_网格.011
v -0.000391 0.003785 0.000375
v -0.000583 0.003785 0.001092
v -0.001108 0.003785 0.001616
v -0.001824 0.003785 0.001808
v -0.002540 0.003785 0.001616
v -0.003065 0.003785 0.001092
v -0.003257 0.003785 0.000375
v -0.003065 0.003785 -0.000341
v -0.002540 0.003785 -0.000866
v -0.001824 0.003785 -0.001058
v -0.001108 0.003785 -0.000866
v -0.000583 0.003785 -0.000341
v -0.000391 0.055747 0.000375
v -0.000583 0.055939 0.001092
v -0.001108 0.056464 0.001616
v -0.001824 0.057180 0.001808
v -0.002540 0.057896 0.001616
v -0.003065 0.058421 0.001092
v -0.003257 0.058613 0.000375
v -0.003065 0.058421 -0.000341
v -0.002540 0.057896 -0.000866
v -0.001824 0.057180 -0.001058
v -0.001108 0.056464 -0.000866
v -0.000583 0.055939 -0.000341
v 0.009195 0.055747 0.000375
v 0.009119 0.055939 0.001092
v 0.008909 0.056464 0.001616
v 0.008623 0.057180 0.001808
v 0.008337 0.057896 0.001616
v 0.008127 0.058421 0.001092
v 0.008050 0.058613 0.000375
v 0.008127 0.058421 -0.000341
v 0.008337 0.057896 -0.000866
v 0.008623 0.057180 -0.001058
v 0.008909 0.056464 -0.000866
v 0.009119 0.055939 -0.000341
v 0.021857 0.067786 0.000375
v 0.021665 0.067868 0.001092
v 0.021140 0.068093 0.001616
v 0.020424 0.068401 0.001808
v 0.019707 0.068708 0.001616
v 0.019183 0.068933 0.001092
v 0.018991 0.069015 0.000375
v 0.019183 0.068933 -0.000341
v 0.019707 0.068708 -0.000866
v 0.020424 0.068401 -0.001058
v 0.021140 0.068093 -0.000866
v 0.021665 0.067868 -0.000341
v 0.021857 0.117038 0.000375
v 0.021665 0.116846 0.001092
v 0.021140 0.116321 0.001616
v 0.020424 0.115605 0.001808
v 0.019707 0.114888 0.001616
v 0.019183 0.114364 0.001092
v 0.018991 0.114172 0.000375
v 0.019183 0.114364 -0.000341
v 0.019707 0.114888 -0.000866
v 0.020424 0.115605 -0.001058
v 0.021140 0.116321 -0.000866
v 0.021665 0.116846 -0.000341
v -0.016412 0.117038 0.000375
v -0.016220 0.116846 0.001092
v -0.015696 0.116321 0.001616
v -0.014979 0.115605 0.001808
v -0.014263 0.114888 0.001616
v -0.013738 0.114364 0.001092
v -0.013546 0.114172 0.000375
v -0.013738 0.114364 -0.000341
v -0.014263 0.114888 -0.000866
v -0.014979 0.115605 -0.001058
v -0.015696 0.116321 -0.000866
v -0.016220 0.116846 -0.000341
v -0.016412 0.093665 0.000375
v -0.016220 0.093857 0.001092
v -0.015696 0.094382 0.001616
v -0.014979 0.095098 0.001808
v -0.014263 0.095815 0.001616
v -0.013738 0.096339 0.001092
v -0.013546 0.096531 0.000375
v -0.013738 0.096339 -0.000341
v -0.014263 0.095815 -0.000866
v -0.014979 0.095098 -0.001058
v -0.015696 0.094382 -0.000866
v -0.016220 0.093857 -0.000341
v 0.003786 0.093665 0.000375
v 0.003786 0.093857 0.001092
v 0.003786 0.094382 0.001616
v 0.003786 0.095098 0.001808
v 0.003786 0.095815 0.001616
v 0.003786 0.096339 0.001092
v 0.003786 0.096531 0.000375
v 0.003786 0.096339 -0.000341
v 0.003786 0.095815 -0.000866
v 0.003786 0.095098 -0.001058
v 0.003786 0.094382 -0.000866
v 0.003786 0.093857 -0.000341
vn 1.0000 0.0000 0.0000
vn 0.5135 -0.5135 0.6875
vn 0.8660 -0.0000 0.5000
vn 0.2085 -0.2085 0.9555
vn 0.5000 -0.0000 0.8660
vn -0.0652 0.0652 0.9957
vn -0.0000 -0.0000 1.0000
vn -0.3332 0.3332 0.8820
vn -0.5000 -0.0000 0.8660
vn -0.9047 -0.0000 0.4260
vn -0.8660 -0.0000 0.5000
vn -1.0000 -0.0000 -0.0000
vn -0.9047 0.0000 -0.4260
vn -0.8660 0.0000 -0.5000
vn -0.3332 0.3332 -0.8820
vn -0.5000 0.0000 -0.8660
vn -0.0652 0.0652 -0.9957
vn 0.0000 0.0000 -1.0000
vn 0.2085 -0.2085 -0.9555
vn 0.5000 0.0000 -0.8660
vn 0.8310 0.0000 -0.5563
vn 0.8660 0.0000 -0.5000
vn 0.0000 -1.0000 -0.0000
vn 0.3218 -0.8055 0.4976
vn 0.1929 -0.4828 0.8543
vn 0.0216 -0.0541 0.9983
vn -0.1584 0.3964 0.9043
vn -0.3087 0.7727 0.5546
vn 0.0000 0.9047 0.4260
vn 0.0000 1.0000 0.0000
vn -0.3087 0.7727 -0.5546
vn 0.0000 0.9047 -0.4260
vn -0.1584 0.3964 -0.9043
vn 0.0216 -0.0541 -0.9983
vn 0.1929 -0.4828 -0.8543
vn 0.3218 -0.8055 -0.4976
vn 0.0000 -0.8310 -0.5563
vn 0.6891 -0.7247 -0.0000
vn 0.7963 -0.3417 0.4992
vn 0.4771 -0.2047 0.8547
vn 0.0565 -0.0242 0.9981
vn -0.3862 0.1657 0.9074
vn -0.7612 0.3266 0.5603
vn -0.6891 0.7247 -0.0000
vn -0.7612 0.3266 -0.5603
vn -0.3862 0.1657 -0.9074
vn 0.0565 -0.0242 -0.9981
vn 0.4771 -0.2047 -0.8547
vn 0.7963 -0.3417 -0.4992
vn 0.5886 0.5886 0.5542
vn 0.3332 0.3332 0.8820
vn 0.0652 0.0652 0.9957
vn -0.2085 -0.2085 0.9555
vn -0.8310 -0.0000 0.5563
vn -0.8310 0.0000 -0.5563
vn -0.2085 -0.2085 -0.9555
vn 0.0652 0.0652 -0.9957
vn 0.3332 0.3332 -0.8820
vn 0.9047 0.0000 -0.4260
vn 0.0000 -0.8310 0.5563
vn -0.3332 -0.3332 0.8820
vn -0.0652 -0.0652 0.9957
vn 0.2085 0.2085 0.9555
vn 0.8310 0.0000 0.5563
vn 0.2085 0.2085 -0.9555
vn -0.0652 -0.0652 -0.9957
vn -0.3332 -0.3332 -0.8820
vn 0.0000 -0.8660 0.5000
vn 0.0000 -0.9047 0.4260
vn 0.0000 -0.5000 0.8660
vn 0.0000 0.5000 0.8660
vn 0.0000 0.8660 0.5000
vn 0.0000 0.8310 0.5563
vn 0.0000 0.8660 -0.5000
vn 0.0000 0.8310 -0.5563
vn 0.0000 0.5000 -0.8660
vn 0.0000 -0.5000 -0.8660
vn 0.0000 -0.8660 -0.5000
vn 0.0000 -0.9047 -0.4260
usemtl Material_#25.005
s 1
f 37//21 49//21 50//22 38//23
f 38//23 50//22 51//24 39//25
f 39//25 51//24 52//26 40//27
f 40//27 52//26 53//28 41//29
f 41//29 53//28 54//30 42//31
f 42//31 54//30 55//32 43//32
f 43//32 55//32 56//33 44//34
f 44//34 56//33 57//35 45//36
f 45//36 57//35 58//37 46//38
f 46//38 58//37 59//39 47//40
f 47//40 59//39 60//41 48//42
f 48//42 60//41 49//21 37//21
f 49//43 61//43 62//44 50//22
f 50//22 62//44 63//45 51//24
f 51//24 63//45 64//46 52//26
f 52//26 64//46 65//47 53//28
f 53//28 65//47 66//48 54//49
f 54//49 66//48 67//50 55//50
f 55//50 67//50 68//51 56//52
f 56//52 68//51 69//53 57//35
f 57//35 69//53 70//54 58//37
f 58//37 70//54 71//55 59//39
f 59//39 71//55 72//56 60//57
f 60//57 72//56 61//43 49//43
f 61//58 73//58 74//59 62//44
f 62//44 74//59 75//60 63//45
f 63//45 75//60 76//61 64//46
f 64//46 76//61 77//62 65//47
f 65//47 77//62 78//63 66//48
f 66//48 78//63 79//64 67//64
f 67//64 79//64 80//65 68//51
f 68//51 80//65 81//66 69//53
f 69//53 81//66 82//67 70//54
f 70//54 82//67 83//68 71//55
f 71//55 83//68 84//69 72//56
f 72//56 84//69 73//58 61//58
f 73//21 85//21 86//70 74//59
f 74//59 86//70 87//71 75//60
f 75//60 87//71 88//72 76//61
f 76//61 88//72 89//73 77//62
f 77//62 89//73 90//74 78//63
f 78//63 90//74 91//32 79//32
f 79//32 91//32 92//75 80//65
f 80//65 92//75 93//76 81//66
f 81//66 93//76 94//77 82//67
f 82//67 94//77 95//78 83//68
f 83//68 95//78 96//79 84//69
f 84//69 96//79 85//21 73//21
f 85//50 97//50 98//49 86//70
f 86//70 98//49 99//28 87//71
f 87//71 99//28 100//26 88//72
f 88//72 100//26 101//24 89//73
f 89//73 101//24 102//22 90//80
f 90//80 102//22 103//43 91//43
f 91//43 103//43 104//57 92//57
f 92//57 104//57 105//39 93//76
f 93//76 105//39 106//37 94//77
f 94//77 106//37 107//35 95//78
f 95//78 107//35 108//52 96//52
f 96//52 108//52 97//50 85//50
f 97//32 109//32 110//30 98//30
f 98//30 110//30 111//81 99//28
f 99//28 111//81 112//82 100//26
f 100//26 112//82 113//83 101//24
f 101//24 113//83 114//84 102//22
f 102//22 114//84 115//21 103//21
f 103//21 115//21 116//41 104//41
f 104//41 116//41 117//85 105//39
f 105//39 117//85 118//86 106//37
f 106//37 118//86 119//87 107//35
f 107//35 119//87 120//33 108//33
f 108//33 120//33 109//32 97//32
f 109//43 121//43 122//88 110//89
f 110//89 122//88 123//90 111//81
f 111//81 123//90 124//27 112//82
f 112//82 124//27 125//91 113//83
f 113//83 125//91 126//92 114//93
f 114//93 126//92 127//50 115//50
f 115//50 127//50 128//94 116//95
f 116//95 128//94 129//96 117//85
f 117//85 129//96 130//38 118//86
f 118//86 130//38 131//97 119//87
f 119//87 131//97 132//98 120//99
f 120//99 132//98 121//43 109//43
f 37//43 38//43 39//43 40//43 41//43 42//43 43//43 44//43 45//43 46//43 47//43 48//43
f 121//21 132//21 131//21 130//21 129//21 128//21 127//21 126//21 125//21 124//21 123//21 122//21
