# Blender v3.1.2 OBJ File: '4.blend'
# www.blender.org
mtllib c.mtl
o Cylinder004_网格
v 0.016626 -0.000238 -0.000287
v 0.015677 -0.000238 -0.005664
v 0.012947 -0.000238 -0.010393
v 0.008764 -0.000238 -0.013903
v 0.003633 -0.000238 -0.015771
v -0.001828 -0.000238 -0.015771
v -0.006959 -0.000238 -0.013903
v -0.011142 -0.000238 -0.010393
v -0.013872 -0.000238 -0.005664
v -0.014820 -0.000238 -0.000287
v -0.013872 -0.000238 0.005091
v -0.011142 -0.000238 0.009820
v -0.006959 -0.000238 0.013330
v -0.001828 -0.000238 0.015197
v 0.003633 -0.000238 0.015197
v 0.008764 -0.000238 0.013330
v 0.012947 -0.000238 0.009820
v 0.015677 -0.000238 0.005091
v 0.016626 0.004492 -0.000287
v 0.015677 0.004492 -0.005664
v 0.012947 0.004492 -0.010393
v 0.008764 0.004492 -0.013903
v 0.003633 0.004492 -0.015771
v -0.001828 0.004492 -0.015771
v -0.006959 0.004492 -0.013903
v -0.011142 0.004492 -0.010393
v -0.013872 0.004492 -0.005664
v -0.014820 0.004492 -0.000287
v -0.013872 0.004492 0.005091
v -0.011142 0.004492 0.009820
v -0.006959 0.004492 0.013330
v -0.001828 0.004492 0.015197
v 0.003633 0.004492 0.015197
v 0.008764 0.004492 0.013330
v 0.012947 0.004492 0.009820
v 0.015677 0.004492 0.005091
vt 0.861111 0.000000
vt 0.805556 0.000000
vt 0.750000 0.000000
vt 0.340035 0.000000
vt 0.195328 0.000000
vt 0.087369 0.000000
vt 0.029179 0.000000
vt 0.027778 0.000000
vt 0.083333 0.000000
vt 0.189144 0.000000
vt 0.332450 0.000000
vt 0.495964 0.000000
vt 0.659965 0.000000
vt 0.804672 0.000000
vt 0.912631 0.000000
vt 0.970820 0.000000
vt 0.972222 0.000000
vt 0.916667 0.000000
vt 0.805556 1.000000
vt 0.750000 1.000000
vt 0.861111 1.000000
vt 0.916667 1.000000
vt 0.972222 1.000000
vt 0.027778 1.000000
vt -0.027778 1.000000
vt -0.027778 0.000000
vt 0.027778 0.000000
vt 0.083333 1.000000
vt 0.083333 0.000000
vt 0.138889 1.000000
vt 0.138889 0.000000
vt 0.194444 1.000000
vt 0.194444 0.000000
vt 0.250000 1.000000
vt 0.250000 0.000000
vt 0.305556 1.000000
vt 0.305556 0.000000
vt 0.361111 1.000000
vt 0.361111 0.000000
vt 0.416667 1.000000
vt 0.416667 0.000000
vt 0.472222 1.000000
vt 0.472222 0.000000
vt 0.527778 1.000000
vt 0.527778 0.000000
vt 0.583333 1.000000
vt 0.583333 0.000000
vt 0.638889 1.000000
vt 0.638889 0.000000
vt 0.694444 1.000000
vt 0.694444 0.000000
vt 0.029179 1.000000
vt 0.087368 1.000000
vt 0.195327 1.000000
vt 0.970821 1.000000
vt 0.912631 1.000000
vt 0.804673 1.000000
vt 0.659966 1.000000
vt 0.495965 1.000000
vt 0.332450 1.000000
vt 0.189145 1.000000
vt 0.083333 1.000000
vt 0.027778 1.000000
vn -0.0000 -1.0000 0.0000
vn 0.9397 0.0000 -0.3420
vn 1.0000 0.0000 0.0000
vn 0.7660 0.0000 -0.6428
vn 0.5000 0.0000 -0.8660
vn 0.1736 0.0000 -0.9848
vn -0.1736 0.0000 -0.9848
vn -0.5000 0.0000 -0.8660
vn -0.7660 0.0000 -0.6428
vn -0.9397 0.0000 -0.3420
vn -1.0000 0.0000 -0.0000
vn -0.9397 0.0000 0.3420
vn -0.7660 0.0000 0.6428
vn -0.5000 0.0000 0.8660
vn -0.1736 0.0000 0.9848
vn 0.1736 0.0000 0.9848
vn 0.5000 0.0000 0.8660
vn 0.7660 0.0000 0.6428
vn 0.9397 0.0000 0.3420
vn 0.0000 1.0000 -0.0000
usemtl Material_#25
s 1
f 3/1/1 2/2/1 1/3/1
f 1/3/1 18/4/1 17/5/1
f 17/5/1 16/6/1 15/7/1
f 1/3/1 17/5/1 15/7/1
f 3/1/1 1/3/1 15/7/1
f 15/7/1 14/8/1 13/9/1
f 13/9/1 12/10/1 11/11/1
f 15/7/1 13/9/1 11/11/1
f 3/1/1 15/7/1 11/11/1
f 11/11/1 10/12/1 9/13/1
f 9/13/1 8/14/1 7/15/1
f 11/11/1 9/13/1 7/15/1
f 3/1/1 11/11/1 7/15/1
f 7/15/1 6/16/1 5/17/1
f 3/1/1 7/15/1 5/17/1
f 3/1/1 5/17/1 4/18/1
f 20/19/2 19/20/3 1/3/3
f 1/3/3 2/2/2 20/19/2
f 21/21/4 20/19/2 2/2/2
f 2/2/2 3/1/4 21/21/4
f 22/22/5 21/21/4 3/1/4
f 3/1/4 4/18/5 22/22/5
f 23/23/6 22/22/5 4/18/5
f 4/18/5 5/17/6 23/23/6
f 24/24/7 23/25/6 5/26/6
f 5/26/6 6/27/7 24/24/7
f 25/28/8 24/24/7 6/27/7
f 6/27/7 7/29/8 25/28/8
f 26/30/9 25/28/8 7/29/8
f 7/29/8 8/31/9 26/30/9
f 27/32/10 26/30/9 8/31/9
f 8/31/9 9/33/10 27/32/10
f 28/34/11 27/32/10 9/33/10
f 9/33/10 10/35/11 28/34/11
f 29/36/12 28/34/11 10/35/11
f 10/35/11 11/37/12 29/36/12
f 30/38/13 29/36/12 11/37/12
f 11/37/12 12/39/13 30/38/13
f 31/40/14 30/38/13 12/39/13
f 12/39/13 13/41/14 31/40/14
f 32/42/15 31/40/14 13/41/14
f 13/41/14 14/43/15 32/42/15
f 33/44/16 32/42/15 14/43/15
f 14/43/15 15/45/16 33/44/16
f 34/46/17 33/44/16 15/45/16
f 15/45/16 16/47/17 34/46/17
f 35/48/18 34/46/17 16/47/17
f 16/47/17 17/49/18 35/48/18
f 36/50/19 35/48/18 17/49/18
f 17/49/18 18/51/19 36/50/19
f 19/20/3 36/50/19 18/51/19
f 18/51/19 1/3/3 19/20/3
f 33/52/20 34/53/20 35/54/20
f 35/54/20 36/50/20 19/20/20
f 19/20/20 20/19/20 21/21/20
f 35/54/20 19/20/20 21/21/20
f 33/52/20 35/54/20 21/21/20
f 21/21/20 22/22/20 23/23/20
f 23/23/20 24/55/20 25/56/20
f 21/21/20 23/23/20 25/56/20
f 33/52/20 21/21/20 25/56/20
f 25/56/20 26/57/20 27/58/20
f 27/58/20 28/59/20 29/60/20
f 25/56/20 27/58/20 29/60/20
f 33/52/20 25/56/20 29/60/20
f 29/60/20 30/61/20 31/62/20
f 33/52/20 29/60/20 31/62/20
f 33/52/20 31/62/20 32/63/20
o Line005_网格.001
v 0.002397 0.004292 0.000375
v 0.002205 0.004292 0.001092
v 0.001681 0.004292 0.001616
v 0.000964 0.004292 0.001808
v 0.000248 0.004292 0.001616
v -0.000276 0.004292 0.001092
v -0.000468 0.004292 0.000375
v -0.000276 0.004292 -0.000341
v 0.000248 0.004292 -0.000866
v 0.000964 0.004292 -0.001058
v 0.001681 0.004292 -0.000866
v 0.002205 0.004292 -0.000341
v 0.002397 0.079753 0.000375
v 0.002205 0.079561 0.001092
v 0.001681 0.079036 0.001616
v 0.000964 0.078320 0.001808
v 0.000248 0.077603 0.001616
v -0.000276 0.077079 0.001092
v -0.000468 0.076887 0.000375
v -0.000276 0.077079 -0.000341
v 0.000248 0.077603 -0.000866
v 0.000964 0.078320 -0.001058
v 0.001681 0.079036 -0.000866
v 0.002205 0.079561 -0.000341
v -0.036900 0.079753 0.000375
v -0.037092 0.079561 0.001092
v -0.037617 0.079037 0.001616
v -0.038333 0.078320 0.001808
v -0.039050 0.077604 0.001616
v -0.039574 0.077079 0.001092
v -0.039766 0.076887 0.000375
v -0.039574 0.077079 -0.000341
v -0.039049 0.077603 -0.000866
v -0.038333 0.078320 -0.001058
v -0.037616 0.079036 -0.000866
v -0.037092 0.079561 -0.000341
v -0.036900 0.116465 0.000375
v -0.037092 0.116657 0.001092
v -0.037616 0.117182 0.001616
v -0.038333 0.117898 0.001808
v -0.039049 0.118615 0.001616
v -0.039574 0.119139 0.001092
v -0.039766 0.119331 0.000375
v -0.039574 0.119139 -0.000341
v -0.039050 0.118614 -0.000866
v -0.038333 0.117898 -0.001058
v -0.037617 0.117181 -0.000866
v -0.037092 0.116657 -0.000341
v -0.004784 0.116465 0.000375
v -0.004784 0.116657 0.001092
v -0.004784 0.117182 0.001616
v -0.004783 0.117898 0.001808
v -0.004784 0.118614 0.001616
v -0.004784 0.119139 0.001092
v -0.004784 0.119331 0.000375
v -0.004784 0.119139 -0.000341
v -0.004784 0.118614 -0.000866
v -0.004784 0.117898 -0.001058
v -0.004784 0.117182 -0.000866
v -0.004784 0.116657 -0.000341
vn 1.0000 0.0000 -0.0000
vn 0.9047 -0.0000 0.4260
vn 0.8660 -0.0000 0.5000
vn 0.3332 0.3332 0.8820
vn 0.5000 -0.0000 0.8660
vn 0.0652 0.0652 0.9957
vn -0.0000 -0.0000 1.0000
vn -0.2085 -0.2085 0.9555
vn -0.5000 -0.0000 0.8660
vn -0.8310 -0.0000 0.5563
vn -0.8660 -0.0000 0.5000
vn -1.0000 0.0000 -0.0000
vn -0.8310 0.0000 -0.5563
vn -0.8660 0.0000 -0.5000
vn -0.2085 -0.2085 -0.9555
vn -0.5000 0.0000 -0.8660
vn 0.0652 0.0652 -0.9957
vn -0.0000 0.0000 -1.0000
vn 0.3332 0.3332 -0.8820
vn 0.5000 0.0000 -0.8660
vn 0.9047 0.0000 -0.4260
vn 0.8660 0.0000 -0.5000
vn -0.0000 1.0000 -0.0001
vn 0.0000 0.8310 0.5563
vn 0.0000 0.9048 0.4259
vn 0.2085 0.2085 0.9555
vn -0.0652 -0.0652 0.9957
vn -0.3332 -0.3331 0.8820
vn -0.0000 -0.9047 0.4261
vn -0.0000 -0.8309 0.5564
vn -0.0000 -1.0000 0.0002
vn -0.0000 -1.0000 0.0001
vn 0.0000 -0.9048 -0.4259
vn 0.0000 -0.8310 -0.5562
vn -0.3332 -0.3332 -0.8820
vn -0.0652 -0.0652 -0.9957
vn 0.2085 0.2085 -0.9555
vn -0.0000 0.8309 -0.5563
vn -0.0000 0.9047 -0.4261
vn 0.8310 -0.0000 0.5563
vn 0.2085 -0.2085 0.9555
vn -0.0652 0.0652 0.9957
vn -0.3332 0.3332 0.8820
vn -0.9047 0.0000 0.4260
vn -0.9048 0.0000 0.4259
vn -0.9048 -0.0000 -0.4259
vn -0.9047 -0.0000 -0.4260
vn -0.3332 0.3331 -0.8820
vn -0.0652 0.0652 -0.9957
vn 0.2085 -0.2085 -0.9555
vn 0.8310 0.0000 -0.5563
vn -0.0000 -0.8660 0.5001
vn -0.0000 -0.8309 0.5563
vn -0.0000 -0.5000 0.8661
vn 0.0000 0.5000 0.8660
vn 0.0000 0.8660 0.5000
vn 0.0000 1.0000 -0.0002
vn -0.0000 0.8660 -0.5000
vn -0.0000 0.5000 -0.8660
vn 0.0000 -0.5001 -0.8660
vn 0.0000 -0.8661 -0.4999
vn 0.0000 -0.8310 -0.5563
vn 0.0000 -1.0000 0.0000
vn 1.0000 0.0000 -0.0003
usemtl Material_#25
s 1
f 37//21 49//21 50//22 38//23
f 38//23 50//22 51//24 39//25
f 39//25 51//24 52//26 40//27
f 40//27 52//26 53//28 41//29
f 41//29 53//28 54//30 42//31
f 42//31 54//30 55//32 43//32
f 43//32 55//32 56//33 44//34
f 44//34 56//33 57//35 45//36
f 45//36 57//35 58//37 46//38
f 46//38 58//37 59//39 47//40
f 47//40 59//39 60//41 48//42
f 48//42 60//41 49//21 37//21
f 49//43 61//43 62//44 50//45
f 50//45 62//44 63//46 51//24
f 51//24 63//46 64//47 52//26
f 52//26 64//47 65//48 53//28
f 53//28 65//48 66//49 54//50
f 54//50 66//49 67//51 55//52
f 55//52 67//51 68//53 56//54
f 56//54 68//53 69//55 57//35
f 57//35 69//55 70//56 58//37
f 58//37 70//56 71//57 59//39
f 59//39 71//57 72//58 60//59
f 60//59 72//58 61//43 49//43
f 61//21 73//21 74//60 62//60
f 62//60 74//60 75//61 63//46
f 63//46 75//61 76//62 64//47
f 64//47 76//62 77//63 65//48
f 65//48 77//63 78//64 66//65
f 66//65 78//64 79//32 67//32
f 67//32 79//32 80//66 68//67
f 68//67 80//66 81//68 69//55
f 69//55 81//68 82//69 70//56
f 70//56 82//69 83//70 71//57
f 71//57 83//70 84//71 72//71
f 72//71 84//71 73//21 61//21
f 73//52 85//51 86//72 74//73
f 74//73 86//72 87//74 75//61
f 75//61 87//74 88//27 76//62
f 76//62 88//27 89//75 77//63
f 77//63 89//75 90//76 78//45
f 78//45 90//76 91//43 79//77
f 79//77 91//43 92//78 80//59
f 80//59 92//78 93//79 81//68
f 81//68 93//79 94//38 82//69
f 82//69 94//38 95//80 83//70
f 83//70 95//80 96//81 84//82
f 84//82 96//81 85//51 73//52
f 37//83 38//83 39//83 40//83 41//83 42//83 43//83 44//83 45//83 46//83 47//83 48//83
f 85//84 96//84 95//84 94//84 93//84 92//84 91//84 90//84 89//84 88//84 87//84 86//84
