# Blender v2.91.0 OBJ File: ''
# www.blender.org
o convex_0.003
v 0.001305 -0.002177 -0.000530
v 0.000775 -0.002404 -0.000493
v 0.000889 -0.002366 -0.001779
v -0.002328 -0.000020 -0.001969
v -0.001079 0.002063 -0.001969
v 0.001457 -0.001836 -0.001969
v 0.001532 0.002063 -0.000265
v 0.001532 0.002063 -0.001969
v 0.002063 0.000927 -0.000265
v -0.000928 0.002063 -0.000265
v 0.001760 -0.001419 -0.000265
v -0.001344 -0.001912 -0.001969
v -0.002215 0.000435 -0.000265
v 0.002365 0.000397 -0.001931
v 0.002138 0.001381 -0.001704
v -0.001458 0.002063 -0.001779
v -0.002518 -0.000322 -0.001666
v -0.002480 0.000510 -0.001742
v -0.002177 -0.000965 -0.000303
v -0.002518 0.000132 -0.000493
v -0.002442 -0.000700 -0.000568
v -0.002366 0.000927 -0.000568
v -0.001496 -0.002063 -0.000568
v -0.000663 -0.002290 -0.000303
v -0.001420 -0.001760 -0.000265
v 0.002252 -0.000625 -0.001969
v 0.002138 -0.001382 -0.001704
v 0.002517 -0.000209 -0.001741
v -0.002063 -0.001495 -0.001704
v -0.002063 -0.001458 -0.000455
v -0.000700 -0.002404 -0.001817
v 0.000435 -0.002290 -0.001969
v 0.002441 0.000699 -0.001704
v 0.002365 0.000927 -0.000568
v -0.001496 -0.002063 -0.001704
v -0.002063 0.001457 -0.001779
v -0.001950 0.001608 -0.000455
v 0.001305 -0.002101 -0.000379
v 0.002138 -0.001344 -0.000455
v 0.001722 -0.001874 -0.000568
v 0.000435 -0.002214 -0.000265
v -0.002253 -0.001117 -0.001817
v 0.002327 -0.000473 -0.000303
v 0.002479 0.000283 -0.000417
v 0.002441 -0.000700 -0.000568
v -0.001988 0.001229 -0.001969
v -0.001571 0.001873 -0.000341
v -0.001458 0.002063 -0.000493
v -0.001003 -0.002328 -0.000568
v -0.000322 -0.002517 -0.000568
v 0.001911 0.001684 -0.000568
v 0.000056 -0.002517 -0.001779
v 0.000132 -0.002517 -0.000493
v 0.000548 -0.002479 -0.001666
v 0.002365 -0.000928 -0.001666
v 0.002517 0.000321 -0.000568
v 0.001911 -0.001684 -0.001704
v 0.001305 -0.002177 -0.001704
v -0.002215 0.000889 -0.000303
v -0.001685 0.001911 -0.001704
v -0.001950 -0.001419 -0.001931
v -0.000700 -0.002442 -0.001666
v -0.002366 0.000889 -0.001779
v 0.002138 0.001343 -0.000455
vn 0.3942 -0.9190 0.0078
vn -0.0000 0.0000 -1.0000
vn 0.0000 1.0000 -0.0000
vn 0.0000 -0.0000 1.0000
vn 0.6516 0.3100 -0.6923
vn -0.8423 -0.0108 -0.5389
vn -0.5764 -0.0378 0.8163
vn -0.7619 -0.1269 0.6351
vn -0.9949 -0.0942 0.0364
vn -0.9813 0.1902 0.0277
vn -0.9989 0.0441 -0.0171
vn -0.3864 -0.6019 0.6989
vn -0.0807 -0.0292 0.9963
vn 0.0978 0.0262 -0.9949
vn 0.5331 -0.3499 -0.7703
vn 0.6955 -0.0503 -0.7167
vn -0.7276 -0.6857 0.0203
vn -0.8124 -0.3350 0.4773
vn -0.8951 -0.4457 0.0133
vn -0.8950 -0.4458 0.0133
vn -0.8951 -0.4456 0.0132
vn -0.4141 -0.3543 0.8384
vn -0.4663 -0.5643 0.6813
vn -0.0833 -0.3921 -0.9161
vn 0.9005 0.0927 -0.4248
vn 0.6976 0.3100 -0.6459
vn 0.9137 0.4059 -0.0203
vn -0.7077 -0.7065 0.0000
vn -0.3830 -0.6908 -0.6133
vn -0.8543 0.5196 0.0137
vn 0.4713 -0.4420 0.7632
vn 0.5763 -0.5760 0.5798
vn 0.1590 -0.2651 0.9510
vn 0.1802 -0.6066 0.7743
vn -0.0268 -0.1095 0.9936
vn -0.7708 -0.1388 -0.6217
vn -0.8950 -0.4459 0.0134
vn -0.9502 -0.3090 -0.0406
vn 0.0851 -0.0110 0.9963
vn 0.4148 0.0536 0.9083
vn 0.8773 -0.1058 0.4681
vn 0.7803 -0.2679 0.5652
vn 0.4740 -0.2502 0.8442
vn -0.4027 0.4389 -0.8033
vn -0.4697 0.4689 -0.7480
vn -0.2837 0.6962 0.6594
vn -0.6023 0.6855 0.4091
vn -0.3817 -0.7101 0.5916
vn -0.2410 -0.8683 0.4337
vn -0.4735 -0.8808 0.0000
vn 0.7071 0.7071 0.0000
vn 0.7522 0.6585 -0.0253
vn -0.0482 -0.5926 -0.8041
vn -0.0949 -0.8131 0.5744
vn 0.1730 -0.9845 0.0295
vn 0.0149 -0.6106 0.7918
vn 0.1177 -0.6695 0.7334
vn 0.0781 -0.9969 -0.0046
vn 0.0000 -1.0000 -0.0000
vn 0.9776 -0.2092 -0.0242
vn 0.7380 -0.3192 -0.5945
vn 0.8155 -0.2279 -0.5320
vn 0.9062 -0.4220 0.0249
vn 0.8939 -0.4481 0.0136
vn 0.9967 -0.0742 0.0335
vn 0.9277 0.2327 0.2920
vn 0.9714 -0.0723 0.2263
vn 0.9957 0.0849 -0.0384
vn 0.9698 0.2433 0.0161
vn 0.5583 -0.4196 -0.7157
vn 0.5324 -0.6545 -0.5368
vn 0.6309 -0.7755 -0.0247
vn 0.7992 -0.6007 0.0183
vn 0.7836 -0.6207 0.0266
vn -0.1571 0.1405 0.9775
vn -0.1049 0.0829 0.9910
vn -0.6402 0.0641 0.7656
vn -0.8368 0.2078 0.5066
vn -0.7746 0.3906 0.4974
vn -0.4848 0.3483 0.8023
vn -0.5770 0.5761 -0.5790
vn -0.7679 0.6406 -0.0075
vn -0.5564 0.8309 0.0000
vn -0.6771 0.7351 0.0347
vn -0.1079 -0.0561 -0.9926
vn -0.6099 -0.6088 -0.5074
vn -0.5145 -0.5840 -0.6279
vn -0.4776 -0.1525 -0.8652
vn -0.6947 -0.5029 -0.5142
vn -0.4104 -0.8843 -0.2225
vn -0.2673 -0.9632 0.0262
vn -0.4288 -0.9031 -0.0246
vn -0.1034 -0.9941 -0.0323
vn -0.1315 -0.9613 -0.2419
vn -0.8822 0.4706 -0.0148
vn -0.6615 0.1268 -0.7391
vn -0.9578 0.2872 -0.0090
vn -0.5479 0.1491 -0.8231
vn -0.6516 0.3476 -0.6743
vn 0.5679 -0.7352 0.3700
vn 0.5878 -0.8090 0.0000
vn 0.3825 -0.8253 0.4154
vn 0.5564 0.2601 0.7891
vn 0.8794 0.4759 0.0145
vn 0.6256 0.2280 0.7461
vn 0.7781 0.2706 0.5668
vn 0.7737 0.5908 0.2287
vn 0.8297 0.5579 0.0170
vn 0.4145 -0.6664 -0.6198
vn 0.3145 -0.9493 -0.0002
vn 0.2433 -0.5477 -0.8005
vn 0.1629 -0.8987 -0.4071
vn 0.1379 -0.7609 -0.6340
vn 0.4136 -0.9104 0.0000
s 1
f 1//1 2//1 3//1
f 4//2 5//2 6//2
f 5//3 7//3 8//3
f 6//2 5//2 8//2
f 9//4 7//4 10//4
f 7//3 5//3 10//3
f 9//4 10//4 11//4
f 4//2 6//2 12//2
f 11//4 10//4 13//4
f 14//5 8//5 15//5
f 10//3 5//3 16//3
f 4//6 17//6 18//6
f 19//7 13//7 20//7
f 21//8 19//8 20//8
f 17//9 21//9 20//9
f 22//10 18//10 20//10
f 18//11 17//11 20//11
f 23//12 24//12 25//12
f 13//13 19//13 25//13
f 11//4 13//4 25//4
f 8//14 14//14 26//14
f 6//2 8//2 26//2
f 27//15 6//15 26//15
f 14//16 28//16 26//16
f 29//17 23//17 30//17
f 19//18 21//18 30//18
f 21//19 29//20 30//21
f 25//22 19//22 30//22
f 23//23 25//23 30//23
f 31//24 12//24 32//24
f 12//2 6//2 32//2
f 28//25 14//25 33//25
f 14//26 15//26 33//26
f 15//27 34//27 33//27
f 23//28 29//28 35//28
f 12//29 31//29 35//29
f 36//30 22//30 37//30
f 11//31 38//31 39//31
f 38//32 40//32 39//32
f 38//33 11//33 41//33
f 2//34 38//34 41//34
f 25//35 24//35 41//35
f 11//4 25//4 41//4
f 17//36 4//36 42//36
f 29//20 21//19 42//37
f 21//38 17//38 42//38
f 9//39 11//39 43//39
f 44//40 9//40 43//40
f 45//41 44//41 43//41
f 39//42 45//42 43//42
f 11//43 39//43 43//43
f 5//2 4//2 46//2
f 16//44 5//44 46//44
f 36//45 16//45 46//45
f 47//46 10//46 48//46
f 10//3 16//3 48//3
f 37//47 47//47 48//47
f 24//48 23//48 49//48
f 50//49 24//49 49//49
f 23//50 35//50 49//50
f 8//51 7//51 51//51
f 15//52 8//52 51//52
f 31//53 32//53 52//53
f 24//54 50//54 53//54
f 54//55 2//55 53//55
f 41//56 24//56 53//56
f 2//57 41//57 53//57
f 52//58 54//58 53//58
f 50//59 52//59 53//59
f 28//60 45//60 55//60
f 27//61 26//61 55//61
f 26//62 28//62 55//62
f 45//63 39//63 55//63
f 39//64 27//64 55//64
f 45//65 28//65 56//65
f 34//66 44//66 56//66
f 44//67 45//67 56//67
f 28//68 33//68 56//68
f 33//69 34//69 56//69
f 6//70 27//70 57//70
f 58//71 6//71 57//71
f 40//72 58//72 57//72
f 27//73 39//73 57//73
f 39//74 40//74 57//74
f 10//75 47//75 59//75
f 13//76 10//76 59//76
f 20//77 13//77 59//77
f 22//78 20//78 59//78
f 37//79 22//79 59//79
f 47//80 37//80 59//80
f 16//81 36//81 60//81
f 36//82 37//82 60//82
f 48//83 16//83 60//83
f 37//84 48//84 60//84
f 4//85 12//85 61//85
f 35//86 29//86 61//86
f 12//87 35//87 61//87
f 42//88 4//88 61//88
f 29//89 42//89 61//89
f 35//90 31//90 62//90
f 50//91 49//91 62//91
f 49//92 35//92 62//92
f 52//93 50//93 62//93
f 31//94 52//94 62//94
f 22//95 36//95 63//95
f 4//96 18//96 63//96
f 18//97 22//97 63//97
f 46//98 4//98 63//98
f 36//99 46//99 63//99
f 40//100 38//100 1//100
f 58//101 40//101 1//101
f 38//102 2//102 1//102
f 7//103 9//103 64//103
f 34//104 15//104 64//104
f 9//105 44//105 64//105
f 44//106 34//106 64//106
f 51//107 7//107 64//107
f 15//108 51//108 64//108
f 6//109 58//109 3//109
f 2//110 54//110 3//110
f 32//111 6//111 3//111
f 54//112 52//112 3//112
f 52//113 32//113 3//113
f 58//114 1//114 3//114
o convex_1.003
v -0.001382 0.002139 -0.001704
v -0.000965 0.002290 -0.001855
v -0.001268 0.002101 -0.001893
v -0.001155 0.002063 -0.001931
v -0.001003 0.002063 -0.001969
v 0.001533 0.002063 -0.000265
v -0.001306 0.002063 -0.000379
v 0.001533 0.002063 -0.001969
v 0.001533 0.002555 -0.001969
v 0.001533 0.002555 -0.000190
v -0.000019 0.002555 -0.000190
v -0.000057 0.002555 -0.001969
v -0.000814 0.002063 -0.000265
v -0.000927 0.002366 -0.001666
v -0.001306 0.002177 -0.000530
v -0.000170 0.002555 -0.001780
v -0.001420 0.002063 -0.001742
v -0.000701 0.002441 -0.000568
v -0.001003 0.002328 -0.000492
v -0.001420 0.002101 -0.000530
v -0.000170 0.002555 -0.000455
v -0.000549 0.002479 -0.001666
v -0.001230 0.002101 -0.000341
v -0.000019 0.002517 -0.000190
vn -0.4402 0.7911 -0.4246
vn 0.0000 -1.0000 -0.0000
vn 1.0000 0.0000 0.0000
vn 0.0000 0.0000 -1.0000
vn 0.0000 1.0000 0.0000
vn -0.4464 0.8949 -0.0000
vn -0.4464 0.8948 -0.0001
vn -0.4461 0.8950 0.0001
vn -0.2872 0.9278 0.2383
vn -0.3487 0.9372 0.0078
vn -0.4460 0.8950 0.0001
vn -0.3018 0.9040 -0.3028
vn -0.4122 0.8710 -0.2674
vn -0.5547 0.8320 0.0090
vn -0.3509 -0.9360 0.0293
vn -0.8915 0.4528 -0.0142
vn -0.2352 0.9627 0.1340
vn -0.1966 0.9805 0.0000
vn -0.2794 0.9348 -0.2193
vn -0.2864 0.9581 -0.0065
vn -0.2351 0.9617 -0.1406
vn -0.2108 0.9775 0.0046
vn -0.1676 0.1217 0.9783
vn -0.2000 -0.4633 0.8633
vn -0.3481 0.7351 0.5817
vn -0.4386 0.7588 0.4815
vn -0.5773 0.5743 0.5804
vn -0.4845 0.7267 0.4870
vn 0.0008 -0.1602 0.9871
vn 0.0037 -0.1507 0.9886
vn 0.0028 -0.1538 0.9881
vn 0.0000 0.0000 1.0000
vn 0.0000 -0.1630 0.9866
vn -0.0939 0.0000 0.9956
vn -0.2354 0.2415 -0.9414
vn -0.2021 0.3886 -0.8990
vn -0.4289 -0.6741 -0.6014
vn -0.6447 0.5745 -0.5043
vn -0.2662 0.5814 -0.7689
s 1
f 65//115 66//115 67//115
f 68//116 69//116 70//116
f 68//116 70//116 71//116
f 70//116 69//116 72//116
f 73//117 70//117 72//117
f 69//118 73//118 72//118
f 70//117 73//117 74//117
f 73//119 75//119 74//119
f 73//118 69//118 76//118
f 75//119 73//119 76//119
f 71//116 70//116 77//116
f 78//120 65//121 79//122
f 75//119 76//119 80//119
f 68//116 71//116 81//116
f 75//123 82//123 83//123
f 82//124 78//124 83//124
f 78//120 79//122 83//125
f 78//126 76//126 66//126
f 65//127 78//127 66//127
f 79//128 65//128 84//128
f 81//129 71//129 84//129
f 65//130 81//130 84//130
f 82//131 75//131 85//131
f 75//119 80//119 85//119
f 85//132 80//132 86//132
f 76//133 78//133 86//133
f 78//134 82//134 86//134
f 80//135 76//135 86//135
f 82//136 85//136 86//136
f 77//137 75//137 87//137
f 71//138 77//138 87//138
f 75//139 83//139 87//139
f 83//140 79//140 87//140
f 84//141 71//141 87//141
f 79//142 84//142 87//142
f 70//143 74//144 88//145
f 74//146 75//146 88//146
f 77//147 70//143 88//145
f 75//148 77//148 88//148
f 69//149 68//149 67//149
f 76//150 69//150 67//150
f 68//151 81//151 67//151
f 81//152 65//152 67//152
f 66//153 76//153 67//153
o convex_2.003
v 0.001533 0.003009 0.000908
v -0.000019 0.003009 0.000908
v -0.000019 0.002934 0.000870
v 0.001533 0.002555 -0.001969
v 0.001533 0.004440 0.000900
v 0.001533 0.002896 0.000833
v 0.001533 0.004440 -0.000900
v -0.000019 0.004440 -0.000900
v -0.000019 0.004440 0.000900
v -0.000133 0.002555 -0.000493
v -0.000057 0.002555 -0.001969
v 0.001533 0.002555 -0.000152
v 0.001533 0.002820 -0.001931
v -0.000133 0.002593 -0.001779
v -0.000019 0.002820 -0.001931
v -0.000019 0.002555 -0.000152
v -0.000019 0.002858 0.000757
v -0.000019 0.004372 -0.000955
v 0.001533 0.004372 -0.000955
v 0.001078 0.002707 -0.001969
v 0.001533 0.002858 0.000757
vn 0.0000 -0.4520 0.8920
vn 1.0000 -0.0000 0.0000
vn 0.0000 1.0000 0.0000
vn 0.0000 0.0056 1.0000
vn -0.9967 0.0005 0.0810
vn 0.0000 -1.0000 0.0000
vn -0.9982 0.0594 0.0016
vn -0.9981 0.0616 0.0000
vn -0.9981 0.0615 0.0001
vn -0.9983 0.0591 0.0017
vn -0.4976 -0.8670 -0.0256
vn -0.8989 0.1858 -0.3967
vn -0.6872 -0.6892 0.2297
vn 0.0000 -0.9487 0.3162
vn 0.0000 0.6289 -0.7775
vn 0.0000 0.5324 -0.8465
vn -0.9727 0.1459 -0.1803
vn -0.9096 0.2212 -0.3518
vn 0.0000 0.0000 -1.0000
vn 0.0474 0.1418 -0.9888
vn -0.0194 0.1446 -0.9893
vn 0.0000 0.3187 -0.9478
vn 0.0000 -0.8944 0.4472
vn -0.9941 -0.0490 0.0968
vn -0.0070 -0.8298 0.5581
vn -0.9689 -0.2054 0.1382
vn 0.0063 -0.5530 0.8332
s 1
f 89//154 90//154 91//154
f 92//155 93//155 94//155
f 93//155 92//155 95//155
f 96//156 93//156 95//156
f 93//156 96//156 97//156
f 90//157 93//157 97//157
f 90//158 97//158 98//158
f 99//159 92//159 98//159
f 92//155 94//155 100//155
f 98//159 92//159 100//159
f 95//155 92//155 101//155
f 97//160 96//161 102//162
f 98//163 97//160 102//162
f 99//164 98//164 102//164
f 103//165 99//165 102//165
f 94//155 93//155 89//155
f 93//157 90//157 89//157
f 98//159 100//159 104//159
f 105//166 98//166 104//166
f 100//167 105//167 104//167
f 96//168 95//168 106//168
f 101//169 103//169 106//169
f 102//170 96//170 106//170
f 103//171 102//171 106//171
f 95//155 101//155 107//155
f 106//168 95//168 107//168
f 101//169 106//169 107//169
f 92//172 99//172 108//172
f 101//173 92//173 108//173
f 99//174 103//174 108//174
f 103//175 101//175 108//175
f 100//155 94//155 109//155
f 94//176 105//176 109//176
f 105//167 100//167 109//167
f 90//177 98//177 91//177
f 105//178 94//178 91//178
f 98//179 105//179 91//179
f 94//180 89//180 91//180
o convex_3.003
v -0.000019 0.004638 -0.000900
v 0.001533 0.010619 -0.000900
v 0.001533 0.004638 -0.000900
v 0.001533 0.010619 0.000900
v 0.001533 0.004440 0.000900
v -0.000019 0.010618 0.000900
v 0.001533 0.004440 -0.000900
v -0.000019 0.004440 -0.000900
v -0.000019 0.004440 0.000900
v -0.000019 0.010618 -0.000900
vn 0.0000 0.0000 -1.0000
vn 1.0000 -0.0000 0.0000
vn -0.0006 1.0000 0.0000
vn 0.0000 -0.0000 1.0000
vn 0.0000 -1.0000 0.0000
vn -1.0000 -0.0000 0.0000
s 1
f 110//181 111//181 112//181
f 111//182 113//182 114//182
f 113//183 111//183 115//183
f 114//184 113//184 115//184
f 111//182 114//182 116//182
f 114//185 117//185 116//185
f 117//185 114//185 118//185
f 115//186 117//186 118//186
f 114//184 115//184 118//184
f 117//186 115//186 119//186
f 115//183 111//183 119//183
f 116//181 117//181 110//181
f 117//184 119//184 110//184
f 119//181 111//181 110//181
f 111//182 116//182 112//186
f 116//181 110//181 112//181
