# Blender v2.91.0 OBJ File: ''
# www.blender.org
o convex_0.001
v 0.002447 0.000548 0.001807
v 0.002371 0.000927 0.001655
v 0.002258 0.000889 0.001920
v 0.001463 0.002063 0.001769
v -0.001528 0.002063 0.000293
v -0.001528 0.002063 0.001958
v 0.001009 -0.002139 0.001958
v 0.002333 -0.000360 0.001958
v 0.001274 0.002063 0.000331
v 0.001804 -0.001533 0.000293
v -0.002322 -0.000398 0.000293
v -0.002209 -0.000852 0.001958
v -0.000846 -0.002214 0.000293
v 0.001842 0.001495 0.001958
v 0.001842 0.001495 0.000293
v -0.002474 0.000245 0.001845
v -0.002474 -0.000587 0.001655
v -0.002512 -0.000322 0.000558
v -0.002133 -0.001382 0.001731
v 0.001501 -0.002063 0.000595
v 0.002031 -0.001533 0.000558
v 0.002182 -0.001306 0.001655
v 0.001728 -0.001836 0.001807
v -0.002095 -0.001419 0.000482
v -0.001641 -0.001949 0.001693
v 0.000819 -0.002404 0.001693
v 0.000744 -0.002404 0.000444
v -0.002436 0.000624 0.000444
v 0.000062 -0.002479 0.000406
v -0.000543 -0.002479 0.000558
v -0.001262 -0.002214 0.000595
v 0.000289 -0.002517 0.001693
v -0.000467 -0.002479 0.001769
v 0.001501 0.001987 0.001845
v 0.002031 0.001533 0.001693
v 0.002031 0.001533 0.000558
v 0.001160 0.002063 0.001958
v -0.000392 -0.002328 0.001958
v -0.001224 -0.002101 0.001920
v 0.001009 -0.002139 0.000293
v -0.002474 0.000548 0.001693
v -0.002133 0.001381 0.001731
v -0.002322 0.001040 0.000558
v -0.002247 0.000738 0.001958
v 0.001690 0.001911 0.000558
v -0.000922 -0.002366 0.001693
v -0.002322 -0.001041 0.000558
v 0.002523 -0.000171 0.001693
v 0.002485 0.000510 0.000558
v -0.001868 -0.001458 0.000293
v -0.001906 0.001684 0.000558
v 0.002409 0.000170 0.000331
v 0.002258 -0.000700 0.000293
v 0.001955 -0.001344 0.001958
v 0.002409 -0.000776 0.001731
v 0.002447 -0.000663 0.000558
v -0.001603 -0.001949 0.000444
v 0.002371 0.000851 0.000444
v -0.002209 0.000851 0.000293
v 0.002523 -0.000209 0.000558
v 0.001311 -0.002177 0.001693
v 0.002258 -0.001155 0.000520
v 0.000289 -0.002517 0.000558
v -0.001868 -0.001458 0.001958
vn 0.8486 0.3345 0.4098
vn 0.0000 1.0000 0.0000
vn -0.0000 0.0000 1.0000
vn 0.0000 0.0000 -1.0000
vn 0.0135 0.0802 -0.9967
vn -0.8009 -0.1333 0.5838
vn -0.9994 -0.0075 0.0328
vn -0.8336 -0.3141 0.4543
vn 0.5916 -0.6270 -0.5068
vn 0.7632 -0.6456 0.0285
vn 0.7071 -0.7071 0.0000
vn -0.7554 -0.6552 -0.0036
vn 0.4147 -0.9096 -0.0249
vn -0.8133 -0.0048 -0.5818
vn -0.1523 -0.7805 -0.6063
vn -0.3288 -0.8288 -0.4529
vn 0.1606 -0.7531 0.6380
vn -0.0499 -0.9987 0.0031
vn 0.6667 0.6667 0.3333
vn 0.8721 0.4893 0.0000
vn 0.6336 0.5614 0.5324
vn 0.3537 0.7439 0.5670
vn 0.3694 0.4436 0.8165
vn -0.2254 -0.7156 0.6612
vn 0.0922 -0.6833 0.7243
vn 0.0227 -0.7854 0.6185
vn 0.0142 -0.3507 -0.9364
vn 0.4763 -0.6248 -0.6187
vn 0.1082 -0.5716 -0.8133
vn 0.4346 -0.7329 -0.5235
vn -0.9996 0.0121 0.0242
vn -0.9254 0.3770 0.0395
vn -0.9634 0.2676 -0.0130
vn -0.9967 0.0770 -0.0256
vn -0.4277 -0.0102 0.9038
vn -0.6502 0.3528 0.6729
vn -0.8174 0.2583 0.5149
vn -0.8205 0.3141 0.4776
vn 0.3658 0.9294 -0.0481
vn 0.5428 0.5833 -0.6043
vn 0.6295 0.5679 -0.5304
vn 0.6844 0.7282 0.0369
vn 0.7425 0.6698 0.0000
vn -0.2867 -0.7904 0.5413
vn -0.4746 -0.8184 0.3239
vn -0.5014 -0.8645 0.0356
vn -0.2434 -0.9698 0.0153
vn -0.3468 -0.9377 -0.0224
vn -0.6865 -0.2771 -0.6723
vn -0.8217 -0.2171 -0.5269
vn -0.8582 -0.5132 -0.0109
vn -0.9664 -0.2554 -0.0282
vn -0.9197 -0.3912 0.0345
vn 0.8147 -0.0058 0.5799
vn 0.9945 0.1008 0.0272
vn 0.9784 0.2056 0.0235
vn -0.6426 -0.2752 -0.7150
vn -0.7080 0.7062 0.0000
vn -0.7739 0.4999 -0.3889
vn -0.7519 0.6588 0.0247
vn -0.8398 0.5425 -0.0224
vn 0.1194 0.0226 -0.9926
vn 0.3524 -0.4194 0.8366
vn 0.7281 -0.4847 0.4847
vn 0.8468 -0.1271 0.5165
vn 0.9828 -0.1843 0.0141
vn 0.6702 -0.2574 0.6961
vn 0.7573 -0.3985 0.5174
vn -0.3730 -0.7726 -0.5137
vn -0.7335 -0.6793 -0.0223
vn -0.6084 -0.7934 -0.0185
vn -0.5997 -0.5126 -0.6145
vn -0.3194 -0.4318 -0.8435
vn 0.8927 0.4498 -0.0282
vn 0.4567 0.1704 -0.8732
vn 0.6990 0.4424 -0.5619
vn 0.9502 0.3111 -0.0195
vn 0.8665 0.1284 -0.4824
vn -0.7071 0.3973 -0.5849
vn -0.5895 0.0533 -0.8060
vn -0.7385 0.3588 -0.5708
vn 0.9863 -0.1651 0.0055
vn 0.9986 0.0528 -0.0018
vn 0.9229 0.0488 -0.3820
vn 0.7994 -0.1130 -0.5901
vn 0.8154 -0.1365 -0.5625
vn 0.3580 -0.7760 0.5193
vn 0.4188 -0.9078 -0.0218
vn 0.4172 -0.7028 0.5762
vn 0.6282 -0.7776 0.0280
vn 0.6734 -0.4624 -0.5768
vn 0.8567 -0.5156 -0.0112
vn 0.8019 -0.2667 -0.5347
vn 0.6337 -0.3454 -0.6922
vn 0.9187 -0.3948 0.0090
vn 0.9336 -0.3583 -0.0043
vn 0.1222 -0.9045 -0.4087
vn 0.2376 -0.9712 -0.0143
vn -0.0449 -0.9829 -0.1787
vn 0.2085 -0.9780 0.0000
vn -0.0456 -0.9990 0.0000
vn -0.6630 -0.3731 0.6491
vn -0.5424 -0.5792 0.6085
vn -0.6212 -0.5747 0.5328
vn -0.0839 -0.1423 0.9863
vn 0.1469 0.0389 0.9884
vn 0.8077 0.4277 0.4058
vn 0.6982 0.4440 0.5616
vn 0.5897 0.0599 0.8054
s off
f 1//1 2//1 3//1
f 4//2 5//2 6//2
f 6//3 7//3 8//3
f 5//2 4//2 9//2
f 5//4 10//4 11//4
f 7//3 6//3 12//3
f 11//4 10//4 13//4
f 6//3 8//3 14//3
f 5//5 9//5 15//5
f 10//4 5//4 15//4
f 12//6 16//6 17//6
f 16//7 18//7 17//7
f 19//8 12//8 17//8
f 20//9 10//9 21//9
f 22//10 23//10 21//10
f 23//11 20//11 21//11
f 19//12 24//12 25//12
f 20//13 26//13 27//13
f 11//14 18//14 28//14
f 13//15 29//15 30//15
f 31//16 13//16 30//16
f 26//17 7//17 32//17
f 33//18 30//18 32//18
f 4//19 34//19 35//19
f 2//20 36//20 35//20
f 34//21 14//21 35//21
f 34//22 4//22 37//22
f 4//2 6//2 37//2
f 14//23 34//23 37//23
f 6//3 14//3 37//3
f 7//3 12//3 38//3
f 39//24 33//24 38//24
f 32//25 7//25 38//25
f 33//26 32//26 38//26
f 29//27 13//27 40//27
f 13//4 10//4 40//4
f 10//28 20//28 40//28
f 27//29 29//29 40//29
f 20//30 27//30 40//30
f 18//31 16//31 41//31
f 42//32 43//32 41//32
f 43//33 28//33 41//33
f 28//34 18//34 41//34
f 16//35 12//35 44//35
f 12//3 6//3 44//3
f 6//36 42//36 44//36
f 41//37 16//37 44//37
f 42//38 41//38 44//38
f 9//39 4//39 45//39
f 15//40 9//40 45//40
f 36//41 15//41 45//41
f 4//42 35//42 45//42
f 35//43 36//43 45//43
f 33//44 39//44 46//44
f 39//45 25//45 46//45
f 25//46 31//46 46//46
f 30//47 33//47 46//47
f 31//48 30//48 46//48
f 11//49 24//49 47//49
f 18//50 11//50 47//50
f 24//51 19//51 47//51
f 17//52 18//52 47//52
f 19//53 17//53 47//53
f 8//54 48//54 1//54
f 48//55 49//55 1//55
f 49//56 2//56 1//56
f 24//57 11//57 50//57
f 11//4 13//4 50//4
f 6//58 5//58 51//58
f 5//59 43//59 51//59
f 42//60 6//60 51//60
f 43//61 42//61 51//61
f 15//62 52//62 53//62
f 10//4 15//4 53//4
f 8//3 7//3 54//3
f 7//63 23//63 54//63
f 23//64 22//64 54//64
f 48//65 8//65 55//65
f 56//66 48//66 55//66
f 8//67 54//67 55//67
f 54//68 22//68 55//68
f 13//69 31//69 57//69
f 25//70 24//70 57//70
f 31//71 25//71 57//71
f 24//72 50//72 57//72
f 50//73 13//73 57//73
f 36//74 2//74 58//74
f 52//75 15//75 58//75
f 15//76 36//76 58//76
f 2//77 49//77 58//77
f 49//78 52//78 58//78
f 5//4 11//4 59//4
f 43//79 5//79 59//79
f 11//80 28//80 59//80
f 28//81 43//81 59//81
f 48//82 56//82 60//82
f 49//83 48//83 60//83
f 52//84 49//84 60//84
f 53//85 52//85 60//85
f 56//86 53//86 60//86
f 7//87 26//87 61//87
f 26//88 20//88 61//88
f 23//89 7//89 61//89
f 20//90 23//90 61//90
f 21//91 10//91 62//91
f 22//92 21//92 62//92
f 53//93 56//93 62//93
f 10//94 53//94 62//94
f 55//95 22//95 62//95
f 56//96 55//96 62//96
f 29//97 27//97 63//97
f 27//98 26//98 63//98
f 30//99 29//99 63//99
f 26//100 32//100 63//100
f 32//101 30//101 63//101
f 12//102 19//102 64//102
f 25//103 39//103 64//103
f 19//104 25//104 64//104
f 38//3 12//3 64//3
f 39//105 38//105 64//105
f 14//106 8//106 3//106
f 2//107 35//107 3//107
f 35//108 14//108 3//108
f 8//109 1//109 3//109
o convex_1.001
v 0.001387 0.002101 0.000444
v 0.001387 0.002139 0.000558
v 0.001425 0.002063 0.000520
v -0.001527 0.002593 0.000179
v -0.001527 0.002555 0.000179
v -0.001527 0.002593 0.001958
v -0.001527 0.002063 0.001958
v -0.001527 0.002063 0.000293
v 0.001425 0.002063 0.001731
v 0.000024 0.002593 0.000179
v 0.001198 0.002063 0.000331
v 0.000062 0.002593 0.001958
v 0.001085 0.002063 0.001958
v 0.000933 0.002366 0.000595
v 0.001009 0.002328 0.001731
v 0.001085 0.002063 0.000293
v 0.000138 0.002593 0.001769
v 0.000138 0.002593 0.000482
v 0.001387 0.002101 0.001807
v 0.000819 0.002404 0.001655
v 0.001387 0.002139 0.001693
v 0.001047 0.002290 0.000444
v 0.001009 0.002252 0.001882
vn 0.8452 0.5071 -0.1690
vn -1.0000 0.0000 0.0000
vn 0.0000 -1.0000 0.0000
vn 0.0000 0.0000 -1.0000
vn 0.0000 1.0000 0.0000
vn 0.0000 0.0000 1.0000
vn 0.4472 0.8944 0.0000
vn 0.0000 -0.2257 -0.9742
vn 0.0049 -0.2009 -0.9796
vn 0.2924 0.3983 -0.8694
vn 0.2871 0.9518 -0.1080
vn 0.3720 -0.7424 0.5572
vn 0.3457 0.5472 -0.7623
vn 0.3041 0.9362 0.1759
vn 0.3692 0.9293 0.0064
vn 0.2833 0.9522 0.1139
vn 0.2752 0.9614 -0.0049
vn 0.2674 0.9636 0.0000
vn 0.8944 0.4472 0.0000
vn 0.8452 0.5071 0.1690
vn 0.4516 0.8464 0.2821
vn 0.3282 0.9198 -0.2152
vn 0.4362 0.8919 -0.1196
vn 0.3654 0.6574 -0.6590
vn 0.4665 0.8391 -0.2797
vn 0.2284 0.4409 0.8680
vn 0.3368 0.8410 0.4233
vn 0.3478 0.4668 0.8131
vn 0.4073 0.8158 0.4106
vn 0.4763 -0.6678 -0.5720
s off
f 65//110 66//110 67//110
f 68//111 69//111 70//111
f 70//111 69//111 71//111
f 71//111 69//111 72//111
f 73//112 71//112 72//112
f 69//113 68//113 74//113
f 68//114 70//114 74//114
f 73//112 72//112 75//112
f 70//115 71//115 76//115
f 74//114 70//114 76//114
f 71//112 73//112 77//112
f 76//115 71//115 77//115
f 78//116 79//116 66//116
f 72//117 69//117 80//117
f 69//118 74//118 80//118
f 75//112 72//112 80//112
f 74//119 75//119 80//119
f 74//114 76//114 81//114
f 78//120 74//120 82//120
f 74//114 81//114 82//114
f 77//121 73//121 83//121
f 75//122 74//122 65//122
f 76//123 79//123 84//123
f 79//124 78//124 84//124
f 81//125 76//125 84//125
f 78//126 82//126 84//126
f 82//127 81//127 84//127
f 73//128 66//128 85//128
f 66//116 79//116 85//116
f 83//129 73//129 85//129
f 79//130 83//130 85//130
f 74//131 78//131 86//131
f 78//132 66//132 86//132
f 65//133 74//133 86//133
f 66//134 65//134 86//134
f 76//135 77//135 87//135
f 79//136 76//136 87//136
f 77//137 83//137 87//137
f 83//138 79//138 87//138
f 73//112 75//112 67//112
f 66//128 73//128 67//128
f 75//139 65//139 67//139
o convex_2.001
v 0.000025 0.002896 -0.000843
v -0.001528 0.002858 -0.000767
v -0.001528 0.002896 -0.000843
v -0.001528 0.002593 0.000065
v 0.000025 0.002593 0.000065
v -0.001528 0.002593 0.001958
v -0.001528 0.004440 0.000900
v -0.001528 0.003047 -0.000919
v 0.000025 0.004440 -0.000900
v 0.000025 0.004440 0.000900
v -0.001528 0.004440 -0.000900
v 0.000100 0.002593 0.001769
v -0.001528 0.002820 0.001920
v 0.000100 0.002631 0.000482
v 0.000025 0.003047 -0.000919
v 0.000025 0.004400 0.000955
v 0.000025 0.002820 0.001920
v 0.000025 0.002593 0.001958
v -0.001528 0.004400 0.000955
v -0.000051 0.002745 -0.000427
v -0.001528 0.002631 -0.000086
v 0.000025 0.002745 0.001958
vn 0.0000 -0.8944 -0.4472
vn 0.0000 -1.0000 0.0000
vn -1.0000 -0.0000 0.0000
vn 0.0000 1.0000 0.0000
vn 0.0000 0.0136 -0.9999
vn 0.9991 0.0414 0.0000
vn 0.9132 -0.3866 -0.1290
vn 0.5569 -0.8302 -0.0245
vn 0.9992 0.0411 0.0012
vn 0.0000 -0.4496 -0.8932
vn 0.9986 0.0007 -0.0532
vn 0.9975 -0.0316 -0.0628
vn 0.0000 0.8087 0.5882
vn 0.9569 0.1513 0.2478
vn 0.9971 0.0615 0.0448
vn 0.0000 0.5212 0.8534
vn 0.1503 -0.9378 -0.3129
vn 0.0064 -0.9403 -0.3402
vn 0.0002 -0.9487 -0.3162
vn 0.0000 -0.9698 -0.2440
vn 0.0054 -0.9552 -0.2959
vn 0.9535 0.1362 0.2688
vn -0.0162 0.1651 0.9861
vn 0.0000 0.4520 0.8920
vn 0.0000 -0.0000 1.0000
vn 0.9295 -0.0000 0.3688
s off
f 88//140 89//140 90//140
f 91//141 92//141 93//141
f 94//142 91//142 93//142
f 91//142 94//142 95//142
f 96//143 94//143 97//143
f 94//143 96//143 98//143
f 95//142 94//142 98//142
f 96//144 95//144 98//144
f 93//141 92//141 99//141
f 94//142 93//142 100//142
f 91//142 95//142 89//142
f 96//145 97//145 101//145
f 92//146 88//146 101//146
f 99//147 92//147 101//147
f 97//148 99//148 101//148
f 95//144 96//144 102//144
f 88//149 95//149 102//149
f 96//150 101//150 102//150
f 101//151 88//151 102//151
f 97//152 94//152 103//152
f 104//153 99//153 103//153
f 99//154 97//154 103//154
f 100//155 104//155 103//155
f 93//141 99//141 105//141
f 94//142 100//142 106//142
f 103//152 94//152 106//152
f 100//155 103//155 106//155
f 88//156 92//156 107//156
f 89//157 88//157 107//157
f 89//158 107//158 108//158
f 92//159 91//159 108//159
f 91//142 89//142 108//142
f 107//160 92//160 108//160
f 99//161 104//161 109//161
f 100//162 93//162 109//162
f 104//163 100//163 109//163
f 93//164 105//164 109//164
f 105//165 99//165 109//165
f 95//149 88//149 90//149
f 89//142 95//142 90//142
o convex_3.001
v 0.000025 0.004440 0.000900
v -0.001528 0.010618 0.000900
v -0.001528 0.004440 0.000900
v 0.000025 0.010618 0.000900
v 0.000025 0.010618 -0.000900
v -0.001528 0.004440 -0.000900
v -0.001528 0.010618 -0.000900
v 0.000025 0.004440 -0.000900
vn 0.0000 -0.0000 1.0000
vn 0.0000 1.0000 0.0000
vn 1.0000 0.0000 0.0000
vn 0.0000 0.0000 -1.0000
vn -1.0000 -0.0000 0.0000
vn 0.0000 -1.0000 0.0000
s off
f 110//166 111//166 112//166
f 113//167 114//167 111//167
f 114//168 113//168 110//168
f 113//166 111//166 110//166
f 114//169 115//169 116//169
f 111//167 114//167 116//167
f 115//170 111//170 116//170
f 115//169 114//169 117//169
f 110//171 115//171 117//171
f 114//168 110//168 117//168
f 111//170 115//170 112//170
f 115//171 110//171 112//171
