# Blender v3.1.2 OBJ File: '2.blend'
# www.blender.org
mtllib a.mtl
o Cylinder001_网格
v 0.016227 -0.000238 -0.000287
v 0.015278 -0.000238 -0.005664
v 0.012548 -0.000238 -0.010393
v 0.008365 -0.000238 -0.013903
v 0.003234 -0.000238 -0.015771
v -0.002227 -0.000238 -0.015771
v -0.007358 -0.000238 -0.013903
v -0.011541 -0.000238 -0.010393
v -0.014271 -0.000238 -0.005664
v -0.015219 -0.000238 -0.000287
v -0.014271 -0.000238 0.005091
v -0.011541 -0.000238 0.009820
v -0.007358 -0.000238 0.013330
v -0.002227 -0.000238 0.015197
v 0.003234 -0.000238 0.015197
v 0.008365 -0.000238 0.013330
v 0.012548 -0.000238 0.009820
v 0.015278 -0.000238 0.005091
v 0.016227 0.004492 -0.000287
v 0.015278 0.004492 -0.005664
v 0.012548 0.004492 -0.010393
v 0.008365 0.004492 -0.013903
v 0.003234 0.004492 -0.015771
v -0.002227 0.004492 -0.015771
v -0.007358 0.004492 -0.013903
v -0.011541 0.004492 -0.010393
v -0.014271 0.004492 -0.005664
v -0.015219 0.004492 -0.000287
v -0.014271 0.004492 0.005091
v -0.011541 0.004492 0.009820
v -0.007358 0.004492 0.013330
v -0.002227 0.004492 0.015197
v 0.003234 0.004492 0.015197
v 0.008365 0.004492 0.013330
v 0.012548 0.004492 0.009820
v 0.015278 0.004492 0.005091
vt 0.861111 0.000000
vt 0.805556 0.000000
vt 0.750000 0.000000
vt 0.340035 0.000000
vt 0.195328 0.000000
vt 0.087369 0.000000
vt 0.029179 0.000000
vt 0.027778 0.000000
vt 0.083333 0.000000
vt 0.189144 0.000000
vt 0.332450 0.000000
vt 0.495964 0.000000
vt 0.659965 0.000000
vt 0.804672 0.000000
vt 0.912631 0.000000
vt 0.970820 0.000000
vt 0.972222 0.000000
vt 0.916667 0.000000
vt 0.805556 1.000000
vt 0.750000 1.000000
vt 0.861111 1.000000
vt 0.916667 1.000000
vt 0.972222 1.000000
vt 0.027778 1.000000
vt -0.027778 1.000000
vt -0.027778 0.000000
vt 0.027778 0.000000
vt 0.083333 1.000000
vt 0.083333 0.000000
vt 0.138889 1.000000
vt 0.138889 0.000000
vt 0.194444 1.000000
vt 0.194444 0.000000
vt 0.250000 1.000000
vt 0.250000 0.000000
vt 0.305556 1.000000
vt 0.305556 0.000000
vt 0.361111 1.000000
vt 0.361111 0.000000
vt 0.416667 1.000000
vt 0.416667 0.000000
vt 0.472222 1.000000
vt 0.472222 0.000000
vt 0.527778 1.000000
vt 0.527778 0.000000
vt 0.583333 1.000000
vt 0.583333 0.000000
vt 0.638889 1.000000
vt 0.638889 0.000000
vt 0.694444 1.000000
vt 0.694444 0.000000
vt 0.029179 1.000000
vt 0.087368 1.000000
vt 0.195327 1.000000
vt 0.970821 1.000000
vt 0.912631 1.000000
vt 0.804673 1.000000
vt 0.659966 1.000000
vt 0.495965 1.000000
vt 0.332450 1.000000
vt 0.189145 1.000000
vt 0.083333 1.000000
vt 0.027778 1.000000
vn -0.0000 -1.0000 0.0000
vn 0.9397 0.0000 -0.3420
vn 1.0000 0.0000 0.0000
vn 0.7660 0.0000 -0.6428
vn 0.5000 0.0000 -0.8660
vn 0.1736 0.0000 -0.9848
vn -0.1736 0.0000 -0.9848
vn -0.5000 0.0000 -0.8660
vn -0.7660 0.0000 -0.6428
vn -0.9397 0.0000 -0.3420
vn -1.0000 0.0000 -0.0000
vn -0.9397 0.0000 0.3420
vn -0.7660 0.0000 0.6428
vn -0.5000 0.0000 0.8660
vn -0.1736 0.0000 0.9848
vn 0.1736 0.0000 0.9848
vn 0.5000 0.0000 0.8660
vn 0.7660 0.0000 0.6428
vn 0.9397 0.0000 0.3420
vn 0.0000 1.0000 -0.0000
usemtl Material_#25
s 1
f 3/1/1 2/2/1 1/3/1
f 1/3/1 18/4/1 17/5/1
f 17/5/1 16/6/1 15/7/1
f 1/3/1 17/5/1 15/7/1
f 3/1/1 1/3/1 15/7/1
f 15/7/1 14/8/1 13/9/1
f 13/9/1 12/10/1 11/11/1
f 15/7/1 13/9/1 11/11/1
f 3/1/1 15/7/1 11/11/1
f 11/11/1 10/12/1 9/13/1
f 9/13/1 8/14/1 7/15/1
f 11/11/1 9/13/1 7/15/1
f 3/1/1 11/11/1 7/15/1
f 7/15/1 6/16/1 5/17/1
f 3/1/1 7/15/1 5/17/1
f 3/1/1 5/17/1 4/18/1
f 20/19/2 19/20/3 1/3/3
f 1/3/3 2/2/2 20/19/2
f 21/21/4 20/19/2 2/2/2
f 2/2/2 3/1/4 21/21/4
f 22/22/5 21/21/4 3/1/4
f 3/1/4 4/18/5 22/22/5
f 23/23/6 22/22/5 4/18/5
f 4/18/5 5/17/6 23/23/6
f 24/24/7 23/25/6 5/26/6
f 5/26/6 6/27/7 24/24/7
f 25/28/8 24/24/7 6/27/7
f 6/27/7 7/29/8 25/28/8
f 26/30/9 25/28/8 7/29/8
f 7/29/8 8/31/9 26/30/9
f 27/32/10 26/30/9 8/31/9
f 8/31/9 9/33/10 27/32/10
f 28/34/11 27/32/10 9/33/10
f 9/33/10 10/35/11 28/34/11
f 29/36/12 28/34/11 10/35/11
f 10/35/11 11/37/12 29/36/12
f 30/38/13 29/36/12 11/37/12
f 11/37/12 12/39/13 30/38/13
f 31/40/14 30/38/13 12/39/13
f 12/39/13 13/41/14 31/40/14
f 32/42/15 31/40/14 13/41/14
f 13/41/14 14/43/15 32/42/15
f 33/44/16 32/42/15 14/43/15
f 14/43/15 15/45/16 33/44/16
f 34/46/17 33/44/16 15/45/16
f 15/45/16 16/47/17 34/46/17
f 35/48/18 34/46/17 16/47/17
f 16/47/17 17/49/18 35/48/18
f 36/50/19 35/48/18 17/49/18
f 17/49/18 18/51/19 36/50/19
f 19/20/3 36/50/19 18/51/19
f 18/51/19 1/3/3 19/20/3
f 33/52/20 34/53/20 35/54/20
f 35/54/20 36/50/20 19/20/20
f 19/20/20 20/19/20 21/21/20
f 35/54/20 19/20/20 21/21/20
f 33/52/20 35/54/20 21/21/20
f 21/21/20 22/22/20 23/23/20
f 23/23/20 24/55/20 25/56/20
f 21/21/20 23/23/20 25/56/20
f 33/52/20 21/21/20 25/56/20
f 25/56/20 26/57/20 27/58/20
f 27/58/20 28/59/20 29/60/20
f 25/56/20 27/58/20 29/60/20
f 33/52/20 25/56/20 29/60/20
f 29/60/20 30/61/20 31/62/20
f 33/52/20 29/60/20 31/62/20
f 33/52/20 31/62/20 32/63/20
o Line003_网格.001
v 0.001559 0.003974 0.000375
v 0.001367 0.003974 0.001092
v 0.000843 0.003974 0.001616
v 0.000126 0.003974 0.001808
v -0.000590 0.003974 0.001616
v -0.001115 0.003974 0.001092
v -0.001307 0.003974 0.000375
v -0.001115 0.003974 -0.000341
v -0.000590 0.003974 -0.000866
v 0.000126 0.003974 -0.001058
v 0.000843 0.003974 -0.000866
v 0.001367 0.003974 -0.000341
v 0.001559 0.063673 0.000375
v 0.001367 0.063621 0.001092
v 0.000843 0.063477 0.001616
v 0.000126 0.063282 0.001808
v -0.000590 0.063086 0.001616
v -0.001115 0.062943 0.001092
v -0.001307 0.062891 0.000375
v -0.001115 0.062943 -0.000341
v -0.000590 0.063086 -0.000866
v 0.000126 0.063282 -0.001058
v 0.000843 0.063477 -0.000866
v 0.001367 0.063621 -0.000341
v -0.007340 0.078763 0.000375
v -0.007532 0.078711 0.001092
v -0.008056 0.078567 0.001616
v -0.008773 0.078372 0.001808
v -0.009489 0.078176 0.001616
v -0.010014 0.078033 0.001092
v -0.010206 0.077981 0.000375
v -0.010014 0.078033 -0.000341
v -0.009489 0.078176 -0.000866
v -0.008773 0.078372 -0.001058
v -0.008056 0.078567 -0.000866
v -0.007532 0.078711 -0.000341
v -0.007340 0.123140 0.000375
v -0.007532 0.122948 0.001092
v -0.008056 0.122423 0.001616
v -0.008773 0.121707 0.001808
v -0.009489 0.120990 0.001616
v -0.010014 0.120466 0.001092
v -0.010206 0.120274 0.000375
v -0.010014 0.120466 -0.000341
v -0.009489 0.120990 -0.000866
v -0.008773 0.121707 -0.001058
v -0.008056 0.122423 -0.000866
v -0.007532 0.122948 -0.000341
v -0.051606 0.123140 0.000375
v -0.051414 0.122948 0.001092
v -0.050890 0.122423 0.001616
v -0.050173 0.121707 0.001808
v -0.049457 0.120990 0.001616
v -0.048932 0.120466 0.001092
v -0.048740 0.120274 0.000375
v -0.048932 0.120466 -0.000341
v -0.049457 0.120990 -0.000866
v -0.050173 0.121707 -0.001058
v -0.050890 0.122423 -0.000866
v -0.051414 0.122948 -0.000341
v -0.051606 0.077132 0.000375
v -0.051414 0.077324 0.001092
v -0.050890 0.077849 0.001616
v -0.050173 0.078565 0.001808
v -0.049457 0.079282 0.001616
v -0.048932 0.079806 0.001092
v -0.048740 0.079998 0.000375
v -0.048932 0.079806 -0.000341
v -0.049457 0.079282 -0.000866
v -0.050173 0.078565 -0.001058
v -0.050890 0.077849 -0.000866
v -0.051414 0.077324 -0.000341
v -0.035083 0.077132 0.000375
v -0.035083 0.077324 0.001092
v -0.035083 0.077849 0.001616
v -0.035083 0.078565 0.001808
v -0.035083 0.079282 0.001616
v -0.035083 0.079806 0.001092
v -0.035083 0.079998 0.000375
v -0.035083 0.079806 -0.000341
v -0.035083 0.079282 -0.000866
v -0.035083 0.078565 -0.001058
v -0.035083 0.077849 -0.000866
v -0.035083 0.077324 -0.000341
vn 1.0000 0.0000 0.0000
vn 0.9647 0.2633 0.0000
vn 0.8393 0.2290 0.4932
vn 0.8660 -0.0000 0.5000
vn 0.5014 0.1368 0.8543
vn 0.5000 -0.0000 0.8660
vn 0.0409 0.0112 0.9991
vn 0.0000 -0.0000 1.0000
vn -0.4382 -0.1196 0.8909
vn -0.5000 -0.0000 0.8660
vn -0.8168 -0.2229 0.5321
vn -0.8660 -0.0000 0.5000
vn -0.9647 -0.2633 -0.0000
vn -1.0000 0.0000 -0.0000
vn -0.8168 -0.2229 -0.5321
vn -0.8660 0.0000 -0.5000
vn -0.4382 -0.1196 -0.8909
vn -0.5000 0.0000 -0.8660
vn 0.0409 0.0112 -0.9991
vn 0.0000 0.0000 -1.0000
vn 0.5014 0.1368 -0.8543
vn 0.5000 0.0000 -0.8660
vn 0.8393 0.2290 -0.4932
vn 0.8660 0.0000 -0.5000
vn 0.8168 0.2229 0.5321
vn 0.4382 0.1196 0.8909
vn -0.0409 -0.0112 0.9991
vn -0.5014 -0.1368 0.8543
vn -0.8393 -0.2290 0.4932
vn -0.8393 -0.2290 -0.4932
vn -0.5014 -0.1368 -0.8543
vn -0.0409 -0.0112 -0.9991
vn 0.4382 0.1196 -0.8909
vn 0.8168 0.2229 -0.5321
vn 0.9047 -0.0000 0.4260
vn 0.3332 0.3332 0.8820
vn 0.0652 0.0652 0.9957
vn -0.2085 -0.2085 0.9555
vn -0.8310 -0.0000 0.5563
vn -0.8310 0.0000 -0.5563
vn -0.2085 -0.2085 -0.9555
vn 0.0652 0.0652 -0.9957
vn 0.3332 0.3332 -0.8820
vn 0.9047 0.0000 -0.4260
vn 0.0000 1.0000 -0.0000
vn 0.0000 0.9047 0.4260
vn -0.3332 0.3332 0.8820
vn -0.0652 0.0652 0.9957
vn 0.2085 -0.2085 0.9555
vn 0.0000 -0.8310 0.5563
vn 0.0000 -1.0000 -0.0000
vn 0.0000 -0.8310 -0.5563
vn 0.2085 -0.2085 -0.9555
vn -0.0652 0.0652 -0.9957
vn -0.3332 0.3332 -0.8820
vn 0.0000 0.9047 -0.4260
vn -0.9047 -0.0000 0.4260
vn -0.3332 -0.3332 0.8820
vn -0.0652 -0.0652 0.9957
vn 0.2085 0.2085 0.9555
vn 0.8310 -0.0000 0.5563
vn 0.8310 0.0000 -0.5563
vn 0.2085 0.2085 -0.9555
vn -0.0652 -0.0652 -0.9957
vn -0.3332 -0.3332 -0.8820
vn -0.9047 0.0000 -0.4260
vn 0.0000 -0.8660 0.5000
vn 0.0000 -0.9047 0.4260
vn 0.0000 -0.5000 0.8660
vn -0.0000 0.5000 0.8660
vn -0.0000 0.8660 0.5000
vn -0.0000 0.8310 0.5563
vn -0.0000 0.8660 -0.5000
vn -0.0000 0.8310 -0.5563
vn -0.0000 0.5000 -0.8660
vn 0.0000 -0.5000 -0.8660
vn 0.0000 -0.8660 -0.5000
vn 0.0000 -0.9047 -0.4260
usemtl Material_#25
s 1
f 37//21 49//22 50//23 38//24
f 38//24 50//23 51//25 39//26
f 39//26 51//25 52//27 40//28
f 40//28 52//27 53//29 41//30
f 41//30 53//29 54//31 42//32
f 42//32 54//31 55//33 43//34
f 43//34 55//33 56//35 44//36
f 44//36 56//35 57//37 45//38
f 45//38 57//37 58//39 46//40
f 46//40 58//39 59//41 47//42
f 47//42 59//41 60//43 48//44
f 48//44 60//43 49//22 37//21
f 49//22 61//22 62//45 50//23
f 50//23 62//45 63//46 51//25
f 51//25 63//46 64//47 52//27
f 52//27 64//47 65//48 53//29
f 53//29 65//48 66//49 54//31
f 54//31 66//49 67//33 55//33
f 55//33 67//33 68//50 56//35
f 56//35 68//50 69//51 57//37
f 57//37 69//51 70//52 58//39
f 58//39 70//52 71//53 59//41
f 59//41 71//53 72//54 60//43
f 60//43 72//54 61//22 49//22
f 61//22 73//21 74//55 62//45
f 62//45 74//55 75//56 63//46
f 63//46 75//56 76//57 64//47
f 64//47 76//57 77//58 65//48
f 65//48 77//58 78//59 66//49
f 66//49 78//59 79//34 67//33
f 67//33 79//34 80//60 68//50
f 68//50 80//60 81//61 69//51
f 69//51 81//61 82//62 70//52
f 70//52 82//62 83//63 71//53
f 71//53 83//63 84//64 72//54
f 72//54 84//64 73//21 61//22
f 73//65 85//65 86//66 74//66
f 74//66 86//66 87//67 75//56
f 75//56 87//67 88//68 76//57
f 76//57 88//68 89//69 77//58
f 77//58 89//69 90//70 78//70
f 78//70 90//70 91//71 79//71
f 79//71 91//71 92//72 80//72
f 80//72 92//72 93//73 81//61
f 81//61 93//73 94//74 82//62
f 82//62 94//74 95//75 83//63
f 83//63 95//75 96//76 84//76
f 84//76 96//76 85//65 73//65
f 85//34 97//34 98//77 86//77
f 86//77 98//77 99//78 87//67
f 87//67 99//78 100//79 88//68
f 88//68 100//79 101//80 89//69
f 89//69 101//80 102//81 90//81
f 90//81 102//81 103//21 91//21
f 91//21 103//21 104//82 92//82
f 92//82 104//82 105//83 93//73
f 93//73 105//83 106//84 94//74
f 94//74 106//84 107//85 95//75
f 95//75 107//85 108//86 96//86
f 96//86 108//86 97//34 85//34
f 97//71 109//71 110//87 98//88
f 98//88 110//87 111//89 99//78
f 99//78 111//89 112//28 100//79
f 100//79 112//28 113//90 101//80
f 101//80 113//90 114//91 102//92
f 102//92 114//91 115//65 103//65
f 103//65 115//65 116//93 104//94
f 104//94 116//93 117//95 105//83
f 105//83 117//95 118//40 106//84
f 106//84 118//40 119//96 107//85
f 107//85 119//96 120//97 108//98
f 108//98 120//97 109//71 97//71
f 37//71 38//71 39//71 40//71 41//71 42//71 43//71 44//71 45//71 46//71 47//71 48//71
f 109//21 120//21 119//21 118//21 117//21 116//21 115//21 114//21 113//21 112//21 111//21 110//21
