# Blender v3.1.2 OBJ File: '11.blend'
# www.blender.org
mtllib j.mtl
o Cylinder011_网格
v 0.015419 -0.000238 -0.000287
v 0.014471 -0.000238 -0.005664
v 0.011741 -0.000238 -0.010393
v 0.007558 -0.000238 -0.013903
v 0.002427 -0.000238 -0.015771
v -0.003034 -0.000238 -0.015771
v -0.008165 -0.000238 -0.013903
v -0.012348 -0.000238 -0.010393
v -0.015079 -0.000238 -0.005664
v -0.016027 -0.000238 -0.000287
v -0.015079 -0.000238 0.005091
v -0.012348 -0.000238 0.009820
v -0.008165 -0.000238 0.013330
v -0.003034 -0.000238 0.015197
v 0.002427 -0.000238 0.015197
v 0.007558 -0.000238 0.013330
v 0.011741 -0.000238 0.009820
v 0.014471 -0.000238 0.005091
v 0.015419 0.004492 -0.000287
v 0.014471 0.004492 -0.005664
v 0.011741 0.004492 -0.010393
v 0.007558 0.004492 -0.013903
v 0.002427 0.004492 -0.015771
v -0.003034 0.004492 -0.015771
v -0.008165 0.004492 -0.013903
v -0.012348 0.004492 -0.010393
v -0.015079 0.004492 -0.005664
v -0.016027 0.004492 -0.000287
v -0.015079 0.004492 0.005091
v -0.012348 0.004492 0.009820
v -0.008165 0.004492 0.013330
v -0.003034 0.004492 0.015197
v 0.002427 0.004492 0.015197
v 0.007558 0.004492 0.013330
v 0.011741 0.004492 0.009820
v 0.014471 0.004492 0.005091
vt 0.861111 0.000000
vt 0.805556 0.000000
vt 0.750000 0.000000
vt 0.340035 0.000000
vt 0.195328 0.000000
vt 0.087369 0.000000
vt 0.029179 0.000000
vt 0.027778 0.000000
vt 0.083333 0.000000
vt 0.189144 0.000000
vt 0.332450 0.000000
vt 0.495964 0.000000
vt 0.659965 0.000000
vt 0.804672 0.000000
vt 0.912631 0.000000
vt 0.970820 0.000000
vt 0.972222 0.000000
vt 0.916667 0.000000
vt 0.805556 1.000000
vt 0.750000 1.000000
vt 0.861111 1.000000
vt 0.916667 1.000000
vt 0.972222 1.000000
vt 0.027778 1.000000
vt -0.027778 1.000000
vt -0.027778 0.000000
vt 0.027778 0.000000
vt 0.083333 1.000000
vt 0.083333 0.000000
vt 0.138889 1.000000
vt 0.138889 0.000000
vt 0.194444 1.000000
vt 0.194444 0.000000
vt 0.250000 1.000000
vt 0.250000 0.000000
vt 0.305556 1.000000
vt 0.305556 0.000000
vt 0.361111 1.000000
vt 0.361111 0.000000
vt 0.416667 1.000000
vt 0.416667 0.000000
vt 0.472222 1.000000
vt 0.472222 0.000000
vt 0.527778 1.000000
vt 0.527778 0.000000
vt 0.583333 1.000000
vt 0.583333 0.000000
vt 0.638889 1.000000
vt 0.638889 0.000000
vt 0.694444 1.000000
vt 0.694444 0.000000
vt 0.029179 1.000000
vt 0.087368 1.000000
vt 0.195327 1.000000
vt 0.970821 1.000000
vt 0.912631 1.000000
vt 0.804673 1.000000
vt 0.659966 1.000000
vt 0.495965 1.000000
vt 0.332450 1.000000
vt 0.189145 1.000000
vt 0.083333 1.000000
vt 0.027778 1.000000
vn -0.0000 -1.0000 0.0000
vn 0.9397 0.0000 -0.3420
vn 1.0000 0.0000 0.0000
vn 0.7660 0.0000 -0.6428
vn 0.5000 0.0000 -0.8660
vn 0.1736 0.0000 -0.9848
vn -0.1736 0.0000 -0.9848
vn -0.5000 0.0000 -0.8660
vn -0.7660 0.0000 -0.6428
vn -0.9397 0.0000 -0.3420
vn -1.0000 -0.0000 -0.0000
vn -0.9397 -0.0000 0.3420
vn -0.7660 0.0000 0.6428
vn -0.5000 0.0000 0.8660
vn -0.1736 0.0000 0.9848
vn 0.1736 0.0000 0.9848
vn 0.5000 0.0000 0.8660
vn 0.7660 0.0000 0.6428
vn 0.9397 0.0000 0.3420
vn 0.0000 1.0000 -0.0000
usemtl Material_#25.006
s 1
f 3/1/1 2/2/1 1/3/1
f 1/3/1 18/4/1 17/5/1
f 17/5/1 16/6/1 15/7/1
f 1/3/1 17/5/1 15/7/1
f 3/1/1 1/3/1 15/7/1
f 15/7/1 14/8/1 13/9/1
f 13/9/1 12/10/1 11/11/1
f 15/7/1 13/9/1 11/11/1
f 3/1/1 15/7/1 11/11/1
f 11/11/1 10/12/1 9/13/1
f 9/13/1 8/14/1 7/15/1
f 11/11/1 9/13/1 7/15/1
f 3/1/1 11/11/1 7/15/1
f 7/15/1 6/16/1 5/17/1
f 3/1/1 7/15/1 5/17/1
f 3/1/1 5/17/1 4/18/1
f 20/19/2 19/20/3 1/3/3
f 1/3/3 2/2/2 20/19/2
f 21/21/4 20/19/2 2/2/2
f 2/2/2 3/1/4 21/21/4
f 22/22/5 21/21/4 3/1/4
f 3/1/4 4/18/5 22/22/5
f 23/23/6 22/22/5 4/18/5
f 4/18/5 5/17/6 23/23/6
f 24/24/7 23/25/6 5/26/6
f 5/26/6 6/27/7 24/24/7
f 25/28/8 24/24/7 6/27/7
f 6/27/7 7/29/8 25/28/8
f 26/30/9 25/28/8 7/29/8
f 7/29/8 8/31/9 26/30/9
f 27/32/10 26/30/9 8/31/9
f 8/31/9 9/33/10 27/32/10
f 28/34/11 27/32/10 9/33/10
f 9/33/10 10/35/11 28/34/11
f 29/36/12 28/34/11 10/35/11
f 10/35/11 11/37/12 29/36/12
f 30/38/13 29/36/12 11/37/12
f 11/37/12 12/39/13 30/38/13
f 31/40/14 30/38/13 12/39/13
f 12/39/13 13/41/14 31/40/14
f 32/42/15 31/40/14 13/41/14
f 13/41/14 14/43/15 32/42/15
f 33/44/16 32/42/15 14/43/15
f 14/43/15 15/45/16 33/44/16
f 34/46/17 33/44/16 15/45/16
f 15/45/16 16/47/17 34/46/17
f 35/48/18 34/46/17 16/47/17
f 16/47/17 17/49/18 35/48/18
f 36/50/19 35/48/18 17/49/18
f 17/49/18 18/51/19 36/50/19
f 19/20/3 36/50/19 18/51/19
f 18/51/19 1/3/3 19/20/3
f 33/52/20 34/53/20 35/54/20
f 35/54/20 36/50/20 19/20/20
f 19/20/20 20/19/20 21/21/20
f 35/54/20 19/20/20 21/21/20
f 33/52/20 35/54/20 21/21/20
f 21/21/20 22/22/20 23/23/20
f 23/23/20 24/55/20 25/56/20
f 21/21/20 23/23/20 25/56/20
f 33/52/20 21/21/20 25/56/20
f 25/56/20 26/57/20 27/58/20
f 27/58/20 28/59/20 29/60/20
f 25/56/20 27/58/20 29/60/20
f 33/52/20 25/56/20 29/60/20
f 29/60/20 30/61/20 31/62/20
f 33/52/20 29/60/20 31/62/20
f 33/52/20 31/62/20 32/63/20
o Line019_网格.001
v 0.000663 0.004371 0.000375
v 0.000471 0.004371 0.001092
v -0.000053 0.004371 0.001616
v -0.000770 0.004371 0.001808
v -0.001486 0.004371 0.001616
v -0.002011 0.004371 0.001092
v -0.002203 0.004371 0.000375
v -0.002011 0.004371 -0.000341
v -0.001486 0.004371 -0.000866
v -0.000770 0.004371 -0.001058
v -0.000053 0.004371 -0.000866
v 0.000471 0.004371 -0.000341
v 0.000663 0.056525 0.000375
v 0.000471 0.056886 0.001092
v -0.000053 0.057871 0.001616
v -0.000770 0.059217 0.001808
v -0.001486 0.060563 0.001616
v -0.002011 0.061549 0.001092
v -0.002203 0.061909 0.000375
v -0.002011 0.061549 -0.000341
v -0.001486 0.060563 -0.000866
v -0.000770 0.059217 -0.001058
v -0.000053 0.057871 -0.000866
v 0.000471 0.056886 -0.000341
v 0.008562 0.051207 0.000375
v 0.008621 0.051399 0.001092
v 0.008781 0.051923 0.001616
v 0.009000 0.052640 0.001808
v 0.009219 0.053356 0.001616
v 0.009379 0.053881 0.001092
v 0.009437 0.054072 0.000375
v 0.009379 0.053881 -0.000341
v 0.009219 0.053356 -0.000866
v 0.009000 0.052640 -0.001058
v 0.008781 0.051923 -0.000866
v 0.008621 0.051399 -0.000341
v 0.024280 0.051207 0.000375
v 0.024203 0.051399 0.001092
v 0.023991 0.051923 0.001616
v 0.023703 0.052640 0.001808
v 0.023414 0.053356 0.001616
v 0.023203 0.053881 0.001092
v 0.023126 0.054072 0.000375
v 0.023203 0.053881 -0.000341
v 0.023414 0.053356 -0.000866
v 0.023703 0.052640 -0.001058
v 0.023991 0.051923 -0.000866
v 0.024203 0.051399 -0.000341
v 0.035196 0.061702 0.000375
v 0.035004 0.061784 0.001092
v 0.034479 0.062007 0.001616
v 0.033763 0.062313 0.001808
v 0.033046 0.062618 0.001616
v 0.032522 0.062841 0.001092
v 0.032330 0.062923 0.000375
v 0.032522 0.062841 -0.000341
v 0.033046 0.062618 -0.000866
v 0.033763 0.062313 -0.001058
v 0.034479 0.062007 -0.000866
v 0.035004 0.061784 -0.000341
v 0.035196 0.125266 0.000375
v 0.035004 0.125074 0.001092
v 0.034479 0.124549 0.001616
v 0.033763 0.123833 0.001808
v 0.033046 0.123116 0.001616
v 0.032522 0.122592 0.001092
v 0.032330 0.122400 0.000375
v 0.032522 0.122592 -0.000341
v 0.033046 0.123116 -0.000866
v 0.033763 0.123833 -0.001058
v 0.034479 0.124549 -0.000866
v 0.035004 0.125074 -0.000341
v 0.014030 0.125266 0.000375
v 0.014030 0.125074 0.001092
v 0.014030 0.124549 0.001616
v 0.014030 0.123833 0.001808
v 0.014030 0.123116 0.001616
v 0.014030 0.122592 0.001092
v 0.014030 0.122400 0.000375
v 0.014030 0.122592 -0.000341
v 0.014030 0.123116 -0.000866
v 0.014030 0.123833 -0.001058
v 0.014030 0.124549 -0.000866
v 0.014030 0.125074 -0.000341
vn 1.0000 -0.0000 -0.0000
vn 0.2562 -0.4814 0.8382
vn 0.8660 -0.0000 0.5000
vn 0.0824 -0.1548 0.9845
vn 0.5000 -0.0000 0.8660
vn -0.0400 0.0752 0.9964
vn -0.0000 -0.0000 1.0000
vn -0.1728 0.3247 0.9299
vn -0.5000 -0.0000 0.8660
vn -0.9264 -0.0000 0.3766
vn -0.8660 -0.0000 0.5000
vn -1.0000 -0.0000 0.0000
vn -0.9264 -0.0000 -0.3766
vn -0.8660 -0.0000 -0.5000
vn -0.1728 0.3247 -0.9299
vn -0.5000 -0.0000 -0.8660
vn -0.0400 0.0752 -0.9964
vn -0.0000 0.0000 -1.0000
vn 0.0824 -0.1548 -0.9845
vn 0.5000 -0.0000 -0.8660
vn 0.8107 -0.0000 -0.5854
vn 0.8660 -0.0000 -0.5000
vn -0.5585 -0.8295 0.0000
vn -0.2920 -0.9564 0.0000
vn -0.2539 -0.8316 0.4939
vn -0.1519 -0.4976 0.8540
vn -0.0136 -0.0447 0.9989
vn 0.1307 0.4280 0.8943
vn 0.2462 0.8065 0.5375
vn 0.5174 0.7685 0.3766
vn 0.2920 0.9564 -0.0000
vn 0.5585 0.8295 0.0000
vn 0.2462 0.8065 -0.5375
vn 0.5174 0.7685 -0.3766
vn 0.1307 0.4280 -0.8943
vn -0.0136 -0.0447 -0.9989
vn -0.1519 -0.4976 -0.8540
vn -0.2539 -0.8316 -0.4939
vn -0.4528 -0.6725 -0.5854
vn 0.0000 -1.0000 -0.0000
vn 0.3240 -0.8045 0.4978
vn 0.1942 -0.4822 0.8543
vn 0.0219 -0.0544 0.9983
vn -0.1592 0.3953 0.9046
vn -0.3107 0.7715 0.5552
vn -0.3736 0.9276 -0.0000
vn -0.3107 0.7715 -0.5552
vn -0.1592 0.3953 -0.9046
vn 0.0219 -0.0544 -0.9983
vn 0.1942 -0.4822 -0.8543
vn 0.3240 -0.8045 -0.4978
vn 0.6931 -0.7208 -0.0000
vn 0.7973 -0.3395 0.4990
vn 0.4777 -0.2034 0.8546
vn 0.0562 -0.0239 0.9981
vn -0.3874 0.1649 0.9071
vn -0.7625 0.3246 0.5597
vn -0.6931 0.7208 0.0000
vn -0.7625 0.3246 -0.5597
vn -0.3874 0.1649 -0.9071
vn 0.0562 -0.0239 -0.9981
vn 0.4777 -0.2034 -0.8546
vn 0.7973 -0.3395 -0.4990
vn 0.9047 -0.0000 0.4260
vn 0.3332 0.3332 0.8820
vn 0.0652 0.0652 0.9957
vn -0.2085 -0.2085 0.9555
vn -0.8310 -0.0000 0.5563
vn -0.8310 0.0000 -0.5563
vn -0.2085 -0.2085 -0.9555
vn 0.0652 0.0652 -0.9957
vn 0.3332 0.3332 -0.8820
vn 0.9047 0.0000 -0.4260
vn 0.0000 1.0000 -0.0000
vn 0.0000 0.8660 0.5000
vn 0.0000 0.9047 0.4260
vn 0.0000 0.5000 0.8660
vn 0.0000 -0.5000 0.8660
vn 0.0000 -0.8660 0.5000
vn 0.0000 -0.8310 0.5563
vn 0.0000 -0.8660 -0.5000
vn 0.0000 -0.8310 -0.5563
vn 0.0000 -0.5000 -0.8660
vn 0.0000 0.5000 -0.8660
vn 0.0000 0.8660 -0.5000
vn 0.0000 0.9047 -0.4260
usemtl Material_#25.006
s 1
f 37//21 49//21 50//22 38//23
f 38//23 50//22 51//24 39//25
f 39//25 51//24 52//26 40//27
f 40//27 52//26 53//28 41//29
f 41//29 53//28 54//30 42//31
f 42//31 54//30 55//32 43//32
f 43//32 55//32 56//33 44//34
f 44//34 56//33 57//35 45//36
f 45//36 57//35 58//37 46//38
f 46//38 58//37 59//39 47//40
f 47//40 59//39 60//41 48//42
f 48//42 60//41 49//21 37//21
f 49//43 61//44 62//45 50//22
f 50//22 62//45 63//46 51//24
f 51//24 63//46 64//47 52//26
f 52//26 64//47 65//48 53//28
f 53//28 65//48 66//49 54//50
f 54//50 66//49 67//51 55//52
f 55//52 67//51 68//53 56//54
f 56//54 68//53 69//55 57//35
f 57//35 69//55 70//56 58//37
f 58//37 70//56 71//57 59//39
f 59//39 71//57 72//58 60//59
f 60//59 72//58 61//44 49//43
f 61//44 73//60 74//61 62//45
f 62//45 74//61 75//62 63//46
f 63//46 75//62 76//63 64//47
f 64//47 76//63 77//64 65//48
f 65//48 77//64 78//65 66//49
f 66//49 78//65 79//66 67//51
f 67//51 79//66 80//67 68//53
f 68//53 80//67 81//68 69//55
f 69//55 81//68 82//69 70//56
f 70//56 82//69 83//70 71//57
f 71//57 83//70 84//71 72//58
f 72//58 84//71 73//60 61//44
f 73//72 85//72 86//73 74//61
f 74//61 86//73 87//74 75//62
f 75//62 87//74 88//75 76//63
f 76//63 88//75 89//76 77//64
f 77//64 89//76 90//77 78//65
f 78//65 90//77 91//78 79//66
f 79//66 91//78 92//79 80//67
f 80//67 92//79 93//80 81//68
f 81//68 93//80 94//81 82//69
f 82//69 94//81 95//82 83//70
f 83//70 95//82 96//83 84//71
f 84//71 96//83 85//72 73//72
f 85//21 97//21 98//84 86//73
f 86//73 98//84 99//85 87//74
f 87//74 99//85 100//86 88//75
f 88//75 100//86 101//87 89//76
f 89//76 101//87 102//88 90//77
f 90//77 102//88 103//32 91//32
f 91//32 103//32 104//89 92//79
f 92//79 104//89 105//90 93//80
f 93//80 105//90 106//91 94//81
f 94//81 106//91 107//92 95//82
f 95//82 107//92 108//93 96//83
f 96//83 108//93 97//21 85//21
f 97//94 109//94 110//95 98//96
f 98//96 110//95 111//97 99//85
f 99//85 111//97 112//27 100//86
f 100//86 112//27 113//98 101//87
f 101//87 113//98 114//99 102//100
f 102//100 114//99 115//60 103//60
f 103//60 115//60 116//101 104//102
f 104//102 116//101 117//103 105//90
f 105//90 117//103 118//38 106//91
f 106//91 118//38 119//104 107//92
f 107//92 119//104 120//105 108//106
f 108//106 120//105 109//94 97//94
f 37//60 38//60 39//60 40//60 41//60 42//60 43//60 44//60 45//60 46//60 47//60 48//60
f 109//32 120//32 119//32 118//32 117//32 116//32 115//32 114//32 113//32 112//32 111//32 110//32
