# Blender v3.1.2 OBJ File: '8.blend'
# www.blender.org
mtllib d.mtl
o Cylinder008_网格.006
v 0.015622 -0.000238 -0.000287
v 0.014674 -0.000238 -0.005664
v 0.011943 -0.000238 -0.010393
v 0.007760 -0.000238 -0.013903
v 0.002629 -0.000238 -0.015771
v -0.002831 -0.000238 -0.015771
v -0.007963 -0.000238 -0.013903
v -0.012146 -0.000238 -0.010393
v -0.014876 -0.000238 -0.005664
v -0.015824 -0.000238 -0.000287
v -0.014876 -0.000238 0.005091
v -0.012146 -0.000238 0.009820
v -0.007963 -0.000238 0.013330
v -0.002831 -0.000238 0.015197
v 0.002629 -0.000238 0.015197
v 0.007760 -0.000238 0.013330
v 0.011943 -0.000238 0.009820
v 0.014674 -0.000238 0.005091
v 0.015622 0.004492 -0.000287
v 0.014674 0.004492 -0.005664
v 0.011943 0.004492 -0.010393
v 0.007760 0.004492 -0.013903
v 0.002629 0.004492 -0.015771
v -0.002831 0.004492 -0.015771
v -0.007963 0.004492 -0.013903
v -0.012146 0.004492 -0.010393
v -0.014876 0.004492 -0.005664
v -0.015824 0.004492 -0.000287
v -0.014876 0.004492 0.005091
v -0.012146 0.004492 0.009820
v -0.007963 0.004492 0.013330
v -0.002831 0.004492 0.015197
v 0.002629 0.004492 0.015197
v 0.007760 0.004492 0.013330
v 0.011943 0.004492 0.009820
v 0.014674 0.004492 0.005091
vt 0.861111 0.000000
vt 0.805556 0.000000
vt 0.750000 0.000000
vt 0.340035 0.000000
vt 0.195328 0.000000
vt 0.087369 0.000000
vt 0.029179 0.000000
vt 0.027778 0.000000
vt 0.083333 0.000000
vt 0.189144 0.000000
vt 0.332450 0.000000
vt 0.495964 0.000000
vt 0.659965 0.000000
vt 0.804672 0.000000
vt 0.912631 0.000000
vt 0.970820 0.000000
vt 0.972222 0.000000
vt 0.916667 0.000000
vt 0.805556 1.000000
vt 0.750000 1.000000
vt 0.861111 1.000000
vt 0.916667 1.000000
vt 0.972222 1.000000
vt 0.027778 1.000000
vt -0.027778 1.000000
vt -0.027778 0.000000
vt 0.027778 0.000000
vt 0.083333 1.000000
vt 0.083333 0.000000
vt 0.138889 1.000000
vt 0.138889 0.000000
vt 0.194444 1.000000
vt 0.194444 0.000000
vt 0.250000 1.000000
vt 0.250000 0.000000
vt 0.305556 1.000000
vt 0.305556 0.000000
vt 0.361111 1.000000
vt 0.361111 0.000000
vt 0.416667 1.000000
vt 0.416667 0.000000
vt 0.472222 1.000000
vt 0.472222 0.000000
vt 0.527778 1.000000
vt 0.527778 0.000000
vt 0.583333 1.000000
vt 0.583333 0.000000
vt 0.638889 1.000000
vt 0.638889 0.000000
vt 0.694444 1.000000
vt 0.694444 0.000000
vt 0.029179 1.000000
vt 0.087368 1.000000
vt 0.195327 1.000000
vt 0.970821 1.000000
vt 0.912631 1.000000
vt 0.804673 1.000000
vt 0.659966 1.000000
vt 0.495965 1.000000
vt 0.332450 1.000000
vt 0.189145 1.000000
vt 0.083333 1.000000
vt 0.027778 1.000000
vn -0.0000 -1.0000 0.0000
vn 0.9397 0.0000 -0.3420
vn 1.0000 0.0000 0.0000
vn 0.7660 0.0000 -0.6428
vn 0.5000 0.0000 -0.8660
vn 0.1736 0.0000 -0.9848
vn -0.1736 0.0000 -0.9848
vn -0.5000 0.0000 -0.8660
vn -0.7660 0.0000 -0.6428
vn -0.9397 0.0000 -0.3420
vn -1.0000 -0.0000 -0.0000
vn -0.9397 -0.0000 0.3420
vn -0.7660 0.0000 0.6428
vn -0.5000 0.0000 0.8660
vn -0.1736 0.0000 0.9848
vn 0.1736 0.0000 0.9848
vn 0.5000 0.0000 0.8660
vn 0.7660 0.0000 0.6428
vn 0.9397 0.0000 0.3420
vn 0.0000 1.0000 -0.0000
usemtl Material_#25.003
s 1
f 3/1/1 2/2/1 1/3/1
f 1/3/1 18/4/1 17/5/1
f 17/5/1 16/6/1 15/7/1
f 1/3/1 17/5/1 15/7/1
f 3/1/1 1/3/1 15/7/1
f 15/7/1 14/8/1 13/9/1
f 13/9/1 12/10/1 11/11/1
f 15/7/1 13/9/1 11/11/1
f 3/1/1 15/7/1 11/11/1
f 11/11/1 10/12/1 9/13/1
f 9/13/1 8/14/1 7/15/1
f 11/11/1 9/13/1 7/15/1
f 3/1/1 11/11/1 7/15/1
f 7/15/1 6/16/1 5/17/1
f 3/1/1 7/15/1 5/17/1
f 3/1/1 5/17/1 4/18/1
f 20/19/2 19/20/3 1/3/3
f 1/3/3 2/2/2 20/19/2
f 21/21/4 20/19/2 2/2/2
f 2/2/2 3/1/4 21/21/4
f 22/22/5 21/21/4 3/1/4
f 3/1/4 4/18/5 22/22/5
f 23/23/6 22/22/5 4/18/5
f 4/18/5 5/17/6 23/23/6
f 24/24/7 23/25/6 5/26/6
f 5/26/6 6/27/7 24/24/7
f 25/28/8 24/24/7 6/27/7
f 6/27/7 7/29/8 25/28/8
f 26/30/9 25/28/8 7/29/8
f 7/29/8 8/31/9 26/30/9
f 27/32/10 26/30/9 8/31/9
f 8/31/9 9/33/10 27/32/10
f 28/34/11 27/32/10 9/33/10
f 9/33/10 10/35/11 28/34/11
f 29/36/12 28/34/11 10/35/11
f 10/35/11 11/37/12 29/36/12
f 30/38/13 29/36/12 11/37/12
f 11/37/12 12/39/13 30/38/13
f 31/40/14 30/38/13 12/39/13
f 12/39/13 13/41/14 31/40/14
f 32/42/15 31/40/14 13/41/14
f 13/41/14 14/43/15 32/42/15
f 33/44/16 32/42/15 14/43/15
f 14/43/15 15/45/16 33/44/16
f 34/46/17 33/44/16 15/45/16
f 15/45/16 16/47/17 34/46/17
f 35/48/18 34/46/17 16/47/17
f 16/47/17 17/49/18 35/48/18
f 36/50/19 35/48/18 17/49/18
f 17/49/18 18/51/19 36/50/19
f 19/20/3 36/50/19 18/51/19
f 18/51/19 1/3/3 19/20/3
f 33/52/20 34/53/20 35/54/20
f 35/54/20 36/50/20 19/20/20
f 19/20/20 20/19/20 21/21/20
f 35/54/20 19/20/20 21/21/20
f 33/52/20 35/54/20 21/21/20
f 21/21/20 22/22/20 23/23/20
f 23/23/20 24/55/20 25/56/20
f 21/21/20 23/23/20 25/56/20
f 33/52/20 21/21/20 25/56/20
f 25/56/20 26/57/20 27/58/20
f 27/58/20 28/59/20 29/60/20
f 25/56/20 27/58/20 29/60/20
f 33/52/20 25/56/20 29/60/20
f 29/60/20 30/61/20 31/62/20
f 33/52/20 29/60/20 31/62/20
f 33/52/20 31/62/20 32/63/20
o Line013_网格.007
v 0.001382 0.004001 0.000375
v 0.001190 0.004001 0.001092
v 0.000665 0.004001 0.001616
v -0.000051 0.004001 0.001808
v -0.000768 0.004001 0.001616
v -0.001292 0.004001 0.001092
v -0.001484 0.004001 0.000375
v -0.001292 0.004001 -0.000341
v -0.000768 0.004001 -0.000866
v -0.000051 0.004001 -0.001058
v 0.000665 0.004001 -0.000866
v 0.001190 0.004001 -0.000341
v 0.001382 0.109673 0.000375
v 0.001190 0.109481 0.001092
v 0.000665 0.108957 0.001616
v -0.000051 0.108240 0.001808
v -0.000768 0.107524 0.001616
v -0.001292 0.106999 0.001092
v -0.001484 0.106807 0.000375
v -0.001292 0.106999 -0.000341
v -0.000768 0.107524 -0.000866
v -0.000051 0.108240 -0.001058
v 0.000665 0.108957 -0.000866
v 0.001190 0.109481 -0.000341
v -0.030212 0.109673 0.000375
v -0.030020 0.109481 0.001092
v -0.029495 0.108957 0.001616
v -0.028779 0.108240 0.001808
v -0.028062 0.107524 0.001616
v -0.027538 0.106999 0.001092
v -0.027346 0.106807 0.000375
v -0.027538 0.106999 -0.000341
v -0.028062 0.107524 -0.000866
v -0.028779 0.108240 -0.001058
v -0.029495 0.108957 -0.000866
v -0.030020 0.109481 -0.000341
v -0.030212 0.056049 0.000376
v -0.030020 0.055857 0.001092
v -0.029495 0.055332 0.001616
v -0.028779 0.054615 0.001808
v -0.028062 0.053899 0.001616
v -0.027538 0.053375 0.001092
v -0.027346 0.053183 0.000375
v -0.027538 0.053375 -0.000341
v -0.028062 0.053900 -0.000866
v -0.028779 0.054617 -0.001058
v -0.029495 0.055333 -0.000865
v -0.030020 0.055857 -0.000341
v -0.065649 0.056049 0.000376
v -0.065841 0.055857 0.001092
v -0.066366 0.055332 0.001616
v -0.067082 0.054616 0.001808
v -0.067799 0.053899 0.001616
v -0.068323 0.053375 0.001092
v -0.068515 0.053183 0.000375
v -0.068322 0.053375 -0.000341
v -0.067798 0.053900 -0.000866
v -0.067081 0.054616 -0.001058
v -0.066365 0.055333 -0.000865
v -0.065840 0.055857 -0.000341
v -0.065649 0.079448 0.000376
v -0.065841 0.079640 0.001092
v -0.066365 0.080165 0.001617
v -0.067082 0.080882 0.001808
v -0.067798 0.081598 0.001616
v -0.068323 0.082122 0.001092
v -0.068515 0.082314 0.000375
v -0.068323 0.082122 -0.000341
v -0.067798 0.081597 -0.000866
v -0.067082 0.080880 -0.001058
v -0.066365 0.080164 -0.000865
v -0.065841 0.079640 -0.000341
v -0.047383 0.079448 0.000376
v -0.047383 0.079640 0.001092
v -0.047383 0.080165 0.001617
v -0.047383 0.080881 0.001808
v -0.047383 0.081598 0.001616
v -0.047383 0.082122 0.001092
v -0.047383 0.082314 0.000375
v -0.047383 0.082122 -0.000341
v -0.047383 0.081597 -0.000866
v -0.047383 0.080881 -0.001058
v -0.047383 0.080164 -0.000865
v -0.047383 0.079640 -0.000341
vn 1.0000 0.0000 -0.0000
vn 0.9047 -0.0000 0.4260
vn 0.8660 -0.0000 0.5000
vn 0.3332 0.3332 0.8820
vn 0.5000 -0.0000 0.8660
vn 0.0652 0.0652 0.9957
vn 0.0000 -0.0000 1.0000
vn -0.2085 -0.2085 0.9555
vn -0.5000 -0.0000 0.8660
vn -0.8310 -0.0000 0.5563
vn -0.8660 -0.0000 0.5000
vn -1.0000 0.0000 0.0000
vn -0.8310 0.0000 -0.5563
vn -0.8660 0.0000 -0.5000
vn -0.2085 -0.2085 -0.9555
vn -0.5000 0.0000 -0.8660
vn 0.0652 0.0652 -0.9957
vn 0.0000 0.0000 -1.0000
vn 0.3332 0.3332 -0.8820
vn 0.5000 0.0000 -0.8660
vn 0.9047 0.0000 -0.4260
vn 0.8660 0.0000 -0.5000
vn 0.0000 1.0000 -0.0000
vn 0.0000 0.9047 0.4260
vn -0.3331 0.3332 0.8821
vn -0.0652 0.0652 0.9957
vn 0.2086 -0.2085 0.9555
vn 0.0000 -0.8310 0.5563
vn 0.0000 -1.0000 -0.0000
vn 0.0000 -0.8310 -0.5563
vn 0.2085 -0.2085 -0.9555
vn -0.0653 0.0652 -0.9957
vn -0.3332 0.3332 -0.8820
vn 0.0000 0.9047 -0.4260
vn -1.0000 -0.0000 0.0001
vn -0.8309 0.0000 0.5564
vn -0.9047 0.0000 0.4260
vn -0.2084 0.2084 0.9556
vn 0.0653 -0.0654 0.9957
vn 0.3332 -0.3333 0.8820
vn 0.8310 -0.0000 0.5563
vn 0.8309 0.0000 -0.5564
vn 0.3331 -0.3330 -0.8821
vn 0.0652 -0.0651 -0.9957
vn -0.2086 0.2086 -0.9555
vn -0.8310 -0.0000 -0.5562
vn -0.9048 -0.0000 -0.4259
vn -0.0000 1.0000 0.0002
vn 0.0000 1.0000 0.0003
vn 0.0000 0.8308 0.5566
vn 0.0000 0.8308 0.5565
vn 0.2084 0.2084 0.9556
vn -0.0654 -0.0654 0.9957
vn -0.3333 -0.3333 0.8819
vn -0.0000 -0.9048 0.4258
vn 0.0000 -1.0000 -0.0002
vn 0.0000 -0.9047 -0.4261
vn 0.0000 -0.9046 -0.4262
vn -0.3330 -0.3331 -0.8821
vn -0.0651 -0.0651 -0.9958
vn 0.2086 0.2087 -0.9555
vn -0.0000 0.8311 -0.5561
vn 1.0000 0.0000 0.0003
vn 0.8308 -0.0000 0.5566
vn 0.8308 -0.0000 0.5565
vn 0.2084 -0.2084 0.9556
vn -0.0654 0.0654 0.9957
vn -0.3333 0.3333 0.8819
vn -0.9048 0.0000 0.4258
vn -1.0000 0.0000 -0.0002
vn -0.9047 -0.0000 -0.4261
vn -0.9046 -0.0000 -0.4262
vn -0.3331 0.3330 -0.8821
vn -0.0651 0.0651 -0.9958
vn 0.2087 -0.2086 -0.9555
vn 0.8311 0.0000 -0.5561
vn -0.0000 -1.0000 0.0003
vn -0.0000 -1.0000 0.0004
vn -0.0000 -0.8659 0.5003
vn -0.0000 -0.8308 0.5566
vn -0.0000 -0.4998 0.8662
vn -0.0000 0.0002 1.0000
vn 0.0000 0.5002 0.8659
vn 0.0000 0.8662 0.4998
vn 0.0000 0.9049 0.4257
vn 0.0000 1.0000 -0.0003
vn -0.0000 0.8659 -0.5002
vn -0.0000 0.9046 -0.4263
vn -0.0000 0.4998 -0.8662
vn 0.0000 -0.0002 -1.0000
vn 0.0000 -0.5002 -0.8659
vn 0.0000 -0.8662 -0.4997
vn 0.0000 -0.8311 -0.5561
vn 1.0000 -0.0000 -0.0002
usemtl Material_#25.003
s 1
f 37//21 49//21 50//22 38//23
f 38//23 50//22 51//24 39//25
f 39//25 51//24 52//26 40//27
f 40//27 52//26 53//28 41//29
f 41//29 53//28 54//30 42//31
f 42//31 54//30 55//32 43//32
f 43//32 55//32 56//33 44//34
f 44//34 56//33 57//35 45//36
f 45//36 57//35 58//37 46//38
f 46//38 58//37 59//39 47//40
f 47//40 59//39 60//41 48//42
f 48//42 60//41 49//21 37//21
f 49//43 61//43 62//44 50//44
f 50//44 62//44 63//45 51//24
f 51//24 63//45 64//46 52//26
f 52//26 64//46 65//47 53//28
f 53//28 65//47 66//48 54//48
f 54//48 66//48 67//49 55//49
f 55//49 67//49 68//50 56//50
f 56//50 68//50 69//51 57//35
f 57//35 69//51 70//52 58//37
f 58//37 70//52 71//53 59//39
f 59//39 71//53 72//54 60//54
f 60//54 72//54 61//43 49//43
f 61//32 73//55 74//56 62//57
f 62//57 74//56 75//58 63//45
f 63//45 75//58 76//59 64//46
f 64//46 76//59 77//60 65//47
f 65//47 77//60 78//22 66//61
f 66//61 78//22 79//21 67//21
f 67//21 79//21 80//41 68//62
f 68//62 80//41 81//63 69//51
f 69//51 81//63 82//64 70//52
f 70//52 82//64 83//65 71//53
f 71//53 83//65 84//66 72//67
f 72//67 84//66 73//55 61//32
f 73//68 85//69 86//70 74//71
f 74//71 86//70 87//72 75//58
f 75//58 87//72 88//73 76//59
f 76//59 88//73 89//74 77//60
f 77//60 89//74 90//75 78//75
f 78//75 90//75 91//76 79//76
f 79//76 91//76 92//77 80//78
f 80//78 92//77 93//79 81//63
f 81//63 93//79 94//80 82//64
f 82//64 94//80 95//81 83//65
f 83//65 95//81 96//82 84//82
f 84//82 96//82 85//69 73//68
f 85//83 97//83 98//84 86//85
f 86//85 98//84 99//86 87//72
f 87//72 99//86 100//87 88//73
f 88//73 100//87 101//88 89//74
f 89//74 101//88 102//89 90//89
f 90//89 102//89 103//90 91//90
f 91//90 103//90 104//91 92//92
f 92//92 104//91 105//93 93//79
f 93//79 105//93 106//94 94//80
f 94//80 106//94 107//95 95//81
f 95//81 107//95 108//96 96//96
f 96//96 108//96 97//83 85//83
f 97//97 109//98 110//99 98//100
f 98//100 110//99 111//101 99//86
f 99//86 111//101 112//102 100//87
f 100//87 112//102 113//103 101//88
f 101//88 113//103 114//104 102//105
f 102//105 114//104 115//106 103//106
f 103//106 115//106 116//107 104//108
f 104//108 116//107 117//109 105//93
f 105//93 117//109 118//110 106//94
f 106//94 118//110 119//111 107//95
f 107//95 119//111 120//112 108//113
f 108//113 120//112 109//98 97//97
f 37//49 38//49 39//49 40//49 41//49 42//49 43//49 44//49 45//49 46//49 47//49 48//49
f 109//114 120//114 119//114 118//114 117//114 116//114 115//114 114//114 113//114 112//114 111//114 110//114
