# Exported using automatic converter by Erwin Coumans
mtllib table.mtl
#object top

v 0.189593 0.267974 0.673174
v 0.188778 0.268495 0.673174
v 0.188778 0.267974 0.675000
v 0.188778 -0.268505 0.662386
v -0.184307 -0.268505 0.673174
v -0.184307 -0.268505 0.662386
v -0.184307 0.268495 0.662386
v -0.185121 0.267974 0.673174
v -0.184307 0.268495 0.673174
v 0.188778 0.267974 0.660560
v 0.189593 -0.267985 0.662386
v 0.188778 -0.267985 0.660560
v -0.184307 -0.267985 0.660560
v -0.185121 0.267974 0.662386
v -0.184307 0.267974 0.660560
v -0.184307 -0.268505 0.662386
v -0.185121 -0.267985 0.673174
v -0.185121 -0.267985 0.662386
v 0.189593 0.267974 0.673174
v 0.189593 -0.267985 0.662386
v 0.189593 0.267974 0.662386
v -0.185121 0.267974 0.662386
v -0.184307 0.268495 0.662386
v -0.184307 0.267974 0.660560
v -0.185121 0.267974 0.673174
v -0.184307 0.267974 0.675000
v -0.184307 0.268495 0.673174
v -0.185121 -0.267985 0.662386
v -0.184307 -0.267985 0.660560
v -0.184307 -0.268505 0.662386
v 0.189593 -0.267985 0.662386
v 0.188778 -0.268505 0.662386
v 0.188778 -0.267985 0.660560
v 0.189593 0.267974 0.673174
v 0.188778 0.268495 0.662386
v 0.188778 0.268495 0.673174
v 0.189593 -0.267985 0.673174
v 0.188778 -0.267985 0.675000
v 0.188778 -0.268505 0.673174
v -0.185121 -0.267985 0.673174
v -0.184307 -0.268505 0.673174
v -0.184307 -0.267985 0.675000
v 0.189593 0.267974 0.662386
v 0.188778 0.267974 0.660560
v 0.188778 0.268495 0.662386
v 0.188778 -0.268505 0.673174
v 0.189593 -0.267985 0.662386
v 0.189593 -0.267985 0.673174
v 0.188778 -0.267985 0.675000
v -0.184307 -0.268505 0.673174
v 0.188778 -0.268505 0.673174
v -0.185121 -0.267985 0.662386
v -0.185121 0.267974 0.673174
v -0.185121 0.267974 0.662386
v 0.188778 0.268495 0.662386
v -0.184307 0.267974 0.660560
v -0.184307 0.268495 0.662386
v -0.185121 -0.267985 0.673174
v -0.184307 0.267974 0.675000
v -0.185121 0.267974 0.673174
v -0.184307 0.268495 0.662386
v 0.188778 0.268495 0.673174
v 0.188778 0.268495 0.662386
v 0.188778 -0.268505 0.662386
v -0.184307 -0.267985 0.660560
v 0.188778 -0.267985 0.660560
v 0.188778 0.267974 0.675000
v -0.184307 -0.267985 0.675000
v 0.188778 -0.267985 0.675000
v -0.184307 -0.267985 0.660560
v 0.188778 0.267974 0.660560
v 0.188778 -0.267985 0.660560
v 0.188778 0.267974 0.675000
v 0.189593 -0.267985 0.673174
v 0.189593 0.267974 0.673174
v 0.188778 0.268495 0.673174
v -0.184307 0.267974 0.675000
v 0.188778 0.267974 0.675000
v 0.188778 -0.268505 0.673174
v -0.185121 0.267974 0.662386
v 0.189593 0.267974 0.662386
v -0.185121 -0.267985 0.662386
v -0.184307 -0.268505 0.673174
v 0.189593 -0.267985 0.673174
v 0.189593 0.267974 0.662386
v 0.188778 -0.268505 0.662386
v -0.184307 -0.267985 0.675000
v -0.185121 -0.267985 0.673174
v 0.188778 0.267974 0.660560
v -0.184307 -0.267985 0.675000
v -0.184307 0.268495 0.673174
v -0.184307 -0.268505 0.662386
v -0.184307 0.267974 0.675000
v -0.184307 0.267974 0.660560
v 0.188778 -0.267985 0.675000
v -0.184307 0.268495 0.673174
usemtl top

vn 0.566600 0.786500 0.245900
vn 0.560800 0.786600 0.258500
vn 0.565300 0.786300 0.249300
vn 0.000000 -1.000000 0.000000
vn 0.000000 -1.000000 0.000000
vn 0.000000 -1.000000 0.000000
vn -0.590500 0.807000 0.000000
vn -0.590600 0.807000 -0.000000
vn -0.590400 0.807100 0.000000
vn 0.918300 0.000000 -0.395900
vn 0.918300 0.000000 -0.395900
vn 0.918300 0.000000 -0.395900
vn -0.918200 0.000000 -0.396200
vn -0.918200 -0.000000 -0.396100
vn -0.918300 0.000000 -0.396000
vn -0.590700 -0.806900 -0.000000
vn -0.590500 -0.807100 -0.000000
vn -0.590700 -0.806900 -0.000000
vn 1.000000 0.000000 0.000000
vn 1.000000 0.000000 0.000000
vn 1.000000 0.000000 0.000000
vn -0.566600 0.786400 -0.246000
vn -0.560700 0.786600 -0.258500
vn -0.565300 0.786300 -0.249500
vn -0.566600 0.786400 0.246000
vn -0.565300 0.786300 0.249400
vn -0.560700 0.786600 0.258600
vn -0.566600 -0.786500 -0.245900
vn -0.565200 -0.786300 -0.249500
vn -0.560700 -0.786600 -0.258600
vn 0.566600 -0.786500 -0.245800
vn 0.560700 -0.786600 -0.258600
vn 0.565300 -0.786300 -0.249300
vn 0.590500 0.807000 -0.000000
vn 0.590500 0.807000 -0.000000
vn 0.590500 0.807100 0.000000
vn 0.566600 -0.786500 0.245800
vn 0.565300 -0.786300 0.249400
vn 0.560800 -0.786500 0.258600
vn -0.566700 -0.786400 0.245900
vn -0.560700 -0.786600 0.258600
vn -0.565300 -0.786200 0.249500
vn 0.566500 0.786500 -0.245900
vn 0.565300 0.786300 -0.249300
vn 0.560800 0.786600 -0.258500
vn 0.590700 -0.806900 0.000000
vn 0.590500 -0.807100 0.000000
vn 0.590900 -0.806800 -0.000000
vn -0.000000 -0.946500 0.322600
vn -0.000000 -0.946500 0.322700
vn -0.000000 -0.946500 0.322700
vn -1.000000 0.000000 0.000000
vn -1.000000 0.000000 0.000000
vn -1.000000 0.000000 0.000000
vn 0.000000 0.946600 -0.322300
vn 0.000000 0.946600 -0.322300
vn 0.000000 0.946600 -0.322300
vn -0.918200 0.000000 0.396100
vn -0.918300 0.000000 0.396000
vn -0.918200 0.000000 0.396100
vn 0.000000 1.000000 0.000000
vn 0.000000 1.000000 0.000000
vn 0.000000 1.000000 0.000000
vn 0.000000 -0.946500 -0.322700
vn 0.000000 -0.946500 -0.322600
vn 0.000000 -0.946500 -0.322700
vn 0.000000 0.000000 1.000000
vn 0.000000 0.000000 1.000000
vn 0.000000 0.000000 1.000000
vn 0.000000 0.000000 -1.000000
vn 0.000000 0.000000 -1.000000
vn 0.000000 0.000000 -1.000000
vn 0.918300 0.000000 0.395900
vn 0.918300 0.000000 0.395900
vn 0.918300 0.000000 0.395900
vn 0.000000 0.946600 0.322400
vn 0.000000 0.946600 0.322300
vn 0.000000 0.946600 0.322400
vn 0.000000 -1.000000 0.000000
vn -0.590500 0.807000 0.000000
vn 0.918300 0.000000 -0.395900
vn -0.918200 -0.000000 -0.396100
vn -0.590500 -0.807100 -0.000000
vn 1.000000 0.000000 0.000000
vn 0.590500 0.807000 -0.000100
vn 0.590400 -0.807100 0.000000
vn -0.000000 -0.946500 0.322700
vn -1.000000 0.000000 0.000000
vn 0.000000 0.946600 -0.322300
vn -0.918200 0.000000 0.396100
vn 0.000000 1.000000 0.000000
vn 0.000000 -0.946500 -0.322600
vn 0.000000 0.000000 1.000000
vn 0.000000 0.000000 -1.000000
vn 0.918300 0.000000 0.395900
vn 0.000000 0.946600 0.322300

vt 134.010101 0.898100
vt 0.130000 0.898100
vt 59.630600 134.010101
vt 59.630600 0.130000
vt 0.130000 0.898100
vt 0.130000 0.130000
vt 59.630600 0.130000
vt 0.130000 0.898100
vt 59.630600 0.898100
vt -58.630600 134.010101
vt 0.130000 0.130000
vt -58.630600 0.130000
vt 0.870000 0.130000
vt 0.130000 0.130000
vt 0.870000 134.010101
vt 0.130000 0.130000
vt 134.010101 0.898100
vt 134.010101 0.130000
vt 134.010101 0.898100
vt 0.130000 0.130000
vt 134.010101 0.130000
vt 0.130000 0.130000
vt 59.630600 0.130000
vt 0.870000 134.010101
vt 0.130000 0.898100
vt 0.130000 134.010101
vt 59.630600 0.898100
vt 134.010101 0.130000
vt 0.870000 0.130000
vt 0.130000 0.130000
vt 0.130000 0.130000
vt 59.630600 0.130000
vt -58.630600 0.130000
vt 134.010101 0.898100
vt 0.130000 0.130000
vt 0.130000 0.898100
vt 0.130000 0.898100
vt 59.630600 0.130000
vt 59.630600 0.898100
vt 134.010101 0.898100
vt 0.130000 0.898100
vt 0.130000 0.130000
vt 134.010101 0.130000
vt -58.630600 134.010101
vt 0.130000 0.130000
vt 59.630600 0.898100
vt 0.130000 0.130000
vt 0.130000 0.898100
vt 59.630600 0.130000
vt 0.130000 0.898100
vt 59.630600 0.898100
vt 134.010101 0.130000
vt 0.130000 0.898100
vt 0.130000 0.130000
vt 0.130000 0.130000
vt 0.870000 134.010101
vt 59.630600 0.130000
vt 134.010101 0.898100
vt 0.130000 134.010101
vt 0.130000 0.898100
vt 59.630600 0.130000
vt 0.130000 0.898100
vt 0.130000 0.130000
vt 59.630600 0.130000
vt 0.870000 0.130000
vt -58.630600 0.130000
vt 59.630600 134.010101
vt 0.130000 0.130000
vt 59.630600 0.130000
vt 0.870000 0.130000
vt -58.630600 134.010101
vt -58.630600 0.130000
vt 59.630600 134.010101
vt 0.130000 0.898100
vt 134.010101 0.898100
vt 0.130000 0.898100
vt 0.130000 134.010101
vt 59.630600 134.010101
vt 59.630600 0.898100
vt 0.130000 0.130000
vt 134.010101 0.130000
vt 134.010101 0.130000
vt 0.130000 0.898100
vt 0.130000 0.898100
vt 134.010101 0.130000
vt 59.630600 0.130000
vt 0.130000 0.130000
vt 134.010101 0.898100
vt -58.630600 134.010101
vt 0.130000 0.130000
vt 59.630600 0.898100
vt 0.130000 0.130000
vt 0.130000 134.010101
vt 0.870000 134.010101
vt 59.630600 0.130000
vt 59.630600 0.898100
s off
f 1/1/1 2/2/2 3/3/3
f 4/4/4 5/5/5 6/6/6
f 7/7/7 8/8/8 9/9/9
f 10/10/10 11/11/11 12/12/12
f 13/13/13 14/14/14 15/15/15
f 16/16/16 17/17/17 18/18/18
f 19/19/19 20/20/20 21/21/21
f 22/22/22 23/23/23 24/24/24
f 25/25/25 26/26/26 27/27/27
f 28/28/28 29/29/29 30/30/30
f 31/31/31 32/32/32 33/33/33
f 34/34/34 35/35/35 36/36/36
f 37/37/37 38/38/38 39/39/39
f 40/40/40 41/41/41 42/42/42
f 43/43/43 44/44/44 45/45/45
f 46/46/46 47/47/47 48/48/48
f 49/49/49 50/50/50 51/51/51
f 52/52/52 53/53/53 54/54/54
f 55/55/55 56/56/56 57/57/57
f 58/58/58 59/59/59 60/60/60
f 61/61/61 62/62/62 63/63/63
f 64/64/64 65/65/65 66/66/66
f 67/67/67 68/68/68 69/69/69
f 70/70/70 71/71/71 72/72/72
f 73/73/73 74/74/74 75/75/75
f 76/76/76 77/77/77 78/78/78
f 4/4/4 79/79/79 5/5/5
f 7/7/7 80/80/80 8/8/8
f 10/10/10 81/81/81 11/11/11
f 13/13/13 82/82/82 14/14/14
f 16/16/16 83/83/83 17/17/17
f 19/19/19 84/84/84 20/20/20
f 34/34/34 85/85/85 35/35/35
f 46/46/46 86/86/86 47/47/47
f 49/49/49 87/87/87 50/50/50
f 52/52/52 88/88/88 53/53/53
f 55/55/55 89/89/89 56/56/56
f 58/58/58 90/90/90 59/59/59
f 61/61/61 91/91/91 62/62/62
f 64/64/64 92/92/92 65/65/65
f 67/67/67 93/93/93 68/68/68
f 70/70/70 94/94/94 71/71/71
f 73/73/73 95/95/95 74/74/74
f 76/76/76 96/96/96 77/77/77
