# Blender v3.1.2 OBJ File: '16.blend'
# www.blender.org
mtllib r.mtl
o Cylinder016_网格.022
v 0.016170 -0.000238 -0.000287
v 0.015222 -0.000238 -0.005664
v 0.012492 -0.000238 -0.010393
v 0.008309 -0.000238 -0.013903
v 0.003178 -0.000238 -0.015771
v -0.002283 -0.000238 -0.015771
v -0.007414 -0.000238 -0.013903
v -0.011597 -0.000238 -0.010393
v -0.014327 -0.000238 -0.005664
v -0.015276 -0.000238 -0.000287
v -0.014327 -0.000238 0.005091
v -0.011597 -0.000238 0.009820
v -0.007414 -0.000238 0.013330
v -0.002283 -0.000238 0.015197
v 0.003178 -0.000238 0.015197
v 0.008309 -0.000238 0.013330
v 0.012492 -0.000238 0.009820
v 0.015222 -0.000238 0.005091
v 0.016170 0.004492 -0.000287
v 0.015222 0.004492 -0.005664
v 0.012492 0.004492 -0.010393
v 0.008309 0.004492 -0.013903
v 0.003178 0.004492 -0.015771
v -0.002283 0.004492 -0.015771
v -0.007414 0.004492 -0.013903
v -0.011597 0.004492 -0.010393
v -0.014327 0.004492 -0.005664
v -0.015276 0.004492 -0.000287
v -0.014327 0.004492 0.005091
v -0.011597 0.004492 0.009820
v -0.007414 0.004492 0.013330
v -0.002283 0.004492 0.015197
v 0.003178 0.004492 0.015197
v 0.008309 0.004492 0.013330
v 0.012492 0.004492 0.009820
v 0.015222 0.004492 0.005091
vt 0.861111 0.000000
vt 0.805556 0.000000
vt 0.750000 0.000000
vt 0.340035 0.000000
vt 0.195328 0.000000
vt 0.087369 0.000000
vt 0.029179 0.000000
vt 0.027778 0.000000
vt 0.083333 0.000000
vt 0.189144 0.000000
vt 0.332450 0.000000
vt 0.495964 0.000000
vt 0.659965 0.000000
vt 0.804672 0.000000
vt 0.912631 0.000000
vt 0.970820 0.000000
vt 0.972222 0.000000
vt 0.916667 0.000000
vt 0.805556 1.000000
vt 0.750000 1.000000
vt 0.861111 1.000000
vt 0.916667 1.000000
vt 0.972222 1.000000
vt 0.027778 1.000000
vt -0.027778 1.000000
vt -0.027778 0.000000
vt 0.027778 0.000000
vt 0.083333 1.000000
vt 0.083333 0.000000
vt 0.138889 1.000000
vt 0.138889 0.000000
vt 0.194444 1.000000
vt 0.194444 0.000000
vt 0.250000 1.000000
vt 0.250000 0.000000
vt 0.305556 1.000000
vt 0.305556 0.000000
vt 0.361111 1.000000
vt 0.361111 0.000000
vt 0.416667 1.000000
vt 0.416667 0.000000
vt 0.472222 1.000000
vt 0.472222 0.000000
vt 0.527778 1.000000
vt 0.527778 0.000000
vt 0.583333 1.000000
vt 0.583333 0.000000
vt 0.638889 1.000000
vt 0.638889 0.000000
vt 0.694444 1.000000
vt 0.694444 0.000000
vt 0.029179 1.000000
vt 0.087368 1.000000
vt 0.195327 1.000000
vt 0.970821 1.000000
vt 0.912631 1.000000
vt 0.804673 1.000000
vt 0.659966 1.000000
vt 0.495965 1.000000
vt 0.332450 1.000000
vt 0.189145 1.000000
vt 0.083333 1.000000
vt 0.027778 1.000000
vn -0.0000 -1.0000 0.0000
vn 0.9397 0.0000 -0.3420
vn 1.0000 0.0000 0.0000
vn 0.7660 0.0000 -0.6428
vn 0.5000 0.0000 -0.8660
vn 0.1736 0.0000 -0.9848
vn -0.1736 0.0000 -0.9848
vn -0.5000 0.0000 -0.8660
vn -0.7660 0.0000 -0.6428
vn -0.9397 0.0000 -0.3420
vn -1.0000 -0.0000 -0.0000
vn -0.9397 -0.0000 0.3420
vn -0.7660 0.0000 0.6428
vn -0.5000 0.0000 0.8660
vn -0.1736 0.0000 0.9848
vn 0.1736 0.0000 0.9848
vn 0.5000 0.0000 0.8660
vn 0.7660 0.0000 0.6428
vn 0.9397 0.0000 0.3420
vn 0.0000 1.0000 -0.0000
usemtl Material_#25.011
s 1
f 3/1/1 2/2/1 1/3/1
f 1/3/1 18/4/1 17/5/1
f 17/5/1 16/6/1 15/7/1
f 1/3/1 17/5/1 15/7/1
f 3/1/1 1/3/1 15/7/1
f 15/7/1 14/8/1 13/9/1
f 13/9/1 12/10/1 11/11/1
f 15/7/1 13/9/1 11/11/1
f 3/1/1 15/7/1 11/11/1
f 11/11/1 10/12/1 9/13/1
f 9/13/1 8/14/1 7/15/1
f 11/11/1 9/13/1 7/15/1
f 3/1/1 11/11/1 7/15/1
f 7/15/1 6/16/1 5/17/1
f 3/1/1 7/15/1 5/17/1
f 3/1/1 5/17/1 4/18/1
f 20/19/2 19/20/3 1/3/3
f 1/3/3 2/2/2 20/19/2
f 21/21/4 20/19/2 2/2/2
f 2/2/2 3/1/4 21/21/4
f 22/22/5 21/21/4 3/1/4
f 3/1/4 4/18/5 22/22/5
f 23/23/6 22/22/5 4/18/5
f 4/18/5 5/17/6 23/23/6
f 24/24/7 23/25/6 5/26/6
f 5/26/6 6/27/7 24/24/7
f 25/28/8 24/24/7 6/27/7
f 6/27/7 7/29/8 25/28/8
f 26/30/9 25/28/8 7/29/8
f 7/29/8 8/31/9 26/30/9
f 27/32/10 26/30/9 8/31/9
f 8/31/9 9/33/10 27/32/10
f 28/34/11 27/32/10 9/33/10
f 9/33/10 10/35/11 28/34/11
f 29/36/12 28/34/11 10/35/11
f 10/35/11 11/37/12 29/36/12
f 30/38/13 29/36/12 11/37/12
f 11/37/12 12/39/13 30/38/13
f 31/40/14 30/38/13 12/39/13
f 12/39/13 13/41/14 31/40/14
f 32/42/15 31/40/14 13/41/14
f 13/41/14 14/43/15 32/42/15
f 33/44/16 32/42/15 14/43/15
f 14/43/15 15/45/16 33/44/16
f 34/46/17 33/44/16 15/45/16
f 15/45/16 16/47/17 34/46/17
f 35/48/18 34/46/17 16/47/17
f 16/47/17 17/49/18 35/48/18
f 36/50/19 35/48/18 17/49/18
f 17/49/18 18/51/19 36/50/19
f 19/20/3 36/50/19 18/51/19
f 18/51/19 1/3/3 19/20/3
f 33/52/20 34/53/20 35/54/20
f 35/54/20 36/50/20 19/20/20
f 19/20/20 20/19/20 21/21/20
f 35/54/20 19/20/20 21/21/20
f 33/52/20 35/54/20 21/21/20
f 21/21/20 22/22/20 23/23/20
f 23/23/20 24/55/20 25/56/20
f 21/21/20 23/23/20 25/56/20
f 33/52/20 21/21/20 25/56/20
f 25/56/20 26/57/20 27/58/20
f 27/58/20 28/59/20 29/60/20
f 25/56/20 27/58/20 29/60/20
f 33/52/20 25/56/20 29/60/20
f 29/60/20 30/61/20 31/62/20
f 33/52/20 29/60/20 31/62/20
f 33/52/20 31/62/20 32/63/20
o Line029_网格.023
v 0.003444 0.003857 0.000375
v 0.003252 0.003857 0.001092
v 0.002727 0.003857 0.001616
v 0.002011 0.003857 0.001808
v 0.001294 0.003857 0.001616
v 0.000770 0.003857 0.001092
v 0.000578 0.003857 0.000375
v 0.000770 0.003857 -0.000341
v 0.001294 0.003857 -0.000866
v 0.002011 0.003857 -0.001058
v 0.002727 0.003857 -0.000866
v 0.003252 0.003857 -0.000341
v 0.003444 0.037999 0.000375
v 0.003252 0.037933 0.001092
v 0.002727 0.037754 0.001616
v 0.002011 0.037509 0.001808
v 0.001294 0.037264 0.001616
v 0.000770 0.037084 0.001092
v 0.000578 0.037018 0.000375
v 0.000770 0.037084 -0.000341
v 0.001294 0.037264 -0.000866
v 0.002011 0.037509 -0.001058
v 0.002727 0.037754 -0.000866
v 0.003252 0.037933 -0.000341
v -0.019824 0.070434 0.000375
v -0.020057 0.070421 0.001092
v -0.020694 0.070387 0.001616
v -0.021564 0.070340 0.001808
v -0.022434 0.070293 0.001616
v -0.023071 0.070259 0.001092
v -0.023304 0.070246 0.000375
v -0.023071 0.070259 -0.000341
v -0.022434 0.070293 -0.000866
v -0.021564 0.070340 -0.001058
v -0.020694 0.070387 -0.000866
v -0.020057 0.070421 -0.000341
v 0.004769 0.113633 0.000375
v 0.004440 0.113441 0.001092
v 0.003541 0.112916 0.001616
v 0.002313 0.112200 0.001808
v 0.001085 0.111483 0.001616
v 0.000186 0.110959 0.001092
v -0.000143 0.110767 0.000375
v 0.000186 0.110959 -0.000341
v 0.001085 0.111483 -0.000866
v 0.002313 0.112200 -0.001058
v 0.003541 0.112916 -0.000866
v 0.004440 0.113441 -0.000341
v -0.048971 0.113633 0.000375
v -0.048779 0.113441 0.001092
v -0.048255 0.112916 0.001616
v -0.047538 0.112200 0.001808
v -0.046822 0.111483 0.001616
v -0.046297 0.110959 0.001092
v -0.046105 0.110767 0.000375
v -0.046297 0.110959 -0.000341
v -0.046822 0.111483 -0.000866
v -0.047538 0.112200 -0.001058
v -0.048255 0.112916 -0.000866
v -0.048779 0.113441 -0.000341
v -0.048971 0.037235 0.000375
v -0.048779 0.037235 0.001092
v -0.048255 0.037235 0.001616
v -0.047538 0.037235 0.001808
v -0.046822 0.037235 0.001616
v -0.046297 0.037235 0.001092
v -0.046105 0.037235 0.000375
v -0.046297 0.037235 -0.000341
v -0.046822 0.037235 -0.000866
v -0.047538 0.037235 -0.001058
v -0.048255 0.037235 -0.000866
v -0.048779 0.037235 -0.000341
vn 1.0000 0.0000 0.0000
vn 0.9517 0.3070 -0.0000
vn 0.8260 0.2656 0.4972
vn 0.8660 -0.0000 0.5000
vn 0.4930 0.1571 0.8557
vn 0.5000 -0.0000 0.8660
vn 0.0465 0.0138 0.9988
vn 0.0000 -0.0000 1.0000
vn -0.4200 -0.1348 0.8974
vn -0.5000 -0.0000 0.8660
vn -0.7994 -0.2563 0.5434
vn -0.8660 0.0000 0.5000
vn -0.9522 -0.3055 -0.0000
vn -1.0000 0.0000 -0.0000
vn -0.7994 -0.2563 -0.5434
vn -0.8660 0.0000 -0.5000
vn -0.4200 -0.1348 -0.8974
vn -0.5000 0.0000 -0.8660
vn 0.0465 0.0138 -0.9988
vn 0.0000 0.0000 -1.0000
vn 0.4930 0.1571 -0.8557
vn 0.5000 0.0000 -0.8660
vn 0.8260 0.2656 -0.4972
vn 0.8660 0.0000 -0.5000
vn 0.8125 0.5829 -0.0000
vn 0.6806 0.4883 0.5462
vn 0.3667 0.0185 0.9301
vn -0.0784 -0.0037 0.9969
vn -0.5029 -0.0251 0.8640
vn -0.7224 -0.5191 0.4568
vn -0.8120 -0.5836 -0.0000
vn -0.7224 -0.5191 -0.4568
vn -0.5029 -0.0251 -0.8640
vn -0.0784 -0.0037 -0.9969
vn 0.3667 0.0185 -0.9301
vn 0.6806 0.4883 -0.5462
vn 0.8690 -0.4948 -0.0000
vn 0.8015 -0.4564 0.3864
vn 0.7296 -0.4155 0.5431
vn 0.3311 0.1940 0.9234
vn 0.0755 0.0442 0.9962
vn -0.1638 -0.0963 0.9818
vn -0.7051 0.4029 0.5835
vn -0.7741 0.4423 0.4530
vn -0.8682 0.4962 0.0000
vn -0.7051 0.4029 -0.5835
vn -0.7741 0.4423 -0.4530
vn -0.1638 -0.0963 -0.9818
vn 0.0755 0.0442 -0.9962
vn 0.3311 0.1940 -0.9234
vn 0.8015 -0.4564 -0.3864
vn 0.7296 -0.4155 -0.5431
vn 0.0000 1.0000 -0.0000
vn 0.0000 0.9047 0.4260
vn 0.0000 0.9232 0.3843
vn -0.3332 0.3332 0.8820
vn -0.0652 0.0652 0.9957
vn 0.2085 -0.2085 0.9555
vn 0.0000 -0.8310 0.5563
vn 0.0000 -0.8140 0.5809
vn 0.0000 -1.0000 -0.0000
vn 0.0000 -0.8310 -0.5563
vn 0.0000 -0.8140 -0.5809
vn 0.2085 -0.2085 -0.9555
vn -0.0652 0.0652 -0.9957
vn -0.3332 0.3332 -0.8820
vn 0.0000 0.9047 -0.4260
vn 0.0000 0.9232 -0.3843
vn -0.9047 -0.0000 0.4260
vn 0.8310 -0.0000 0.5563
vn 0.8310 0.0000 -0.5563
vn -0.9047 0.0000 -0.4260
usemtl Material_#25.011
s 1
f 37//21 49//22 50//23 38//24
f 38//24 50//23 51//25 39//26
f 39//26 51//25 52//27 40//28
f 40//28 52//27 53//29 41//30
f 41//30 53//29 54//31 42//32
f 42//32 54//31 55//33 43//34
f 43//34 55//33 56//35 44//36
f 44//36 56//35 57//37 45//38
f 45//38 57//37 58//39 46//40
f 46//40 58//39 59//41 47//42
f 47//42 59//41 60//43 48//44
f 48//44 60//43 49//22 37//21
f 49//22 61//45 62//46 50//23
f 50//23 62//46 63//47 51//25
f 51//25 63//47 64//48 52//27
f 52//27 64//48 65//49 53//29
f 53//29 65//49 66//50 54//31
f 54//31 66//50 67//51 55//33
f 55//33 67//51 68//52 56//35
f 56//35 68//52 69//53 57//37
f 57//37 69//53 70//54 58//39
f 58//39 70//54 71//55 59//41
f 59//41 71//55 72//56 60//43
f 60//43 72//56 61//45 49//22
f 61//57 73//57 74//58 62//59
f 62//59 74//58 75//60 63//47
f 63//47 75//60 76//61 64//48
f 64//48 76//61 77//62 65//49
f 65//49 77//62 78//63 66//64
f 66//64 78//63 79//65 67//65
f 67//65 79//65 80//66 68//67
f 68//67 80//66 81//68 69//53
f 69//53 81//68 82//69 70//54
f 70//54 82//69 83//70 71//55
f 71//55 83//70 84//71 72//72
f 72//72 84//71 73//57 61//57
f 73//73 85//73 86//74 74//75
f 74//75 86//74 87//76 75//60
f 75//60 87//76 88//77 76//61
f 76//61 88//77 89//78 77//62
f 77//62 89//78 90//79 78//80
f 78//80 90//79 91//81 79//81
f 79//81 91//81 92//82 80//83
f 80//83 92//82 93//84 81//68
f 81//68 93//84 94//85 82//69
f 82//69 94//85 95//86 83//70
f 83//70 95//86 96//87 84//88
f 84//88 96//87 85//73 73//73
f 85//34 97//34 98//32 86//89
f 86//89 98//32 99//30 87//76
f 87//76 99//30 100//28 88//77
f 88//77 100//28 101//26 89//78
f 89//78 101//26 102//24 90//90
f 90//90 102//24 103//21 91//21
f 91//21 103//21 104//44 92//91
f 92//91 104//44 105//42 93//84
f 93//84 105//42 106//40 94//85
f 94//85 106//40 107//38 95//86
f 95//86 107//38 108//36 96//92
f 96//92 108//36 97//34 85//34
f 37//81 38//81 39//81 40//81 41//81 42//81 43//81 44//81 45//81 46//81 47//81 48//81
f 97//81 108//81 107//81 106//81 105//81 104//81 103//81 102//81 101//81 100//81 99//81 98//81
