# Blender v3.1.2 OBJ File: 'matchboard_all.blend'
# www.blender.org
mtllib board1.mtl
o board1
v -2.000000 -0.300000 2.000000
v -2.000000 0.300000 2.000000
v -2.000000 0.300000 -2.000000
v -2.000000 -0.300000 -2.000000
v 2.000000 0.300000 -2.000000
v 2.000000 -0.300000 -2.000000
v 2.000000 0.300000 2.000000
v 2.000000 -0.300000 2.000000
v -1.564000 0.300000 0.396000
v 1.564000 0.300000 0.396000
v 1.564000 0.300000 -0.396000
v -1.564000 0.300000 -0.396000
v 1.564000 -0.020000 0.396000
v -1.564000 -0.020000 -0.396000
v -1.564000 -0.020000 0.396000
v 1.564000 -0.020000 -0.396000
vn -1.0000 0.0000 0.0000
vn 0.0000 0.0000 -1.0000
vn 1.0000 0.0000 0.0000
vn 0.0000 0.0000 1.0000
vn 0.0000 -1.0000 0.0000
vn 0.0000 1.0000 0.0000
usemtl None
s off
f 1//1 2//1 3//1
f 1//1 3//1 4//1
f 4//2 3//2 5//2
f 4//2 5//2 6//2
f 6//3 5//3 7//3
f 6//3 7//3 8//3
f 8//4 7//4 2//4
f 8//4 2//4 1//4
f 4//5 6//5 8//5
f 4//5 8//5 1//5
f 9//6 2//6 7//6
f 9//6 7//6 10//6
f 11//6 10//6 7//6
f 3//6 2//6 9//6
f 3//6 9//6 12//6
f 11//6 7//6 5//6
f 3//6 12//6 11//6
f 5//6 3//6 11//6
f 13//6 14//6 15//6
f 13//6 16//6 14//6
f 13//2 15//2 9//2
f 13//2 9//2 10//2
f 9//3 15//3 14//3
f 9//3 14//3 12//3
f 12//4 14//4 16//4
f 12//4 16//4 11//4
f 16//1 13//1 10//1
f 16//1 10//1 11//1
