# Blender v3.1.2 OBJ File: 'matchboard_all.blend'
# www.blender.org
mtllib boardb.mtl
o boardb
v -2.000000 -0.300000 2.000000
v -2.000000 0.300000 2.000000
v -2.000000 0.300000 -2.000000
v -2.000000 -0.300000 -2.000000
v 2.000000 0.300000 -2.000000
v 2.000000 -0.300000 -2.000000
v 2.000000 0.300000 2.000000
v 2.000000 -0.300000 2.000000
v -1.364000 0.300000 0.936000
v 1.364000 0.300000 0.936000
v -0.777437 0.300000 -0.268250
v -0.821185 0.300000 -0.248593
v -0.861711 0.300000 -0.222324
v -0.898500 0.300000 -0.189000
v -0.931039 0.300000 -0.148176
v -0.958815 0.300000 -0.099407
v -0.981313 0.300000 -0.042250
v -0.998019 0.300000 0.023741
v -1.008419 0.300000 0.099009
v -1.012000 0.300000 0.184000
v -1.012000 0.300000 0.544000
v -0.196000 0.300000 0.544000
v -0.196000 0.300000 0.284000
v -0.199002 0.300000 0.191160
v -0.208018 0.300000 0.106611
v -0.223062 0.300000 0.030313
v -0.244148 0.300000 -0.037778
v -0.271289 0.300000 -0.097701
v -0.304500 0.300000 -0.149500
v -0.343794 0.300000 -0.193215
v -0.389185 0.300000 -0.228889
v -0.440687 0.300000 -0.256563
v -0.498315 0.300000 -0.276278
v -0.562081 0.300000 -0.288076
v -0.632000 0.300000 -0.292000
v -0.682331 0.300000 -0.289509
v -0.730981 0.300000 -0.281741
v -0.114435 0.300000 -0.347845
v -0.084000 0.300000 -0.280000
v -0.076000 0.300000 -0.280000
v -0.053053 0.300000 -0.378616
v -0.147815 0.300000 -0.409426
v -0.022426 0.300000 -0.470259
v -0.184250 0.300000 -0.464812
v 0.015563 0.300000 -0.554625
v -0.223852 0.300000 -0.514074
v 0.060593 0.300000 -0.631408
v -0.266731 0.300000 -0.557280
v 0.112345 0.300000 -0.700301
v -0.313000 0.300000 -0.594500
v 0.170500 0.300000 -0.761000
v -0.362768 0.300000 -0.625803
v 0.234738 0.300000 -0.813199
v -0.416148 0.300000 -0.651259
v 0.304741 0.300000 -0.856593
v -0.473250 0.300000 -0.670938
v 0.380188 0.300000 -0.890875
v -0.534185 0.300000 -0.684907
v 0.460759 0.300000 -0.915741
v -0.599065 0.300000 -0.693238
v -0.668000 0.300000 -0.696000
v -0.753958 0.300000 -0.690701
v -1.364000 0.300000 0.144000
v 1.364000 0.300000 0.000000
v -1.356875 0.300000 0.003951
v 1.356093 0.300000 -0.162104
v 1.333408 0.300000 -0.306833
v -1.336333 0.300000 -0.122389
v -1.303625 0.300000 -0.235312
v 1.297500 0.300000 -0.434812
v 1.249926 0.300000 -0.546667
v -1.260000 0.300000 -0.335111
v -1.206708 0.300000 -0.422076
v 1.192241 0.300000 -0.643021
v 1.126000 0.300000 -0.724500
v -1.145000 0.300000 -0.496500
v -1.076125 0.300000 -0.558674
v 1.052759 0.300000 -0.791729
v 0.974074 0.300000 -0.845333
v -1.001333 0.300000 -0.608889
v -0.921875 0.300000 -0.647437
v 0.891500 0.300000 -0.885938
v 0.806593 0.300000 -0.914167
v -0.839000 0.300000 -0.674611
v 0.720908 0.300000 -0.930646
v 0.636000 0.300000 -0.936000
v 0.546137 0.300000 -0.930884
v 0.210815 0.300000 -0.267704
v 0.187375 0.300000 -0.196188
v 0.170185 0.300000 -0.115796
v 0.159607 0.300000 -0.026433
v 0.156000 0.300000 0.072000
v 0.156000 0.300000 0.544000
v 1.012000 0.300000 0.544000
v 1.012000 0.300000 0.052000
v 1.007396 0.300000 -0.056123
v 0.994167 0.300000 -0.150981
v 0.973188 0.300000 -0.233312
v 0.945333 0.300000 -0.303852
v 0.911479 0.300000 -0.363336
v 0.872500 0.300000 -0.412500
v 0.829271 0.300000 -0.452081
v 0.782667 0.300000 -0.482815
v 0.733563 0.300000 -0.505438
v 0.682833 0.300000 -0.520685
v 0.631354 0.300000 -0.529294
v 0.580000 0.300000 -0.532000
v 0.519560 0.300000 -0.527984
v 0.462482 0.300000 -0.515871
v 0.409125 0.300000 -0.495563
v 0.359852 0.300000 -0.466963
v 0.315023 0.300000 -0.429975
v 0.275000 0.300000 -0.384500
v 0.240144 0.300000 -0.330442
v 1.364000 -0.020000 0.936000
v -1.012000 -0.020000 0.544000
v -1.364000 -0.020000 0.936000
v -1.364000 -0.020000 0.144000
v -1.356875 -0.020000 0.003951
v -1.336333 -0.020000 -0.122389
v -1.303625 -0.020000 -0.235312
v -1.260000 -0.020000 -0.335111
v -1.206708 -0.020000 -0.422076
v -1.145000 -0.020000 -0.496500
v -1.076125 -0.020000 -0.558674
v -1.012000 -0.020000 0.184000
v -1.001333 -0.020000 -0.608889
v -0.196000 -0.020000 0.544000
v -1.008419 -0.020000 0.099009
v -0.998019 -0.020000 0.023741
v -0.921875 -0.020000 -0.647437
v -0.981313 -0.020000 -0.042250
v -0.958815 -0.020000 -0.099407
v -0.931039 -0.020000 -0.148176
v -0.898500 -0.020000 -0.189000
v -0.839000 -0.020000 -0.674611
v -0.861711 -0.020000 -0.222324
v -0.821185 -0.020000 -0.248593
v -0.753958 -0.020000 -0.690701
v -0.777437 -0.020000 -0.268250
v -0.730981 -0.020000 -0.281741
v -0.668000 -0.020000 -0.696000
v -0.682331 -0.020000 -0.289509
v -0.632000 -0.020000 -0.292000
v -0.599065 -0.020000 -0.693238
v -0.562081 -0.020000 -0.288076
v -0.534185 -0.020000 -0.684907
v -0.498315 -0.020000 -0.276278
v -0.473250 -0.020000 -0.670938
v -0.440687 -0.020000 -0.256563
v -0.416148 -0.020000 -0.651259
v -0.389185 -0.020000 -0.228889
v -0.362768 -0.020000 -0.625803
v -0.343794 -0.020000 -0.193215
v -0.313000 -0.020000 -0.594500
v -0.304500 -0.020000 -0.149500
v -0.266731 -0.020000 -0.557280
v -0.271289 -0.020000 -0.097701
v -0.244148 -0.020000 -0.037778
v -0.223852 -0.020000 -0.514074
v -0.223062 -0.020000 0.030313
v -0.184250 -0.020000 -0.464812
v -0.208018 -0.020000 0.106611
v -0.199002 -0.020000 0.191160
v -0.196000 -0.020000 0.284000
v 0.156000 -0.020000 0.544000
v -0.147815 -0.020000 -0.409426
v -0.114435 -0.020000 -0.347845
v -0.084000 -0.020000 -0.280000
v -0.076000 -0.020000 -0.280000
v -0.053053 -0.020000 -0.378616
v -0.022426 -0.020000 -0.470259
v 0.015563 -0.020000 -0.554625
v 0.060593 -0.020000 -0.631408
v 0.112345 -0.020000 -0.700301
v 0.156000 -0.020000 0.072000
v 0.170500 -0.020000 -0.761000
v 1.012000 -0.020000 0.544000
v 0.159607 -0.020000 -0.026433
v 0.170185 -0.020000 -0.115796
v 0.187375 -0.020000 -0.196188
v 0.234738 -0.020000 -0.813199
v 0.210815 -0.020000 -0.267704
v 0.240144 -0.020000 -0.330442
v 0.304741 -0.020000 -0.856593
v 0.275000 -0.020000 -0.384500
v 0.315023 -0.020000 -0.429975
v 0.380188 -0.020000 -0.890875
v 0.359852 -0.020000 -0.466963
v 0.409125 -0.020000 -0.495563
v 0.460759 -0.020000 -0.915741
v 0.462482 -0.020000 -0.515871
v 0.546137 -0.020000 -0.930884
v 0.519560 -0.020000 -0.527984
v 0.580000 -0.020000 -0.532000
v 0.636000 -0.020000 -0.936000
v 0.631354 -0.020000 -0.529294
v 0.682833 -0.020000 -0.520685
v 0.720908 -0.020000 -0.930646
v 0.733563 -0.020000 -0.505438
v 0.806593 -0.020000 -0.914167
v 0.782667 -0.020000 -0.482815
v 0.829271 -0.020000 -0.452081
v 0.891500 -0.020000 -0.885938
v 0.872500 -0.020000 -0.412500
v 0.911479 -0.020000 -0.363336
v 0.974074 -0.020000 -0.845333
v 0.945333 -0.020000 -0.303852
v 0.973188 -0.020000 -0.233312
v 0.994167 -0.020000 -0.150981
v 1.052759 -0.020000 -0.791729
v 1.007396 -0.020000 -0.056123
v 1.012000 -0.020000 0.052000
v 1.126000 -0.020000 -0.724500
v 1.192241 -0.020000 -0.643021
v 1.249926 -0.020000 -0.546667
v 1.297500 -0.020000 -0.434812
v 1.333408 -0.020000 -0.306833
v 1.356093 -0.020000 -0.162104
v 1.364000 -0.020000 0.000000
vn -1.0000 0.0000 0.0000
vn 0.0000 0.0000 -1.0000
vn 1.0000 0.0000 0.0000
vn 0.0000 0.0000 1.0000
vn 0.0000 -1.0000 0.0000
vn 0.0000 1.0000 0.0000
vn 0.9987 0.0000 0.0508
vn 0.9870 0.0000 0.1605
vn 0.9605 0.0000 0.2782
vn 0.9163 0.0000 0.4005
vn 0.8526 0.0000 0.5225
vn 0.7698 0.0000 0.6383
vn 0.6701 0.0000 0.7423
vn 0.5574 0.0000 0.8302
vn 0.4365 0.0000 0.8997
vn 0.3116 0.0000 0.9502
vn 0.1859 0.0000 0.9826
vn 0.0615 0.0000 0.9981
vn -0.0400 0.0000 0.9992
vn -0.1274 0.0000 0.9919
vn -0.2235 0.0000 0.9747
vn -0.3258 0.0000 0.9454
vn -0.4304 0.0000 0.9026
vn -0.5324 0.0000 0.8465
vn -0.6268 0.0000 0.7792
vn -0.7098 0.0000 0.7044
vn -0.7794 0.0000 0.6266
vn -0.8354 0.0000 0.5496
vn -0.8792 0.0000 0.4765
vn -0.9124 0.0000 0.4093
vn 0.9740 0.0000 0.2266
vn 0.9484 0.0000 0.3170
vn 0.9118 0.0000 0.4106
vn 0.8626 0.0000 0.5059
vn 0.7995 0.0000 0.6006
vn 0.7221 0.0000 0.6918
vn 0.6306 0.0000 0.7761
vn 0.5269 0.0000 0.8499
vn 0.4137 0.0000 0.9104
vn 0.2949 0.0000 0.9555
vn 0.1746 0.0000 0.9846
vn 0.0568 0.0000 0.9984
vn -0.0629 0.0000 0.9980
vn -0.1889 0.0000 0.9820
vn -0.3155 0.0000 0.9489
vn -0.4413 0.0000 0.8974
vn -0.5630 0.0000 0.8264
vn -0.6762 0.0000 0.7367
vn -0.7759 0.0000 0.6308
vn -0.8580 0.0000 0.5137
vn -0.9202 0.0000 0.3914
vn -0.9628 0.0000 0.2701
vn -0.9879 0.0000 0.1549
vn -0.9988 0.0000 0.0487
vn 0.9995 0.0000 -0.0323
vn 0.9944 0.0000 -0.1060
vn 0.9811 0.0000 -0.1934
vn 0.9552 0.0000 -0.2958
vn 0.9109 0.0000 -0.4126
vn 0.8418 0.0000 -0.5397
vn 0.7437 0.0000 -0.6685
vn 0.6179 0.0000 -0.7862
vn 0.4733 0.0000 -0.8809
vn 0.3237 0.0000 -0.9462
vn 0.1819 0.0000 -0.9833
vn 0.0560 0.0000 -0.9984
vn -0.0494 0.0000 -0.9988
vn -0.1577 0.0000 -0.9875
vn -0.2789 0.0000 -0.9603
vn -0.4099 0.0000 -0.9121
vn -0.5439 0.0000 -0.8391
vn -0.6713 0.0000 -0.7411
vn -0.6713 0.0000 -0.7412
vn -0.7820 0.0000 -0.6233
vn -0.8690 0.0000 -0.4949
vn -0.9305 0.0000 -0.3663
vn -0.9694 0.0000 -0.2454
vn -0.9906 0.0000 -0.1369
vn -0.9991 0.0000 -0.0421
vn 0.9991 0.0000 -0.0425
vn 0.9904 0.0000 -0.1381
vn 0.9690 0.0000 -0.2469
vn 0.9301 0.0000 -0.3673
vn 0.8691 0.0000 -0.4946
vn 0.7836 0.0000 -0.6213
vn 0.6753 0.0000 -0.7375
vn 0.5505 0.0000 -0.8348
vn 0.4184 0.0000 -0.9082
vn 0.2878 0.0000 -0.9577
vn 0.1649 0.0000 -0.9863
vn 0.0526 0.0000 -0.9986
vn -0.0663 0.0000 -0.9978
vn -0.2076 0.0000 -0.9782
vn -0.3557 0.0000 -0.9346
vn -0.5020 0.0000 -0.8649
vn -0.6364 0.0000 -0.7713
vn -0.7507 0.0000 -0.6607
vn -0.8404 0.0000 -0.5419
vn -0.9059 0.0000 -0.4235
vn -0.9503 0.0000 -0.3115
vn -0.9779 0.0000 -0.2091
vn -0.9931 0.0000 -0.1176
vn -0.9993 0.0000 -0.0366
usemtl None
s off
f 1//1 2//1 3//1
f 1//1 3//1 4//1
f 4//2 3//2 5//2
f 4//2 5//2 6//2
f 6//3 5//3 7//3
f 6//3 7//3 8//3
f 8//4 7//4 2//4
f 8//4 2//4 1//4
f 4//5 6//5 8//5
f 4//5 8//5 1//5
f 9//6 2//6 7//6
f 9//6 7//6 10//6
f 11//6 12//6 13//6
f 13//6 14//6 15//6
f 15//6 16//6 17//6
f 17//6 18//6 19//6
f 19//6 20//6 21//6
f 21//6 22//6 23//6
f 23//6 24//6 25//6
f 25//6 26//6 27//6
f 27//6 28//6 29//6
f 29//6 30//6 31//6
f 31//6 32//6 33//6
f 33//6 34//6 35//6
f 35//6 36//6 37//6
f 37//6 11//6 13//6
f 13//6 15//6 17//6
f 17//6 19//6 21//6
f 21//6 23//6 25//6
f 25//6 27//6 29//6
f 29//6 31//6 33//6
f 33//6 35//6 37//6
f 37//6 13//6 17//6
f 17//6 21//6 25//6
f 25//6 29//6 33//6
f 33//6 37//6 17//6
f 17//6 25//6 33//6
f 38//6 39//6 40//6
f 38//6 40//6 41//6
f 42//6 38//6 41//6
f 42//6 41//6 43//6
f 44//6 42//6 43//6
f 44//6 43//6 45//6
f 46//6 44//6 45//6
f 46//6 45//6 47//6
f 48//6 46//6 47//6
f 48//6 47//6 49//6
f 50//6 48//6 49//6
f 50//6 49//6 51//6
f 52//6 50//6 51//6
f 52//6 51//6 53//6
f 54//6 52//6 53//6
f 54//6 53//6 55//6
f 56//6 54//6 55//6
f 56//6 55//6 57//6
f 58//6 56//6 57//6
f 58//6 57//6 59//6
f 60//6 58//6 59//6
f 61//6 60//6 59//6
f 62//6 61//6 59//6
f 2//6 9//6 63//6
f 10//6 7//6 5//6
f 64//6 10//6 5//6
f 3//6 2//6 63//6
f 3//6 63//6 65//6
f 66//6 64//6 5//6
f 67//6 66//6 5//6
f 3//6 65//6 68//6
f 3//6 68//6 69//6
f 70//6 67//6 5//6
f 71//6 70//6 5//6
f 3//6 69//6 72//6
f 3//6 72//6 73//6
f 74//6 71//6 5//6
f 75//6 74//6 5//6
f 3//6 73//6 76//6
f 3//6 76//6 77//6
f 78//6 75//6 5//6
f 79//6 78//6 5//6
f 3//6 77//6 80//6
f 3//6 80//6 81//6
f 82//6 79//6 5//6
f 83//6 82//6 5//6
f 5//6 3//6 81//6
f 5//6 81//6 84//6
f 85//6 83//6 5//6
f 86//6 85//6 5//6
f 5//6 84//6 62//6
f 5//6 62//6 59//6
f 87//6 86//6 5//6
f 59//6 87//6 5//6
f 88//6 89//6 90//6
f 90//6 91//6 92//6
f 92//6 93//6 94//6
f 94//6 95//6 96//6
f 96//6 97//6 98//6
f 98//6 99//6 100//6
f 100//6 101//6 102//6
f 102//6 103//6 104//6
f 104//6 105//6 106//6
f 106//6 107//6 108//6
f 108//6 109//6 110//6
f 110//6 111//6 112//6
f 112//6 113//6 114//6
f 114//6 88//6 90//6
f 90//6 92//6 94//6
f 94//6 96//6 98//6
f 98//6 100//6 102//6
f 102//6 104//6 106//6
f 106//6 108//6 110//6
f 110//6 112//6 114//6
f 114//6 90//6 94//6
f 94//6 98//6 102//6
f 102//6 106//6 110//6
f 110//6 114//6 94//6
f 94//6 102//6 110//6
f 115//6 116//6 117//6
f 116//6 118//6 117//6
f 116//6 119//6 118//6
f 116//6 120//6 119//6
f 116//6 121//6 120//6
f 116//6 122//6 121//6
f 116//6 123//6 122//6
f 116//6 124//6 123//6
f 116//6 125//6 124//6
f 116//6 126//6 125//6
f 126//6 127//6 125//6
f 115//6 128//6 116//6
f 129//6 127//6 126//6
f 130//6 127//6 129//6
f 130//6 131//6 127//6
f 132//6 131//6 130//6
f 133//6 131//6 132//6
f 134//6 131//6 133//6
f 135//6 131//6 134//6
f 135//6 136//6 131//6
f 137//6 136//6 135//6
f 138//6 136//6 137//6
f 138//6 139//6 136//6
f 140//6 139//6 138//6
f 141//6 139//6 140//6
f 141//6 142//6 139//6
f 143//6 142//6 141//6
f 144//6 142//6 143//6
f 144//6 145//6 142//6
f 146//6 145//6 144//6
f 146//6 147//6 145//6
f 148//6 147//6 146//6
f 148//6 149//6 147//6
f 150//6 149//6 148//6
f 150//6 151//6 149//6
f 152//6 151//6 150//6
f 152//6 153//6 151//6
f 154//6 153//6 152//6
f 154//6 155//6 153//6
f 156//6 155//6 154//6
f 156//6 157//6 155//6
f 158//6 157//6 156//6
f 159//6 157//6 158//6
f 159//6 160//6 157//6
f 161//6 160//6 159//6
f 161//6 162//6 160//6
f 163//6 162//6 161//6
f 164//6 162//6 163//6
f 165//6 162//6 164//6
f 115//6 166//6 128//6
f 166//6 165//6 128//6
f 166//6 162//6 165//6
f 166//6 167//6 162//6
f 166//6 168//6 167//6
f 166//6 169//6 168//6
f 166//6 170//6 169//6
f 166//6 171//6 170//6
f 166//6 172//6 171//6
f 166//6 173//6 172//6
f 166//6 174//6 173//6
f 166//6 175//6 174//6
f 166//6 176//6 175//6
f 176//6 177//6 175//6
f 115//6 178//6 166//6
f 179//6 177//6 176//6
f 180//6 177//6 179//6
f 181//6 177//6 180//6
f 181//6 182//6 177//6
f 183//6 182//6 181//6
f 184//6 182//6 183//6
f 184//6 185//6 182//6
f 186//6 185//6 184//6
f 187//6 185//6 186//6
f 187//6 188//6 185//6
f 189//6 188//6 187//6
f 190//6 188//6 189//6
f 190//6 191//6 188//6
f 192//6 191//6 190//6
f 192//6 193//6 191//6
f 194//6 193//6 192//6
f 195//6 193//6 194//6
f 195//6 196//6 193//6
f 197//6 196//6 195//6
f 198//6 196//6 197//6
f 198//6 199//6 196//6
f 200//6 199//6 198//6
f 200//6 201//6 199//6
f 202//6 201//6 200//6
f 203//6 201//6 202//6
f 203//6 204//6 201//6
f 205//6 204//6 203//6
f 206//6 204//6 205//6
f 206//6 207//6 204//6
f 208//6 207//6 206//6
f 209//6 207//6 208//6
f 210//6 207//6 209//6
f 210//6 211//6 207//6
f 212//6 211//6 210//6
f 213//6 211//6 212//6
f 115//6 213//6 178//6
f 115//6 211//6 213//6
f 115//6 214//6 211//6
f 115//6 215//6 214//6
f 115//6 216//6 215//6
f 115//6 217//6 216//6
f 115//6 218//6 217//6
f 115//6 219//6 218//6
f 115//6 220//6 219//6
f 63//7 118//7 119//7
f 63//7 119//7 65//7
f 65//8 119//8 120//8
f 65//8 120//8 68//8
f 68//9 120//9 121//9
f 68//9 121//9 69//9
f 69//10 121//10 122//10
f 69//10 122//10 72//10
f 72//11 122//11 123//11
f 72//11 123//11 73//11
f 73//12 123//12 124//12
f 73//12 124//12 76//12
f 76//13 124//13 125//13
f 76//13 125//13 77//13
f 77//14 125//14 127//14
f 77//14 127//14 80//14
f 80//15 127//15 131//15
f 80//15 131//15 81//15
f 81//16 131//16 136//16
f 81//16 136//16 84//16
f 84//17 136//17 139//17
f 84//17 139//17 62//17
f 62//18 139//18 142//18
f 62//18 142//18 61//18
f 61//19 142//19 145//19
f 61//19 145//19 60//19
f 60//20 145//20 147//20
f 60//20 147//20 58//20
f 58//21 147//21 149//21
f 58//21 149//21 56//21
f 56//22 149//22 151//22
f 56//22 151//22 54//22
f 54//23 151//23 153//23
f 54//23 153//23 52//23
f 52//24 153//24 155//24
f 52//24 155//24 50//24
f 50//25 155//25 157//25
f 50//25 157//25 48//25
f 157//26 160//26 46//26
f 157//26 46//26 48//26
f 160//27 162//27 44//27
f 160//27 44//27 46//27
f 162//28 167//28 42//28
f 162//28 42//28 44//28
f 167//29 168//29 38//29
f 167//29 38//29 42//29
f 168//30 169//30 39//30
f 168//30 39//30 38//30
f 39//4 169//4 170//4
f 39//4 170//4 40//4
f 40//31 170//31 171//31
f 40//31 171//31 41//31
f 41//32 171//32 172//32
f 41//32 172//32 43//32
f 43//33 172//33 173//33
f 43//33 173//33 45//33
f 45//34 173//34 174//34
f 45//34 174//34 47//34
f 47//35 174//35 175//35
f 47//35 175//35 49//35
f 49//36 175//36 177//36
f 49//36 177//36 51//36
f 51//37 177//37 182//37
f 51//37 182//37 53//37
f 53//38 182//38 185//38
f 53//38 185//38 55//38
f 55//39 185//39 188//39
f 55//39 188//39 57//39
f 57//40 188//40 191//40
f 57//40 191//40 59//40
f 59//41 191//41 193//41
f 59//41 193//41 87//41
f 87//42 193//42 196//42
f 87//42 196//42 86//42
f 86//43 196//43 199//43
f 86//43 199//43 85//43
f 85//44 199//44 201//44
f 85//44 201//44 83//44
f 83//45 201//45 204//45
f 83//45 204//45 82//45
f 82//46 204//46 207//46
f 82//46 207//46 79//46
f 79//47 207//47 211//47
f 79//47 211//47 78//47
f 78//48 211//48 214//48
f 78//48 214//48 75//48
f 214//49 215//49 74//49
f 214//49 74//49 75//49
f 215//50 216//50 71//50
f 215//50 71//50 74//50
f 216//51 217//51 70//51
f 216//51 70//51 71//51
f 217//52 218//52 67//52
f 217//52 67//52 70//52
f 218//53 219//53 66//53
f 218//53 66//53 67//53
f 219//54 220//54 64//54
f 219//54 64//54 66//54
f 220//1 115//1 10//1
f 220//1 10//1 64//1
f 115//2 117//2 9//2
f 115//2 9//2 10//2
f 9//3 117//3 118//3
f 9//3 118//3 63//3
f 23//55 165//55 164//55
f 23//55 164//55 24//55
f 24//56 164//56 163//56
f 24//56 163//56 25//56
f 25//57 163//57 161//57
f 25//57 161//57 26//57
f 26//58 161//58 159//58
f 26//58 159//58 27//58
f 27//59 159//59 158//59
f 27//59 158//59 28//59
f 28//60 158//60 156//60
f 28//60 156//60 29//60
f 29//61 156//61 154//61
f 29//61 154//61 30//61
f 154//62 152//62 31//62
f 154//62 31//62 30//62
f 152//63 150//63 32//63
f 152//63 32//63 31//63
f 150//64 148//64 33//64
f 150//64 33//64 32//64
f 148//65 146//65 34//65
f 148//65 34//65 33//65
f 146//66 144//66 35//66
f 146//66 35//66 34//66
f 144//67 143//67 36//67
f 144//67 36//67 35//67
f 143//68 141//68 37//68
f 143//68 37//68 36//68
f 141//69 140//69 11//69
f 141//69 11//69 37//69
f 140//70 138//70 12//70
f 140//70 12//70 11//70
f 138//71 137//71 13//71
f 138//71 13//71 12//71
f 137//72 135//72 14//72
f 137//73 14//73 13//73
f 135//74 134//74 15//74
f 135//74 15//74 14//74
f 134//75 133//75 16//75
f 134//75 16//75 15//75
f 133//76 132//76 17//76
f 133//76 17//76 16//76
f 132//77 130//77 18//77
f 132//77 18//77 17//77
f 130//78 129//78 19//78
f 130//78 19//78 18//78
f 129//79 126//79 20//79
f 129//79 20//79 19//79
f 126//1 116//1 21//1
f 126//1 21//1 20//1
f 21//4 116//4 128//4
f 21//4 128//4 22//4
f 22//3 128//3 165//3
f 22//3 165//3 23//3
f 95//80 213//80 212//80
f 95//80 212//80 96//80
f 96//81 212//81 210//81
f 96//81 210//81 97//81
f 97//82 210//82 209//82
f 97//82 209//82 98//82
f 98//83 209//83 208//83
f 98//83 208//83 99//83
f 99//84 208//84 206//84
f 99//84 206//84 100//84
f 100//85 206//85 205//85
f 100//85 205//85 101//85
f 205//86 203//86 102//86
f 205//86 102//86 101//86
f 203//87 202//87 103//87
f 203//87 103//87 102//87
f 202//88 200//88 104//88
f 202//88 104//88 103//88
f 200//89 198//89 105//89
f 200//89 105//89 104//89
f 198//90 197//90 106//90
f 198//90 106//90 105//90
f 197//91 195//91 107//91
f 197//91 107//91 106//91
f 195//92 194//92 108//92
f 195//92 108//92 107//92
f 194//93 192//93 109//93
f 194//93 109//93 108//93
f 192//94 190//94 110//94
f 192//94 110//94 109//94
f 190//95 189//95 111//95
f 190//95 111//95 110//95
f 189//96 187//96 112//96
f 189//96 112//96 111//96
f 187//97 186//97 113//97
f 187//97 113//97 112//97
f 186//98 184//98 114//98
f 186//98 114//98 113//98
f 184//99 183//99 88//99
f 184//99 88//99 114//99
f 183//100 181//100 89//100
f 183//100 89//100 88//100
f 181//101 180//101 90//101
f 181//101 90//101 89//101
f 180//102 179//102 91//102
f 180//102 91//102 90//102
f 179//103 176//103 92//103
f 179//103 92//103 91//103
f 176//1 166//1 93//1
f 176//1 93//1 92//1
f 93//4 166//4 178//4
f 93//4 178//4 94//4
f 94//3 178//3 213//3
f 94//3 213//3 95//3
