# Blender v3.1.2 OBJ File: 'matchboard_all.blend'
# www.blender.org
mtllib board6.mtl
o board6
v -2.000000 -0.300000 2.000000
v -2.000000 0.300000 2.000000
v -2.000000 0.300000 -2.000000
v -2.000000 -0.300000 -2.000000
v 2.000000 0.300000 -2.000000
v 2.000000 -0.300000 -2.000000
v 2.000000 0.300000 2.000000
v 2.000000 -0.300000 2.000000
v -0.179993 0.300000 0.280293
v -0.149897 0.300000 0.339916
v -0.164124 0.300000 0.309926
v -0.177997 0.300000 0.278394
v -0.273144 0.300000 0.239766
v -0.180725 0.300000 0.280042
v -0.456377 0.300000 0.135381
v -0.365267 0.300000 0.191341
v -0.632726 0.300000 0.003390
v -0.545763 0.300000 0.072517
v -0.796629 0.300000 -0.151053
v -0.716576 0.300000 -0.071352
v -0.942640 0.300000 -0.322682
v -0.872207 0.300000 -0.235052
v -1.089732 0.300000 -0.544971
v -1.007263 0.300000 -0.413272
v -0.191304 0.300000 0.245298
v -0.203833 0.300000 0.210615
v -0.215372 0.300000 0.174326
v -0.225709 0.300000 0.136412
v -0.234632 0.300000 0.096857
v -0.241931 0.300000 0.055646
v -0.247398 0.300000 0.012770
v -0.250826 0.300000 -0.031779
v -0.252034 0.300000 -0.078804
v -0.244706 0.300000 -0.189935
v -0.223089 0.300000 -0.296587
v -0.188062 0.300000 -0.397049
v -0.140485 0.300000 -0.490424
v -0.081243 0.300000 -0.575838
v -0.011236 0.300000 -0.652444
v 0.068630 0.300000 -0.719416
v 0.157447 0.300000 -0.775950
v 0.254306 0.300000 -0.821253
v 0.358294 0.300000 -0.854548
v 1.063754 0.300000 0.703276
v 0.957003 0.300000 0.766092
v 1.013101 0.300000 -0.765055
v 1.104184 0.300000 -0.703840
v 0.914454 0.300000 -0.814593
v 0.839617 0.300000 0.815969
v 0.712450 0.300000 0.852306
v 0.809311 0.300000 -0.851355
v 0.576323 0.300000 0.874523
v 0.698771 0.300000 -0.874228
v 0.584158 0.300000 -0.882083
v 0.432110 0.300000 0.882049
v 0.257567 0.300000 0.873905
v 0.468496 0.300000 -0.875071
v 0.084227 0.300000 0.849639
v -0.087292 0.300000 0.809478
v -1.454811 0.300000 -0.257775
v -0.256272 0.300000 0.753658
v -0.422006 0.300000 0.682421
v -1.309539 0.300000 -0.055318
v -0.583796 0.300000 0.596008
v -0.740949 0.300000 0.494660
v -1.177751 0.300000 0.103396
v -1.038606 0.300000 0.248118
v -0.892779 0.300000 0.378618
v 0.218818 0.300000 0.173424
v 0.227943 0.300000 0.203775
v 0.239294 0.300000 0.234383
v 0.253112 0.300000 0.265891
v 0.269636 0.300000 0.298894
v 0.289088 0.300000 0.333938
v 0.311665 0.300000 0.371540
v 0.328216 0.300000 0.397549
v 0.416563 0.300000 0.412596
v 0.512118 0.300000 0.416569
v 0.599465 0.300000 0.408265
v 0.678427 0.300000 0.389033
v 0.748867 0.300000 0.360161
v 0.810651 0.300000 0.322872
v 0.863619 0.300000 0.278327
v 0.907568 0.300000 0.227656
v 0.942251 0.300000 0.171973
v 0.967393 0.300000 0.112396
v 0.982698 0.300000 0.050042
v 0.987906 0.300000 -0.014444
v 0.984515 0.300000 -0.072407
v 0.974548 0.300000 -0.126814
v 0.958432 0.300000 -0.177002
v 0.936526 0.300000 -0.222817
v 0.909137 0.300000 -0.264123
v 0.876509 0.300000 -0.300784
v 0.838829 0.300000 -0.332631
v 0.796248 0.300000 -0.359443
v 0.748903 0.300000 -0.380937
v 0.696948 0.300000 -0.396775
v 0.640564 0.300000 -0.406577
v 0.580229 0.300000 -0.409926
v 0.526719 0.300000 -0.406344
v 0.476344 0.300000 -0.395957
v 0.429136 0.300000 -0.379177
v 0.385362 0.300000 -0.356386
v 0.345316 0.300000 -0.327938
v 0.309324 0.300000 -0.294163
v 0.277741 0.300000 -0.255388
v 0.250952 0.300000 -0.211935
v 0.229362 0.300000 -0.164133
v 0.213391 0.300000 -0.112316
v 0.203476 0.300000 -0.056820
v 0.200020 0.300000 0.002815
v 0.200675 0.300000 0.041007
v 0.202765 0.300000 0.077086
v 0.206396 0.300000 0.110759
v 0.211697 0.300000 0.142649
v 1.158983 0.300000 0.628162
v 1.186648 0.300000 -0.632029
v 1.259436 0.300000 -0.550681
v 1.241791 0.300000 0.541449
v 1.311288 0.300000 0.443898
v 1.321481 0.300000 -0.460845
v 1.371689 0.300000 -0.363570
v 1.366622 0.300000 0.336329
v 1.407002 0.300000 0.219594
v 1.408948 0.300000 -0.259924
v 1.432128 0.300000 -0.151007
v 1.431708 0.300000 0.094551
v 1.440089 0.300000 -0.038147
v -1.309539 -0.020000 -0.055318
v -1.089732 -0.020000 -0.544971
v -1.454811 -0.020000 -0.257775
v -1.177751 -0.020000 0.103396
v -1.038606 -0.020000 0.248118
v -1.007263 -0.020000 -0.413272
v -0.892779 -0.020000 0.378618
v -0.942640 -0.020000 -0.322682
v -0.872207 -0.020000 -0.235052
v -0.740949 -0.020000 0.494660
v -0.796629 -0.020000 -0.151053
v -0.716576 -0.020000 -0.071352
v -0.583796 -0.020000 0.596008
v -0.632726 -0.020000 0.003390
v -0.545763 -0.020000 0.072517
v -0.422006 -0.020000 0.682421
v -0.456377 -0.020000 0.135381
v -0.365267 -0.020000 0.191341
v -0.256272 -0.020000 0.753658
v -0.273144 -0.020000 0.239766
v -0.180725 -0.020000 0.280042
v -0.087292 -0.020000 0.809478
v -0.250826 -0.020000 -0.031779
v -0.244706 -0.020000 -0.189935
v -0.252034 -0.020000 -0.078804
v -0.247398 -0.020000 0.012770
v -0.241931 -0.020000 0.055646
v -0.223089 -0.020000 -0.296587
v -0.234632 -0.020000 0.096857
v -0.225709 -0.020000 0.136412
v -0.215372 -0.020000 0.174326
v -0.188062 -0.020000 -0.397049
v -0.203833 -0.020000 0.210615
v -0.191304 -0.020000 0.245298
v -0.177997 -0.020000 0.278394
v -0.140485 -0.020000 -0.490424
v -0.179993 -0.020000 0.280293
v -0.149897 -0.020000 0.339916
v -0.164124 -0.020000 0.309926
v -0.081243 -0.020000 -0.575838
v 0.084227 -0.020000 0.849639
v -0.011236 -0.020000 -0.652444
v 0.068630 -0.020000 -0.719416
v 0.157447 -0.020000 -0.775950
v 0.257567 -0.020000 0.873905
v 0.202765 -0.020000 0.077086
v 0.200675 -0.020000 0.041007
v 0.200020 -0.020000 0.002815
v 0.203476 -0.020000 -0.056820
v 0.254306 -0.020000 -0.821253
v 0.206396 -0.020000 0.110759
v 0.213391 -0.020000 -0.112316
v 0.211697 -0.020000 0.142649
v 0.218818 -0.020000 0.173424
v 0.229362 -0.020000 -0.164133
v 0.227943 -0.020000 0.203775
v 0.239294 -0.020000 0.234383
v 0.250952 -0.020000 -0.211935
v 0.253112 -0.020000 0.265891
v 0.277741 -0.020000 -0.255388
v 0.269636 -0.020000 0.298894
v 0.358294 -0.020000 -0.854548
v 0.432110 -0.020000 0.882049
v 0.289088 -0.020000 0.333938
v 0.309324 -0.020000 -0.294163
v 0.311665 -0.020000 0.371540
v 0.345316 -0.020000 -0.327938
v 0.328216 -0.020000 0.397549
v 0.416563 -0.020000 0.412596
v 0.385362 -0.020000 -0.356386
v 0.468496 -0.020000 -0.875071
v 0.429136 -0.020000 -0.379177
v 0.512118 -0.020000 0.416569
v 0.476344 -0.020000 -0.395957
v 0.576323 -0.020000 0.874523
v 0.584158 -0.020000 -0.882083
v 0.526719 -0.020000 -0.406344
v 0.599465 -0.020000 0.408265
v 0.580229 -0.020000 -0.409926
v 0.712450 -0.020000 0.852306
v 0.640564 -0.020000 -0.406577
v 0.698771 -0.020000 -0.874228
v 0.678427 -0.020000 0.389033
v 0.696948 -0.020000 -0.396775
v 0.748867 -0.020000 0.360161
v 0.748903 -0.020000 -0.380937
v 0.809311 -0.020000 -0.851355
v 0.839617 -0.020000 0.815969
v 0.810651 -0.020000 0.322872
v 0.796248 -0.020000 -0.359443
v 0.838829 -0.020000 -0.332631
v 0.914454 -0.020000 -0.814593
v 0.863619 -0.020000 0.278327
v 0.876509 -0.020000 -0.300784
v 0.957003 -0.020000 0.766092
v 0.907568 -0.020000 0.227656
v 0.909137 -0.020000 -0.264123
v 0.942251 -0.020000 0.171973
v 0.936526 -0.020000 -0.222817
v 1.013101 -0.020000 -0.765055
v 0.958432 -0.020000 -0.177002
v 0.967393 -0.020000 0.112396
v 1.063754 -0.020000 0.703276
v 0.974548 -0.020000 -0.126814
v 0.982698 -0.020000 0.050042
v 0.984515 -0.020000 -0.072407
v 0.987906 -0.020000 -0.014444
v 1.104184 -0.020000 -0.703840
v 1.158983 -0.020000 0.628162
v 1.186648 -0.020000 -0.632029
v 1.241791 -0.020000 0.541449
v 1.259436 -0.020000 -0.550681
v 1.311288 -0.020000 0.443898
v 1.321481 -0.020000 -0.460845
v 1.366622 -0.020000 0.336329
v 1.371689 -0.020000 -0.363570
v 1.407002 -0.020000 0.219594
v 1.408948 -0.020000 -0.259924
v 1.431708 -0.020000 0.094551
v 1.432128 -0.020000 -0.151007
v 1.440089 -0.020000 -0.038147
vn -1.0000 0.0000 0.0000
vn 0.0000 0.0000 -1.0000
vn 1.0000 0.0000 0.0000
vn 0.0000 0.0000 1.0000
vn 0.0000 -1.0000 0.0000
vn 0.0000 1.0000 0.0000
vn 0.0000 1.0000 -0.0001
vn -0.8141 0.0000 0.5807
vn -0.7794 0.0000 0.6265
vn -0.7434 0.0000 0.6689
vn -0.7055 0.0000 0.7087
vn -0.6654 0.0000 0.7465
vn -0.6223 0.0000 0.7828
vn -0.5753 0.0000 0.8180
vn -0.5234 0.0000 0.8521
vn -0.4653 0.0000 0.8852
vn -0.3995 0.0000 0.9167
vn -0.3242 0.0000 0.9460
vn -0.3243 0.0000 0.9460
vn -0.8927 0.0000 0.4506
vn 0.9035 0.0000 -0.4286
vn 0.9153 0.0000 -0.4027
vn 0.9278 0.0000 -0.3730
vn 0.9405 0.0000 -0.3398
vn 0.9530 0.0000 -0.3030
vn 0.9648 0.0000 -0.2630
vn 0.9755 0.0000 -0.2201
vn 0.9847 0.0000 -0.1744
vn 0.9920 0.0000 -0.1265
vn 0.9971 0.0000 -0.0767
vn 0.9997 0.0000 -0.0257
vn 0.9978 0.0000 0.0658
vn 0.9801 0.0000 0.1986
vn 0.9443 0.0000 0.3292
vn 0.8910 0.0000 0.4540
vn 0.8217 0.0000 0.5699
vn 0.7382 0.0000 0.6746
vn 0.6425 0.0000 0.7662
vn 0.5370 0.0000 0.8436
vn 0.4237 0.0000 0.9058
vn 0.3049 0.0000 0.9524
vn 0.1831 0.0000 0.9831
vn 0.0605 0.0000 0.9982
vn -0.0684 0.0000 0.9977
vn -0.2026 0.0000 0.9793
vn -0.3300 0.0000 0.9440
vn -0.4488 0.0000 0.8936
vn -0.5578 0.0000 0.8300
vn -0.6567 0.0000 0.7541
vn -0.7452 0.0000 0.6668
vn -0.8228 0.0000 0.5683
vn -0.8886 0.0000 0.4587
vn -0.9410 0.0000 0.3383
vn -0.9781 0.0000 0.2082
vn -0.9975 0.0000 0.0704
vn -0.9980 0.0000 -0.0630
vn -0.9810 0.0000 -0.1938
vn -0.9451 0.0000 -0.3269
vn -0.8892 0.0000 -0.4574
vn -0.8145 0.0000 -0.5802
vn -0.7232 0.0000 -0.6906
vn -0.6193 0.0000 -0.7852
vn -0.5072 0.0000 -0.8619
vn -0.5071 0.0000 -0.8619
vn -0.3911 0.0000 -0.9204
vn -0.2747 0.0000 -0.9615
vn -0.1611 0.0000 -0.9869
vn -0.0521 0.0000 -0.9986
vn 0.0466 0.0000 -0.9989
vn 0.1386 0.0000 -0.9903
vn 0.2280 0.0000 -0.9737
vn 0.3137 0.0000 -0.9495
vn 0.3949 0.0000 -0.9187
vn 0.4711 0.0000 -0.8821
vn 0.5420 0.0000 -0.8404
vn 0.6072 0.0000 -0.7945
vn 0.6669 0.0000 -0.7452
vn 0.7209 0.0000 -0.6931
vn 0.7693 0.0000 -0.6388
vn 0.8125 0.0000 -0.5830
vn 0.6183 0.0000 0.7860
vn -0.8475 0.0000 0.5307
vn 0.9836 0.0000 -0.1802
vn 0.9521 0.0000 -0.3057
vn 0.9022 0.0000 -0.4314
vn 0.8334 0.0000 -0.5526
vn 0.7470 0.0000 -0.6648
vn 0.6455 0.0000 -0.7637
vn 0.5328 0.0000 -0.8462
vn 0.4134 0.0000 -0.9106
vn 0.2916 0.0000 -0.9565
vn 0.1713 0.0000 -0.9852
vn 0.0554 0.0000 -0.9985
vn -0.0668 0.0000 -0.9978
vn -0.2019 0.0000 -0.9794
vn -0.3349 0.0000 -0.9422
vn -0.4618 0.0000 -0.8870
vn -0.5791 0.0000 -0.8152
vn -0.6843 0.0000 -0.7292
vn -0.7754 0.0000 -0.6315
vn -0.8512 0.0000 -0.5248
vn -0.9113 0.0000 -0.4116
vn -0.9556 0.0000 -0.2945
vn -0.9844 0.0000 -0.1759
vn -0.9983 0.0000 -0.0579
vn -0.9999 0.0000 0.0171
vn -0.9983 0.0000 0.0578
vn -0.9942 0.0000 0.1072
vn -0.9865 0.0000 0.1640
vn -0.9743 0.0000 0.2254
vn -0.9577 0.0000 0.2879
vn -0.9376 0.0000 0.3477
vn -0.9158 0.0000 0.4016
vn -0.8942 0.0000 0.4477
vn -0.8743 0.0000 0.4853
vn -0.8573 0.0000 0.5147
vn -0.8437 0.0000 0.5369
vn -0.1679 0.0000 0.9858
vn -0.0415 0.0000 0.9991
vn 0.0946 0.0000 0.9955
vn 0.2366 0.0000 0.9716
vn 0.3793 0.0000 0.9253
vn 0.5167 0.0000 0.8561
vn 0.6436 0.0000 0.7653
vn 0.7554 0.0000 0.6552
vn 0.8488 0.0000 0.5287
vn 0.9213 0.0000 0.3888
vn 0.9712 0.0000 0.2384
vn 0.9968 0.0000 0.0805
vn 0.9983 0.0000 -0.0584
usemtl None
s off
f 1//1 2//1 3//1
f 1//1 3//1 4//1
f 4//2 3//2 5//2
f 4//2 5//2 6//2
f 6//3 5//3 7//3
f 6//3 7//3 8//3
f 8//4 7//4 2//4
f 8//4 2//4 1//4
f 4//5 6//5 8//5
f 4//5 8//5 1//5
f 9//6 10//6 11//6
f 9//6 11//6 12//6
f 13//7 14//7 9//7
f 15//6 16//6 13//6
f 17//6 18//6 15//6
f 19//6 20//6 17//6
f 21//6 22//6 19//6
f 23//6 24//6 21//6
f 23//6 21//6 19//6
f 19//6 17//6 15//6
f 15//6 13//6 9//6
f 9//6 12//6 25//6
f 9//6 25//6 26//6
f 19//6 15//6 9//6
f 23//6 19//6 9//6
f 23//6 9//6 26//6
f 23//6 26//6 27//6
f 23//6 27//6 28//6
f 23//6 28//6 29//6
f 23//6 29//6 30//6
f 23//6 30//6 31//6
f 23//6 31//6 32//6
f 23//6 32//6 33//6
f 23//6 33//6 34//6
f 23//6 34//6 35//6
f 23//6 35//6 36//6
f 23//6 36//6 37//6
f 23//6 37//6 38//6
f 23//6 38//6 39//6
f 23//6 39//6 40//6
f 23//6 40//6 41//6
f 23//6 41//6 42//6
f 23//6 42//6 43//6
f 7//6 44//6 45//6
f 46//6 47//6 5//6
f 48//6 46//6 5//6
f 7//6 45//6 49//6
f 7//6 49//6 50//6
f 48//6 5//6 3//6
f 51//6 48//6 3//6
f 2//6 7//6 50//6
f 2//6 50//6 52//6
f 53//6 51//6 3//6
f 54//6 53//6 3//6
f 2//6 52//6 55//6
f 2//6 55//6 56//6
f 57//6 54//6 3//6
f 43//6 57//6 3//6
f 2//6 56//6 58//6
f 2//6 58//6 59//6
f 23//6 43//6 3//6
f 60//6 23//6 3//6
f 2//6 59//6 61//6
f 2//6 61//6 62//6
f 60//6 3//6 2//6
f 63//6 60//6 2//6
f 2//6 62//6 64//6
f 2//6 64//6 65//6
f 66//6 63//6 2//6
f 67//6 66//6 2//6
f 2//6 65//6 68//6
f 2//6 68//6 67//6
f 69//6 70//6 71//6
f 71//6 72//6 73//6
f 73//6 74//6 75//6
f 75//6 76//6 77//6
f 77//6 78//6 79//6
f 79//6 80//6 81//6
f 81//6 82//6 83//6
f 83//6 84//6 85//6
f 85//6 86//6 87//6
f 87//6 88//6 89//6
f 89//6 90//6 91//6
f 91//6 92//6 93//6
f 93//6 94//6 95//6
f 95//6 96//6 97//6
f 97//6 98//6 99//6
f 99//6 100//6 101//6
f 101//6 102//6 103//6
f 103//6 104//6 105//6
f 105//6 106//6 107//6
f 107//6 108//6 109//6
f 109//6 110//6 111//6
f 111//6 112//6 113//6
f 113//6 114//6 115//6
f 115//6 116//6 69//6
f 69//6 71//6 73//6
f 73//6 75//6 77//6
f 77//6 79//6 81//6
f 81//6 83//6 85//6
f 85//6 87//6 89//6
f 89//6 91//6 93//6
f 93//6 95//6 97//6
f 97//6 99//6 101//6
f 101//6 103//6 105//6
f 105//6 107//6 109//6
f 109//6 111//6 113//6
f 113//6 115//6 69//6
f 69//6 73//6 77//6
f 77//6 81//6 85//6
f 85//6 89//6 93//6
f 93//6 97//6 101//6
f 101//6 105//6 109//6
f 109//6 113//6 69//6
f 69//6 77//6 85//6
f 85//6 93//6 101//6
f 101//6 109//6 69//6
f 85//6 101//6 69//6
f 117//6 44//6 7//6
f 5//6 47//6 118//6
f 5//6 118//6 119//6
f 120//6 117//6 7//6
f 121//6 120//6 7//6
f 5//6 119//6 122//6
f 5//6 122//6 123//6
f 124//6 121//6 7//6
f 125//6 124//6 7//6
f 5//6 123//6 126//6
f 5//6 126//6 127//6
f 125//6 7//6 5//6
f 128//6 125//6 5//6
f 5//6 127//6 129//6
f 5//6 129//6 128//6
f 130//6 131//6 132//6
f 133//6 131//6 130//6
f 134//6 131//6 133//6
f 134//6 135//6 131//6
f 136//6 135//6 134//6
f 136//6 137//6 135//6
f 136//6 138//6 137//6
f 139//6 138//6 136//6
f 139//6 140//6 138//6
f 139//6 141//6 140//6
f 142//6 141//6 139//6
f 142//6 143//6 141//6
f 142//6 144//6 143//6
f 145//6 144//6 142//6
f 145//6 146//6 144//6
f 145//6 147//6 146//6
f 148//6 147//6 145//6
f 148//6 149//6 147//6
f 148//6 150//6 149//6
f 151//6 150//6 148//6
f 152//6 153//6 154//6
f 155//6 153//6 152//6
f 156//6 153//6 155//6
f 156//6 157//6 153//6
f 158//6 157//6 156//6
f 159//6 157//6 158//6
f 160//6 157//6 159//6
f 160//6 161//6 157//6
f 162//6 161//6 160//6
f 163//6 161//6 162//6
f 164//6 161//6 163//6
f 164//6 165//6 161//6
f 151//6 166//6 150//6
f 151//6 167//6 166//6
f 168//6 165//6 164//6
f 167//6 165//6 168//6
f 151//6 165//6 167//6
f 151//6 169//6 165//6
f 170//6 169//6 151//6
f 170//6 171//6 169//6
f 170//6 172//6 171//6
f 170//6 173//6 172//6
f 174//6 175//6 170//6
f 175//6 176//6 170//6
f 176//6 173//6 170//6
f 176//6 177//6 173//6
f 177//6 178//6 173//6
f 178//6 179//6 173//6
f 174//6 180//6 175//6
f 181//6 179//6 178//6
f 174//6 182//6 180//6
f 174//6 183//6 182//6
f 184//6 179//6 181//6
f 174//6 185//6 183//6
f 174//6 186//6 185//6
f 187//6 179//6 184//6
f 174//6 188//6 186//6
f 189//6 179//6 187//6
f 174//6 190//6 188//6
f 189//6 191//6 179//6
f 192//6 190//6 174//6
f 192//6 193//6 190//6
f 194//6 191//6 189//6
f 192//6 195//6 193//6
f 196//6 191//6 194//6
f 192//6 197//6 195//6
f 192//6 198//6 197//6
f 199//6 191//6 196//6
f 199//6 200//6 191//6
f 201//6 200//6 199//6
f 192//6 202//6 198//6
f 203//6 200//6 201//6
f 204//6 202//6 192//6
f 203//6 205//6 200//6
f 206//6 205//6 203//6
f 204//6 207//6 202//6
f 208//6 205//6 206//6
f 209//6 207//6 204//6
f 210//6 205//6 208//6
f 210//6 211//6 205//6
f 209//6 212//6 207//6
f 213//6 211//6 210//6
f 209//6 214//6 212//6
f 215//6 211//6 213//6
f 215//6 216//6 211//6
f 217//6 214//6 209//6
f 217//6 218//6 214//6
f 219//6 216//6 215//6
f 220//6 216//6 219//6
f 220//6 221//6 216//6
f 217//6 222//6 218//6
f 223//6 221//6 220//6
f 224//6 222//6 217//6
f 224//6 225//6 222//6
f 226//6 221//6 223//6
f 224//6 227//6 225//6
f 228//6 221//6 226//6
f 228//6 229//6 221//6
f 230//6 229//6 228//6
f 224//6 231//6 227//6
f 232//6 231//6 224//6
f 233//6 229//6 230//6
f 232//6 234//6 231//6
f 235//6 229//6 233//6
f 232//6 236//6 234//6
f 236//6 229//6 235//6
f 232//6 229//6 236//6
f 232//6 237//6 229//6
f 238//6 237//6 232//6
f 238//6 239//6 237//6
f 240//6 239//6 238//6
f 240//6 241//6 239//6
f 242//6 241//6 240//6
f 242//6 243//6 241//6
f 244//6 243//6 242//6
f 244//6 245//6 243//6
f 246//6 245//6 244//6
f 246//6 247//6 245//6
f 248//6 247//6 246//6
f 248//6 249//6 247//6
f 250//6 249//6 248//6
f 135//8 137//8 21//8
f 135//8 21//8 24//8
f 137//9 138//9 22//9
f 137//9 22//9 21//9
f 138//10 140//10 19//10
f 138//10 19//10 22//10
f 19//11 140//11 141//11
f 19//11 141//11 20//11
f 20//12 141//12 143//12
f 20//12 143//12 17//12
f 17//13 143//13 144//13
f 17//13 144//13 18//13
f 18//14 144//14 146//14
f 18//14 146//14 15//14
f 15//15 146//15 147//15
f 15//15 147//15 16//15
f 16//16 147//16 149//16
f 16//16 149//16 13//16
f 13//17 149//17 150//17
f 13//17 150//17 14//17
f 14//18 150//18 166//18
f 14//19 166//19 9//19
f 166//20 167//20 10//20
f 166//20 10//20 9//20
f 10//21 167//21 168//21
f 10//21 168//21 11//21
f 11//22 168//22 164//22
f 11//22 164//22 12//22
f 12//23 164//23 163//23
f 12//23 163//23 25//23
f 25//24 163//24 162//24
f 25//24 162//24 26//24
f 26//25 162//25 160//25
f 26//25 160//25 27//25
f 27//26 160//26 159//26
f 27//26 159//26 28//26
f 28//27 159//27 158//27
f 28//27 158//27 29//27
f 29//28 158//28 156//28
f 29//28 156//28 30//28
f 30//29 156//29 155//29
f 30//29 155//29 31//29
f 31//30 155//30 152//30
f 31//30 152//30 32//30
f 32//31 152//31 154//31
f 32//31 154//31 33//31
f 33//32 154//32 153//32
f 33//32 153//32 34//32
f 34//33 153//33 157//33
f 34//33 157//33 35//33
f 35//34 157//34 161//34
f 35//34 161//34 36//34
f 36//35 161//35 165//35
f 36//35 165//35 37//35
f 37//36 165//36 169//36
f 37//36 169//36 38//36
f 38//37 169//37 171//37
f 38//37 171//37 39//37
f 39//38 171//38 172//38
f 39//38 172//38 40//38
f 40//39 172//39 173//39
f 40//39 173//39 41//39
f 41//40 173//40 179//40
f 41//40 179//40 42//40
f 42//41 179//41 191//41
f 42//41 191//41 43//41
f 43//42 191//42 200//42
f 43//42 200//42 57//42
f 57//43 200//43 205//43
f 57//43 205//43 54//43
f 54//44 205//44 211//44
f 54//44 211//44 53//44
f 53//45 211//45 216//45
f 53//45 216//45 51//45
f 51//46 216//46 221//46
f 51//46 221//46 48//46
f 48//47 221//47 229//47
f 48//47 229//47 46//47
f 46//48 229//48 237//48
f 46//48 237//48 47//48
f 47//49 237//49 239//49
f 47//49 239//49 118//49
f 239//50 241//50 119//50
f 239//50 119//50 118//50
f 241//51 243//51 122//51
f 241//51 122//51 119//51
f 243//52 245//52 123//52
f 243//52 123//52 122//52
f 245//53 247//53 126//53
f 245//53 126//53 123//53
f 247//54 249//54 127//54
f 247//54 127//54 126//54
f 249//55 250//55 129//55
f 249//55 129//55 127//55
f 250//56 248//56 128//56
f 250//56 128//56 129//56
f 248//57 246//57 125//57
f 248//57 125//57 128//57
f 246//58 244//58 124//58
f 246//58 124//58 125//58
f 244//59 242//59 121//59
f 244//59 121//59 124//59
f 242//60 240//60 120//60
f 242//60 120//60 121//60
f 240//61 238//61 117//61
f 240//61 117//61 120//61
f 238//62 232//62 44//62
f 238//62 44//62 117//62
f 232//63 224//63 45//63
f 232//64 45//64 44//64
f 224//65 217//65 49//65
f 224//65 49//65 45//65
f 217//66 209//66 50//66
f 217//66 50//66 49//66
f 209//67 204//67 52//67
f 209//67 52//67 50//67
f 204//68 192//68 55//68
f 204//68 55//68 52//68
f 192//69 174//69 56//69
f 192//69 56//69 55//69
f 174//70 170//70 58//70
f 174//70 58//70 56//70
f 170//71 151//71 59//71
f 170//71 59//71 58//71
f 151//72 148//72 61//72
f 151//72 61//72 59//72
f 148//73 145//73 62//73
f 148//73 62//73 61//73
f 145//74 142//74 64//74
f 145//74 64//74 62//74
f 142//75 139//75 65//75
f 142//75 65//75 64//75
f 139//76 136//76 68//76
f 139//76 68//76 65//76
f 136//77 134//77 67//77
f 136//77 67//77 68//77
f 67//78 134//78 133//78
f 67//78 133//78 66//78
f 66//79 133//79 130//79
f 66//79 130//79 63//79
f 63//80 130//80 132//80
f 63//80 132//80 60//80
f 60//81 132//81 131//81
f 60//81 131//81 23//81
f 131//82 135//82 24//82
f 131//82 24//82 23//82
f 89//83 235//83 233//83
f 89//83 233//83 90//83
f 90//84 233//84 230//84
f 90//84 230//84 91//84
f 91//85 230//85 228//85
f 91//85 228//85 92//85
f 92//86 228//86 226//86
f 92//86 226//86 93//86
f 93//87 226//87 223//87
f 93//87 223//87 94//87
f 223//88 220//88 95//88
f 223//88 95//88 94//88
f 220//89 219//89 96//89
f 220//89 96//89 95//89
f 219//90 215//90 97//90
f 219//90 97//90 96//90
f 215//91 213//91 98//91
f 215//91 98//91 97//91
f 213//92 210//92 99//92
f 213//92 99//92 98//92
f 210//93 208//93 100//93
f 210//93 100//93 99//93
f 208//94 206//94 101//94
f 208//94 101//94 100//94
f 206//95 203//95 102//95
f 206//95 102//95 101//95
f 203//96 201//96 103//96
f 203//96 103//96 102//96
f 201//97 199//97 104//97
f 201//97 104//97 103//97
f 199//98 196//98 105//98
f 199//98 105//98 104//98
f 196//99 194//99 106//99
f 196//99 106//99 105//99
f 194//100 189//100 107//100
f 194//100 107//100 106//100
f 189//101 187//101 108//101
f 189//101 108//101 107//101
f 187//102 184//102 109//102
f 187//102 109//102 108//102
f 184//103 181//103 110//103
f 184//103 110//103 109//103
f 181//104 178//104 111//104
f 181//104 111//104 110//104
f 178//105 177//105 112//105
f 178//105 112//105 111//105
f 177//106 176//106 113//106
f 177//106 113//106 112//106
f 176//107 175//107 114//107
f 176//107 114//107 113//107
f 175//108 180//108 115//108
f 175//108 115//108 114//108
f 180//109 182//109 116//109
f 180//109 116//109 115//109
f 182//110 183//110 69//110
f 182//110 69//110 116//110
f 183//111 185//111 70//111
f 183//111 70//111 69//111
f 185//112 186//112 71//112
f 185//112 71//112 70//112
f 186//113 188//113 72//113
f 186//113 72//113 71//113
f 188//114 190//114 73//114
f 188//114 73//114 72//114
f 190//115 193//115 74//115
f 190//115 74//115 73//115
f 193//116 195//116 75//116
f 193//116 75//116 74//116
f 195//117 197//117 76//117
f 195//117 76//117 75//117
f 76//118 197//118 198//118
f 76//118 198//118 77//118
f 77//119 198//119 202//119
f 77//119 202//119 78//119
f 78//120 202//120 207//120
f 78//120 207//120 79//120
f 79//121 207//121 212//121
f 79//121 212//121 80//121
f 80//122 212//122 214//122
f 80//122 214//122 81//122
f 81//123 214//123 218//123
f 81//123 218//123 82//123
f 82//124 218//124 222//124
f 82//124 222//124 83//124
f 83//125 222//125 225//125
f 83//125 225//125 84//125
f 84//126 225//126 227//126
f 84//126 227//126 85//126
f 85//127 227//127 231//127
f 85//127 231//127 86//127
f 86//128 231//128 234//128
f 86//128 234//128 87//128
f 87//129 234//129 236//129
f 87//129 236//129 88//129
f 88//130 236//130 235//130
f 88//130 235//130 89//130
