# Blender v3.1.2 OBJ File: 'matchboard_all.blend'
# www.blender.org
mtllib boardc.mtl
o boardc
v -2.000000 -0.300000 2.000000
v -2.000000 0.300000 2.000000
v -2.000000 0.300000 -2.000000
v -2.000000 -0.300000 -2.000000
v 2.000000 0.300000 -2.000000
v 2.000000 -0.300000 -2.000000
v 2.000000 0.300000 2.000000
v 2.000000 -0.300000 2.000000
v -1.324798 0.300000 -1.154862
v -1.256674 0.300000 -1.322000
v 1.233822 0.300000 -1.350000
v 1.302058 0.300000 -1.214925
v 1.335956 0.300000 -1.142463
v -1.359370 0.300000 -1.064428
v -1.390455 0.300000 -0.976764
v 1.367831 0.300000 -1.067743
v 1.397401 0.300000 -0.990433
v -1.418098 0.300000 -0.891567
v -1.442344 0.300000 -0.808541
v 1.424386 0.300000 -0.910214
v 1.448515 0.300000 -0.826782
v -1.463229 0.300000 -0.727403
v -1.480790 0.300000 -0.647880
v 1.469531 0.300000 -0.739842
v 1.487193 0.300000 -0.649100
v -1.495058 0.300000 -0.569715
v 1.501274 0.300000 -0.554260
v -1.506070 0.300000 -0.492668
v -1.513866 0.300000 -0.416511
v 1.511569 0.300000 -0.455016
v 1.517880 0.300000 -0.351048
v -1.518497 0.300000 -0.341030
v -1.520072 0.300000 -0.263698
v 1.520076 0.300000 -0.239290
v 1.503379 0.300000 0.018077
v -1.506922 0.300000 -0.039918
v -1.467830 0.300000 0.175070
v 1.454810 0.300000 0.255120
v 1.377887 0.300000 0.468864
v -1.404138 0.300000 0.377352
v -1.317119 0.300000 0.565240
v 1.276271 0.300000 0.658937
v 1.153888 0.300000 0.825137
v -1.208120 0.300000 0.737026
v -1.078570 0.300000 0.890999
v 1.014779 0.300000 0.967547
v 0.862937 0.300000 1.086525
v -0.929989 0.300000 1.025467
v -0.763981 0.300000 1.138778
v 0.702194 0.300000 1.182628
v 0.536178 0.300000 1.256492
v -0.582230 0.300000 1.229349
v -0.386479 0.300000 1.295687
v 0.368315 0.300000 1.308737
v 0.201841 0.300000 1.339883
v -0.178495 0.300000 1.336407
v 0.040043 0.300000 1.350243
v 0.846771 0.300000 -0.717127
v 0.820526 0.300000 -0.792352
v 0.790356 0.300000 -0.867600
v 0.756303 0.300000 -0.942661
v 0.718415 0.300000 -1.017325
v 0.676741 0.300000 -1.091385
v 0.516425 0.300000 -1.350000
v -0.550712 0.300000 -1.322000
v -0.697233 0.300000 -1.061794
v -0.737654 0.300000 -0.984154
v -0.773683 0.300000 -0.908400
v -0.805435 0.300000 -0.834268
v -0.833036 0.300000 -0.761478
v -0.856613 0.300000 -0.689729
v -0.876294 0.300000 -0.618699
v -0.892198 0.300000 -0.548047
v -0.904436 0.300000 -0.477416
v -0.913097 0.300000 -0.406437
v -0.918257 0.300000 -0.334741
v -0.919916 0.300000 -0.264161
v -0.911565 0.300000 -0.123967
v -0.887665 0.300000 0.006188
v -0.849175 0.300000 0.127681
v -0.797127 0.300000 0.239764
v -0.732497 0.300000 0.341700
v -0.656201 0.300000 0.432748
v -0.569088 0.300000 0.512160
v -0.471934 0.300000 0.579167
v -0.365439 0.300000 0.632956
v -0.250232 0.300000 0.672649
v -0.126891 0.300000 0.697274
v 0.004181 0.300000 0.705761
v 0.137837 0.300000 0.697510
v 0.262614 0.300000 0.673472
v 0.377896 0.300000 0.634674
v 0.483397 0.300000 0.581985
v 0.578846 0.300000 0.516100
v 0.663905 0.300000 0.437550
v 0.738115 0.300000 0.346740
v 0.800854 0.300000 0.244015
v 0.851345 0.300000 0.129724
v 0.888678 0.300000 0.004272
v 0.911855 0.300000 -0.131853
v 0.919906 0.300000 -0.279536
v 0.917907 0.300000 -0.348723
v 0.911781 0.300000 -0.420676
v 0.901583 0.300000 -0.493701
v 0.887332 0.300000 -0.567590
v 0.869051 0.300000 -0.642136
v -1.506922 -0.020000 -0.039918
v -1.518497 -0.020000 -0.341030
v -1.520072 -0.020000 -0.263698
v -1.513866 -0.020000 -0.416511
v -1.506070 -0.020000 -0.492668
v -1.467830 -0.020000 0.175070
v -1.495058 -0.020000 -0.569715
v -1.480790 -0.020000 -0.647880
v -1.463229 -0.020000 -0.727403
v -1.404138 -0.020000 0.377352
v -1.442344 -0.020000 -0.808541
v -1.418098 -0.020000 -0.891567
v -1.390455 -0.020000 -0.976764
v -1.317119 -0.020000 0.565240
v -1.359370 -0.020000 -1.064428
v -1.324798 -0.020000 -1.154862
v -1.256674 -0.020000 -1.322000
v -1.208120 -0.020000 0.737026
v -0.876294 -0.020000 -0.618699
v -0.856613 -0.020000 -0.689729
v -0.833036 -0.020000 -0.761478
v -0.805435 -0.020000 -0.834268
v -0.773683 -0.020000 -0.908400
v -0.737654 -0.020000 -0.984154
v -0.697233 -0.020000 -1.061794
v -0.550712 -0.020000 -1.322000
v -1.078570 -0.020000 0.890999
v -0.904436 -0.020000 -0.477416
v -0.892198 -0.020000 -0.548047
v -0.929989 -0.020000 1.025467
v -0.919916 -0.020000 -0.264161
v -0.918257 -0.020000 -0.334741
v -0.913097 -0.020000 -0.406437
v -0.763981 -0.020000 1.138778
v -0.911565 -0.020000 -0.123967
v -0.887665 -0.020000 0.006188
v -0.849175 -0.020000 0.127681
v -0.797127 -0.020000 0.239764
v -0.732497 -0.020000 0.341700
v -0.582230 -0.020000 1.229349
v -0.656201 -0.020000 0.432748
v -0.569088 -0.020000 0.512160
v -0.386479 -0.020000 1.295687
v -0.471934 -0.020000 0.579167
v -0.365439 -0.020000 0.632956
v -0.178495 -0.020000 1.336407
v -0.250232 -0.020000 0.672649
v -0.126891 -0.020000 0.697274
v 0.040043 -0.020000 1.350243
v 0.004181 -0.020000 0.705761
v 0.137837 -0.020000 0.697510
v 0.201841 -0.020000 1.339883
v 0.262614 -0.020000 0.673472
v 0.368315 -0.020000 1.308737
v 0.377896 -0.020000 0.634674
v 0.536178 -0.020000 1.256492
v 0.483397 -0.020000 0.581985
v 0.578846 -0.020000 0.516100
v 0.676741 -0.020000 -1.091385
v 1.233822 -0.020000 -1.350000
v 0.516425 -0.020000 -1.350000
v 0.702194 -0.020000 1.182628
v 0.663905 -0.020000 0.437550
v 0.738115 -0.020000 0.346740
v 0.718415 -0.020000 -1.017325
v 0.862937 -0.020000 1.086525
v 0.756303 -0.020000 -0.942661
v 0.800854 -0.020000 0.244015
v 0.790356 -0.020000 -0.867600
v 0.820526 -0.020000 -0.792352
v 0.851345 -0.020000 0.129724
v 0.846771 -0.020000 -0.717127
v 0.869051 -0.020000 -0.642136
v 0.888678 -0.020000 0.004272
v 1.014779 -0.020000 0.967547
v 0.887332 -0.020000 -0.567590
v 0.901583 -0.020000 -0.493701
v 0.911855 -0.020000 -0.131853
v 0.911781 -0.020000 -0.420676
v 0.917907 -0.020000 -0.348723
v 0.919906 -0.020000 -0.279536
v 1.153888 -0.020000 0.825137
v 1.276271 -0.020000 0.658937
v 1.302058 -0.020000 -1.214925
v 1.377887 -0.020000 0.468864
v 1.335956 -0.020000 -1.142463
v 1.367831 -0.020000 -1.067743
v 1.397401 -0.020000 -0.990433
v 1.454810 -0.020000 0.255120
v 1.424386 -0.020000 -0.910214
v 1.448515 -0.020000 -0.826782
v 1.469531 -0.020000 -0.739842
v 1.503379 -0.020000 0.018077
v 1.487193 -0.020000 -0.649100
v 1.501274 -0.020000 -0.554260
v 1.511569 -0.020000 -0.455016
v 1.520076 -0.020000 -0.239290
v 1.517880 -0.020000 -0.351048
vn -1.0000 0.0000 0.0000
vn 0.0000 0.0000 -1.0000
vn 1.0000 0.0000 0.0000
vn 0.0000 0.0000 1.0000
vn 0.0000 -1.0000 0.0000
vn 0.0000 1.0000 0.0000
vn -0.8870 0.0000 -0.4618
vn -0.9031 0.0000 -0.4295
vn -0.9192 0.0000 -0.3937
vn -0.9350 0.0000 -0.3545
vn -0.9500 0.0000 -0.3122
vn -0.9637 0.0000 -0.2670
vn -0.9756 0.0000 -0.2196
vn -0.9853 0.0000 -0.1707
vn -0.9926 0.0000 -0.1211
vn -0.9974 0.0000 -0.0718
vn -0.9997 0.0000 -0.0235
vn -0.9982 0.0000 0.0595
vn -0.9836 0.0000 0.1806
vn -0.9533 0.0000 0.3020
vn -0.9070 0.0000 0.4212
vn -0.8446 0.0000 0.5355
vn -0.7665 0.0000 0.6423
vn -0.6737 0.0000 0.7390
vn -0.5678 0.0000 0.8232
vn -0.4508 0.0000 0.8926
vn -0.3257 0.0000 0.9455
vn -0.1958 0.0000 0.9806
vn -0.0646 0.0000 0.9979
vn 0.0616 0.0000 0.9981
vn 0.1892 0.0000 0.9819
vn 0.3190 0.0000 0.9478
vn 0.4468 0.0000 0.8946
vn 0.5681 0.0000 0.8230
vn 0.6784 0.0000 0.7347
vn 0.7743 0.0000 0.6328
vn 0.8534 0.0000 0.5212
vn 0.9147 0.0000 0.4041
vn 0.9585 0.0000 0.2852
vn 0.9858 0.0000 0.1678
vn 0.9985 0.0000 0.0544
vn 0.9996 0.0000 -0.0289
vn 0.9964 0.0000 -0.0848
vn 0.9904 0.0000 -0.1383
vn 0.9819 0.0000 -0.1894
vn 0.9712 0.0000 -0.2382
vn 0.9586 0.0000 -0.2848
vn 0.9442 0.0000 -0.3294
vn 0.9282 0.0000 -0.3721
vn 0.9107 0.0000 -0.4131
vn 0.8918 0.0000 -0.4525
vn 0.8715 0.0000 -0.4904
vn 0.8499 0.0000 -0.5269
vn -0.8926 0.0000 0.4509
vn -0.9058 0.0000 0.4237
vn -0.9198 0.0000 0.3924
vn -0.9340 0.0000 0.3572
vn -0.9478 0.0000 0.3188
vn -0.9606 0.0000 0.2778
vn -0.9720 0.0000 0.2350
vn -0.9816 0.0000 0.1910
vn -0.9892 0.0000 0.1469
vn -0.9947 0.0000 0.1032
vn -0.9982 0.0000 0.0606
vn -0.9998 0.0000 0.0197
vn -0.9979 0.0000 -0.0647
vn -0.9796 0.0000 -0.2007
vn -0.9409 0.0000 -0.3386
vn -0.8819 0.0000 -0.4715
vn -0.8052 0.0000 -0.5929
vn -0.7153 0.0000 -0.6988
vn -0.6168 0.0000 -0.7871
vn -0.5131 0.0000 -0.8583
vn -0.4065 0.0000 -0.9136
vn -0.2972 0.0000 -0.9548
vn -0.1839 0.0000 -0.9829
vn -0.0639 0.0000 -0.9980
vn 0.0632 0.0000 -0.9980
vn 0.1921 0.0000 -0.9814
vn 0.3210 0.0000 -0.9471
vn 0.4460 0.0000 -0.8950
vn 0.5638 0.0000 -0.8259
vn 0.6710 0.0000 -0.7414
vn 0.7652 0.0000 -0.6438
vn 0.8444 0.0000 -0.5358
vn 0.9074 0.0000 -0.4203
vn 0.9538 0.0000 -0.3003
vn 0.9839 0.0000 -0.1789
vn 0.9983 0.0000 -0.0587
vn 0.9998 0.0000 0.0204
vn 0.9981 0.0000 0.0612
vn 0.9948 0.0000 0.1018
vn 0.9899 0.0000 0.1415
vn 0.9837 0.0000 0.1796
vn 0.9765 0.0000 0.2156
vn 0.9684 0.0000 0.2493
vn 0.9599 0.0000 0.2803
vn 0.9512 0.0000 0.3086
vn 0.9425 0.0000 0.3342
vn 0.9341 0.0000 0.3571
vn 0.9260 0.0000 0.3774
vn -0.8714 0.0000 -0.4907
usemtl None
s off
f 1//1 2//1 3//1
f 1//1 3//1 4//1
f 4//2 3//2 5//2
f 4//2 5//2 6//2
f 6//3 5//3 7//3
f 6//3 7//3 8//3
f 8//4 7//4 2//4
f 8//4 2//4 1//4
f 4//5 6//5 8//5
f 4//5 8//5 1//5
f 9//6 10//6 3//6
f 5//6 11//6 12//6
f 5//6 12//6 13//6
f 14//6 9//6 3//6
f 15//6 14//6 3//6
f 5//6 13//6 16//6
f 5//6 16//6 17//6
f 18//6 15//6 3//6
f 19//6 18//6 3//6
f 5//6 17//6 20//6
f 5//6 20//6 21//6
f 22//6 19//6 3//6
f 23//6 22//6 3//6
f 5//6 21//6 24//6
f 5//6 24//6 25//6
f 23//6 3//6 2//6
f 26//6 23//6 2//6
f 7//6 5//6 25//6
f 7//6 25//6 27//6
f 28//6 26//6 2//6
f 29//6 28//6 2//6
f 7//6 27//6 30//6
f 7//6 30//6 31//6
f 32//6 29//6 2//6
f 33//6 32//6 2//6
f 7//6 31//6 34//6
f 7//6 34//6 35//6
f 36//6 33//6 2//6
f 37//6 36//6 2//6
f 7//6 35//6 38//6
f 7//6 38//6 39//6
f 40//6 37//6 2//6
f 41//6 40//6 2//6
f 7//6 39//6 42//6
f 7//6 42//6 43//6
f 44//6 41//6 2//6
f 45//6 44//6 2//6
f 7//6 43//6 46//6
f 7//6 46//6 47//6
f 48//6 45//6 2//6
f 49//6 48//6 2//6
f 7//6 47//6 50//6
f 7//6 50//6 51//6
f 52//6 49//6 2//6
f 53//6 52//6 2//6
f 7//6 51//6 54//6
f 7//6 54//6 55//6
f 53//6 2//6 7//6
f 56//6 53//6 7//6
f 7//6 55//6 57//6
f 7//6 57//6 56//6
f 58//6 59//6 60//6
f 60//6 61//6 62//6
f 62//6 63//6 64//6
f 64//6 11//6 5//6
f 5//6 3//6 10//6
f 65//6 66//6 67//6
f 5//6 10//6 65//6
f 60//6 62//6 64//6
f 64//6 5//6 65//6
f 65//6 67//6 68//6
f 68//6 69//6 70//6
f 70//6 71//6 72//6
f 72//6 73//6 74//6
f 74//6 75//6 76//6
f 76//6 77//6 78//6
f 78//6 79//6 80//6
f 80//6 81//6 82//6
f 82//6 83//6 84//6
f 84//6 85//6 86//6
f 86//6 87//6 88//6
f 88//6 89//6 90//6
f 90//6 91//6 92//6
f 92//6 93//6 94//6
f 94//6 95//6 96//6
f 96//6 97//6 98//6
f 98//6 99//6 100//6
f 100//6 101//6 102//6
f 102//6 103//6 104//6
f 104//6 105//6 106//6
f 106//6 58//6 60//6
f 60//6 64//6 65//6
f 65//6 68//6 70//6
f 70//6 72//6 74//6
f 74//6 76//6 78//6
f 78//6 80//6 82//6
f 82//6 84//6 86//6
f 86//6 88//6 90//6
f 90//6 92//6 94//6
f 94//6 96//6 98//6
f 98//6 100//6 102//6
f 102//6 104//6 106//6
f 106//6 60//6 65//6
f 65//6 70//6 74//6
f 74//6 78//6 82//6
f 82//6 86//6 90//6
f 90//6 94//6 98//6
f 98//6 102//6 106//6
f 106//6 65//6 74//6
f 74//6 82//6 90//6
f 90//6 98//6 106//6
f 74//6 90//6 106//6
f 107//6 108//6 109//6
f 107//6 110//6 108//6
f 107//6 111//6 110//6
f 112//6 111//6 107//6
f 112//6 113//6 111//6
f 112//6 114//6 113//6
f 112//6 115//6 114//6
f 116//6 115//6 112//6
f 116//6 117//6 115//6
f 116//6 118//6 117//6
f 116//6 119//6 118//6
f 120//6 119//6 116//6
f 120//6 121//6 119//6
f 120//6 122//6 121//6
f 120//6 123//6 122//6
f 124//6 123//6 120//6
f 124//6 125//6 123//6
f 125//6 126//6 123//6
f 126//6 127//6 123//6
f 127//6 128//6 123//6
f 128//6 129//6 123//6
f 129//6 130//6 123//6
f 130//6 131//6 123//6
f 131//6 132//6 123//6
f 133//6 134//6 124//6
f 134//6 135//6 124//6
f 135//6 125//6 124//6
f 136//6 137//6 133//6
f 137//6 138//6 133//6
f 138//6 139//6 133//6
f 139//6 134//6 133//6
f 140//6 141//6 136//6
f 141//6 137//6 136//6
f 140//6 142//6 141//6
f 140//6 143//6 142//6
f 140//6 144//6 143//6
f 140//6 145//6 144//6
f 146//6 145//6 140//6
f 146//6 147//6 145//6
f 146//6 148//6 147//6
f 149//6 148//6 146//6
f 149//6 150//6 148//6
f 149//6 151//6 150//6
f 152//6 151//6 149//6
f 152//6 153//6 151//6
f 152//6 154//6 153//6
f 155//6 154//6 152//6
f 155//6 156//6 154//6
f 155//6 157//6 156//6
f 158//6 157//6 155//6
f 158//6 159//6 157//6
f 160//6 159//6 158//6
f 160//6 161//6 159//6
f 162//6 161//6 160//6
f 162//6 163//6 161//6
f 162//6 164//6 163//6
f 165//6 166//6 167//6
f 168//6 164//6 162//6
f 168//6 169//6 164//6
f 168//6 170//6 169//6
f 171//6 166//6 165//6
f 172//6 170//6 168//6
f 173//6 166//6 171//6
f 172//6 174//6 170//6
f 175//6 166//6 173//6
f 176//6 166//6 175//6
f 172//6 177//6 174//6
f 178//6 166//6 176//6
f 179//6 166//6 178//6
f 172//6 180//6 177//6
f 181//6 180//6 172//6
f 182//6 166//6 179//6
f 183//6 166//6 182//6
f 181//6 184//6 180//6
f 185//6 166//6 183//6
f 186//6 166//6 185//6
f 181//6 187//6 184//6
f 187//6 166//6 186//6
f 181//6 166//6 187//6
f 188//6 166//6 181//6
f 189//6 166//6 188//6
f 189//6 190//6 166//6
f 191//6 190//6 189//6
f 191//6 192//6 190//6
f 191//6 193//6 192//6
f 191//6 194//6 193//6
f 195//6 194//6 191//6
f 195//6 196//6 194//6
f 195//6 197//6 196//6
f 195//6 198//6 197//6
f 199//6 198//6 195//6
f 199//6 200//6 198//6
f 199//6 201//6 200//6
f 199//6 202//6 201//6
f 203//6 202//6 199//6
f 203//6 204//6 202//6
f 131//7 130//7 67//7
f 131//7 67//7 66//7
f 130//8 129//8 68//8
f 130//8 68//8 67//8
f 129//9 128//9 69//9
f 129//9 69//9 68//9
f 128//10 127//10 70//10
f 128//10 70//10 69//10
f 127//11 126//11 71//11
f 127//11 71//11 70//11
f 126//12 125//12 72//12
f 126//12 72//12 71//12
f 125//13 135//13 73//13
f 125//13 73//13 72//13
f 135//14 134//14 74//14
f 135//14 74//14 73//14
f 134//15 139//15 75//15
f 134//15 75//15 74//15
f 139//16 138//16 76//16
f 139//16 76//16 75//16
f 138//17 137//17 77//17
f 138//17 77//17 76//17
f 137//18 141//18 78//18
f 137//18 78//18 77//18
f 141//19 142//19 79//19
f 141//19 79//19 78//19
f 142//20 143//20 80//20
f 142//20 80//20 79//20
f 143//21 144//21 81//21
f 143//21 81//21 80//21
f 144//22 145//22 82//22
f 144//22 82//22 81//22
f 145//23 147//23 83//23
f 145//23 83//23 82//23
f 83//24 147//24 148//24
f 83//24 148//24 84//24
f 84//25 148//25 150//25
f 84//25 150//25 85//25
f 85//26 150//26 151//26
f 85//26 151//26 86//26
f 86//27 151//27 153//27
f 86//27 153//27 87//27
f 87//28 153//28 154//28
f 87//28 154//28 88//28
f 88//29 154//29 156//29
f 88//29 156//29 89//29
f 89//30 156//30 157//30
f 89//30 157//30 90//30
f 90//31 157//31 159//31
f 90//31 159//31 91//31
f 91//32 159//32 161//32
f 91//32 161//32 92//32
f 92//33 161//33 163//33
f 92//33 163//33 93//33
f 93//34 163//34 164//34
f 93//34 164//34 94//34
f 94//35 164//35 169//35
f 94//35 169//35 95//35
f 95//36 169//36 170//36
f 95//36 170//36 96//36
f 96//37 170//37 174//37
f 96//37 174//37 97//37
f 97//38 174//38 177//38
f 97//38 177//38 98//38
f 98//39 177//39 180//39
f 98//39 180//39 99//39
f 99//40 180//40 184//40
f 99//40 184//40 100//40
f 100//41 184//41 187//41
f 100//41 187//41 101//41
f 101//42 187//42 186//42
f 101//42 186//42 102//42
f 102//43 186//43 185//43
f 102//43 185//43 103//43
f 103//44 185//44 183//44
f 103//44 183//44 104//44
f 104//45 183//45 182//45
f 104//45 182//45 105//45
f 105//46 182//46 179//46
f 105//46 179//46 106//46
f 106//47 179//47 178//47
f 106//47 178//47 58//47
f 58//48 178//48 176//48
f 58//48 176//48 59//48
f 59//49 176//49 175//49
f 59//49 175//49 60//49
f 60//50 175//50 173//50
f 60//50 173//50 61//50
f 61//51 173//51 171//51
f 61//51 171//51 62//51
f 62//52 171//52 165//52
f 62//52 165//52 63//52
f 63//53 165//53 167//53
f 63//53 167//53 64//53
f 64//4 167//4 166//4
f 64//4 166//4 11//4
f 166//54 190//54 12//54
f 166//54 12//54 11//54
f 190//55 192//55 13//55
f 190//55 13//55 12//55
f 192//56 193//56 16//56
f 192//56 16//56 13//56
f 193//57 194//57 17//57
f 193//57 17//57 16//57
f 194//58 196//58 20//58
f 194//58 20//58 17//58
f 196//59 197//59 21//59
f 196//59 21//59 20//59
f 197//60 198//60 24//60
f 197//60 24//60 21//60
f 198//61 200//61 25//61
f 198//61 25//61 24//61
f 200//62 201//62 27//62
f 200//62 27//62 25//62
f 201//63 202//63 30//63
f 201//63 30//63 27//63
f 202//64 204//64 31//64
f 202//64 31//64 30//64
f 204//65 203//65 34//65
f 204//65 34//65 31//65
f 203//66 199//66 35//66
f 203//66 35//66 34//66
f 199//67 195//67 38//67
f 199//67 38//67 35//67
f 195//68 191//68 39//68
f 195//68 39//68 38//68
f 191//69 189//69 42//69
f 191//69 42//69 39//69
f 189//70 188//70 43//70
f 189//70 43//70 42//70
f 188//71 181//71 46//71
f 188//71 46//71 43//71
f 181//72 172//72 47//72
f 181//72 47//72 46//72
f 172//73 168//73 50//73
f 172//73 50//73 47//73
f 168//74 162//74 51//74
f 168//74 51//74 50//74
f 162//75 160//75 54//75
f 162//75 54//75 51//75
f 160//76 158//76 55//76
f 160//76 55//76 54//76
f 158//77 155//77 57//77
f 158//77 57//77 55//77
f 155//78 152//78 56//78
f 155//78 56//78 57//78
f 152//79 149//79 53//79
f 152//79 53//79 56//79
f 149//80 146//80 52//80
f 149//80 52//80 53//80
f 146//81 140//81 49//81
f 146//81 49//81 52//81
f 140//82 136//82 48//82
f 140//82 48//82 49//82
f 136//83 133//83 45//83
f 136//83 45//83 48//83
f 45//84 133//84 124//84
f 45//84 124//84 44//84
f 44//85 124//85 120//85
f 44//85 120//85 41//85
f 41//86 120//86 116//86
f 41//86 116//86 40//86
f 40//87 116//87 112//87
f 40//87 112//87 37//87
f 37//88 112//88 107//88
f 37//88 107//88 36//88
f 36//89 107//89 109//89
f 36//89 109//89 33//89
f 33//90 109//90 108//90
f 33//90 108//90 32//90
f 32//91 108//91 110//91
f 32//91 110//91 29//91
f 29//92 110//92 111//92
f 29//92 111//92 28//92
f 28//93 111//93 113//93
f 28//93 113//93 26//93
f 26//94 113//94 114//94
f 26//94 114//94 23//94
f 23//95 114//95 115//95
f 23//95 115//95 22//95
f 22//96 115//96 117//96
f 22//96 117//96 19//96
f 19//97 117//97 118//97
f 19//97 118//97 18//97
f 18//98 118//98 119//98
f 18//98 119//98 15//98
f 15//99 119//99 121//99
f 15//99 121//99 14//99
f 14//100 121//100 122//100
f 14//100 122//100 9//100
f 9//101 122//101 123//101
f 9//101 123//101 10//101
f 10//4 123//4 132//4
f 10//4 132//4 65//4
f 132//102 131//102 66//102
f 132//102 66//102 65//102
