# Blender v3.1.2 OBJ File: 'matchboard_all.blend'
# www.blender.org
mtllib number_1.mtl
o Text.004
v 1.284000 0.320000 0.116000
v -1.284000 0.320000 0.116000
v -1.284000 0.320000 -0.116000
v 1.284000 0.320000 -0.116000
v 1.284000 -0.320000 0.116000
v -1.284000 -0.320000 0.116000
v -1.284000 -0.320000 -0.116000
v 1.284000 -0.320000 -0.116000
v 1.284000 -0.320000 0.116000
v 1.284000 0.320000 0.116000
v -1.284000 -0.320000 0.116000
v -1.284000 0.320000 0.116000
v -1.284000 -0.320000 -0.116000
v -1.284000 0.320000 -0.116000
v 1.284000 -0.320000 -0.116000
v 1.284000 0.320000 -0.116000
vt 0.000000 0.000000
vt 0.666667 0.000000
vt 0.333333 0.000000
vt 1.000000 0.000000
vt 0.000000 0.000000
vt 0.333333 0.000000
vt 0.666667 0.000000
vt 1.000000 0.000000
vt 0.000000 1.000000
vt 0.250000 1.000000
vt 0.250000 0.000000
vt 0.000000 0.000000
vt 0.500000 1.000000
vt 0.500000 0.000000
vt 0.750000 1.000000
vt 0.750000 0.000000
vt 1.000000 1.000000
vt 1.000000 0.000000
vn 0.0000 1.0000 0.0000
vn 0.0000 -1.0000 0.0000
vn 0.7071 0.0000 0.7071
vn -0.7071 0.0000 0.7071
vn -0.7071 0.0000 -0.7071
vn 0.7071 0.0000 -0.7071
usemtl Material.005
s off
f 1/1/1 3/2/1 2/3/1
f 1/1/1 4/4/1 3/2/1
f 5/5/2 6/6/2 7/7/2
f 5/5/2 7/7/2 8/8/2
s 1
f 10/9/3 12/10/4 11/11/4 9/12/3
f 12/10/4 14/13/5 13/14/5 11/11/4
f 14/13/5 16/15/6 15/16/6 13/14/5
f 16/15/6 10/17/3 9/18/3 15/16/6
