# Blender v3.1.2 OBJ File: 'matchboard_all.blend'
# www.blender.org
mtllib number_4.mtl
o Text.007
v 0.214000 0.320000 -0.840000
v 0.406000 0.320000 -0.840000
v 0.406000 0.320000 -0.548000
v 1.302000 0.320000 -0.548000
v 1.302000 0.320000 -0.316000
v 0.406000 0.320000 -0.316000
v 0.406000 0.320000 0.840000
v 0.334540 0.320000 0.840000
v -1.302000 0.320000 -0.497929
v -1.302000 0.320000 -0.548000
v 0.214000 0.320000 -0.548000
v 0.214000 0.320000 -0.316000
v -0.722000 0.320000 -0.316000
v -0.722000 0.320000 -0.189673
v 0.214000 0.320000 0.562986
v 0.214000 -0.320000 -0.840000
v 0.406000 -0.320000 -0.840000
v 0.406000 -0.320000 -0.548000
v 1.302000 -0.320000 -0.548000
v 1.302000 -0.320000 -0.316000
v 0.406000 -0.320000 -0.316000
v 0.406000 -0.320000 0.840000
v 0.334540 -0.320000 0.840000
v -1.302000 -0.320000 -0.497929
v -1.302000 -0.320000 -0.548000
v 0.214000 -0.320000 -0.548000
v 0.214000 -0.320000 -0.316000
v -0.722000 -0.320000 -0.316000
v -0.722000 -0.320000 -0.189673
v 0.214000 -0.320000 0.562986
v 0.214000 -0.320000 -0.840000
v 0.214000 0.320000 -0.840000
v 0.406000 -0.320000 -0.840000
v 0.406000 0.320000 -0.840000
v 0.406000 -0.320000 -0.548000
v 0.406000 0.320000 -0.548000
v 1.302000 -0.320000 -0.548000
v 1.302000 0.320000 -0.548000
v 1.302000 -0.320000 -0.316000
v 1.302000 0.320000 -0.316000
v 0.406000 -0.320000 -0.316000
v 0.406000 0.320000 -0.316000
v 0.406000 -0.320000 0.840000
v 0.406000 0.320000 0.840000
v 0.334540 -0.320000 0.840000
v 0.334540 0.320000 0.840000
v -1.302000 -0.320000 -0.497929
v -1.302000 0.320000 -0.497929
v -1.302000 -0.320000 -0.548000
v -1.302000 0.320000 -0.548000
v 0.214000 -0.320000 -0.548000
v 0.214000 0.320000 -0.548000
v 0.214000 -0.320000 -0.316000
v 0.214000 0.320000 -0.316000
v -0.722000 -0.320000 -0.316000
v -0.722000 0.320000 -0.316000
v -0.722000 -0.320000 -0.189673
v -0.722000 0.320000 -0.189673
v 0.214000 -0.320000 0.562986
v 0.214000 0.320000 0.562986
vt 0.500000 0.000000
vt 0.642857 0.000000
vt 0.571429 0.000000
vt 0.928571 0.000000
vt 0.857143 0.000000
vt 0.714286 0.000000
vt 1.000000 0.000000
vt 0.785714 0.000000
vt 0.000000 0.000000
vt 0.071429 0.000000
vt 0.428571 0.000000
vt 0.357143 0.000000
vt 0.285714 0.000000
vt 0.142857 0.000000
vt 0.214286 0.000000
vt 0.500000 0.000000
vt 0.571429 0.000000
vt 0.642857 0.000000
vt 0.928571 0.000000
vt 0.857143 0.000000
vt 0.714286 0.000000
vt 1.000000 0.000000
vt 0.785714 0.000000
vt 0.000000 0.000000
vt 0.071429 0.000000
vt 0.428571 0.000000
vt 0.357143 0.000000
vt 0.285714 0.000000
vt 0.142857 0.000000
vt 0.214286 0.000000
vt 0.000000 1.000000
vt 0.090909 1.000000
vt 0.090909 0.000000
vt 0.000000 0.000000
vt 0.181818 1.000000
vt 0.181818 0.000000
vt 0.272727 1.000000
vt 0.272727 0.000000
vt 0.363636 1.000000
vt 0.363636 0.000000
vt 0.454545 1.000000
vt 0.454545 0.000000
vt 0.545455 1.000000
vt 0.545455 0.000000
vt 0.636364 1.000000
vt 0.636364 0.000000
vt 0.727273 1.000000
vt 0.727273 0.000000
vt 0.818182 1.000000
vt 0.818182 0.000000
vt 0.909091 1.000000
vt 0.909091 0.000000
vt 1.000000 1.000000
vt 1.000000 0.000000
vt 0.000000 1.000000
vt 0.250000 1.000000
vt 0.250000 0.000000
vt 0.000000 0.000000
vt 0.500000 1.000000
vt 0.500000 0.000000
vt 0.750000 1.000000
vt 0.750000 0.000000
vt 1.000000 1.000000
vt 1.000000 0.000000
vn 0.0000 1.0000 0.0000
vn 0.0000 -1.0000 0.0000
vn -0.7071 0.0000 -0.7071
vn 0.7071 0.0000 -0.7071
vn 0.7071 0.0000 0.7071
vn -0.3360 0.0000 0.9419
vn -0.9036 0.0000 0.4284
vn -0.7071 0.0000 0.7071
vn 0.9018 0.0000 -0.4321
vn -0.4321 0.0000 -0.9018
usemtl Material.005
s off
f 8/1/1 10/2/1 9/3/1
f 8/1/1 14/4/1 10/2/1
f 14/4/1 13/5/1 10/2/1
f 13/5/1 11/6/1 10/2/1
f 8/1/1 15/7/1 14/4/1
f 12/8/1 11/6/1 13/5/1
f 8/1/1 12/8/1 15/7/1
f 8/1/1 11/6/1 12/8/1
f 8/1/1 1/9/1 11/6/1
f 8/1/1 2/10/1 1/9/1
f 7/11/1 2/10/1 8/1/1
f 6/12/2 2/10/2 7/11/2
f 5/13/1 3/14/1 6/12/1
f 3/14/2 2/10/2 6/12/2
f 5/13/1 4/15/1 3/14/1
f 23/16/2 24/17/2 25/18/2
f 23/16/2 25/18/2 29/19/2
f 29/19/2 25/18/2 28/20/2
f 28/20/2 25/18/2 26/21/2
f 23/16/2 29/19/2 30/22/2
f 27/23/2 28/20/2 26/21/2
f 23/16/2 30/22/2 27/23/2
f 23/16/2 27/23/2 26/21/2
f 23/16/2 26/21/2 16/24/2
f 23/16/2 16/24/2 17/25/2
f 22/26/2 23/16/2 17/25/2
f 21/27/1 22/26/1 17/25/1
f 20/28/2 21/27/2 18/29/2
f 18/29/1 21/27/1 17/25/1
f 20/28/2 18/29/2 19/30/2
s 1
f 32/31/3 34/32/4 33/33/4 31/34/3
f 34/32/4 36/35/4 35/36/4 33/33/4
f 36/35/4 38/37/4 37/38/4 35/36/4
f 38/37/4 40/39/5 39/40/5 37/38/4
f 40/39/5 42/41/5 41/42/5 39/40/5
f 42/41/5 44/43/5 43/44/5 41/42/5
f 44/43/5 46/45/6 45/46/6 43/44/5
f 46/45/6 48/47/7 47/48/7 45/46/6
f 48/47/7 50/49/3 49/50/3 47/48/7
f 50/49/3 52/51/3 51/52/3 49/50/3
f 52/51/3 32/53/3 31/54/3 51/52/3
f 54/55/8 56/56/5 55/57/5 53/58/8
f 56/56/5 58/59/9 57/60/9 55/57/5
f 58/59/9 60/61/10 59/62/10 57/60/9
f 60/61/10 54/63/8 53/64/8 59/62/10
