# Blender 3.1.2
# www.blender.org
mtllib horizontal_board.mtl
o Cube.002
v -2.215308 -0.105595 2.487545
v -2.215308 -0.105595 -2.487545
v -2.215307 0.105595 2.487545
v 2.257307 -0.105595 2.487545
v 2.257307 -0.105595 -2.487545
v 2.257307 0.105595 2.487545
v 2.257307 0.105595 -2.487545
v -2.215307 0.105595 -2.487545
vn -0.0000 -1.0000 -0.0000
vn -1.0000 -0.0000 -0.0000
vn -0.0000 -0.0000 1.0000
vn 1.0000 -0.0000 -0.0000
vn -0.0000 1.0000 -0.0000
vn -0.0000 -0.0000 -1.0000
vt 0.125000 0.750000
vt 0.375000 0.000000
vt 0.375000 1.000000
vt 0.125000 0.500000
vt 0.375000 0.250000
vt 0.625000 0.000000
vt 0.625000 1.000000
vt 0.875000 0.750000
vt 0.375000 0.750000
vt 0.375000 0.500000
vt 0.625000 0.750000
vt 0.625000 0.500000
vt 0.875000 0.500000
vt 0.625000 0.250000
s 0
f 2/4/1 5/10/1 4/9/1 1/1/1
f 1/2/2 3/6/2 8/14/2 2/5/2
f 4/9/3 6/11/3 3/7/3 1/3/3
f 5/10/4 7/12/4 6/11/4 4/9/4
f 7/12/5 8/13/5 3/8/5 6/11/5
f 2/5/6 8/14/6 7/12/6 5/10/6
