# Blender 3.1.2
# www.blender.org
mtllib newpegboard.mtl
o Cylinder.019
v -1.302942 2.894428 1.965807
v -1.963981 2.884305 1.965807
v -1.302663 2.876205 1.964012
v -1.963702 2.866082 1.964012
v -1.302395 2.858682 1.958696
v -1.963433 2.848559 1.958696
v -1.302148 2.842533 1.950062
v -1.963186 2.832410 1.950062
v -1.301931 2.828378 1.938444
v -1.962969 2.818255 1.938444
v -1.301753 2.816761 1.924286
v -1.962791 2.806639 1.924286
v -1.301621 2.808130 1.908134
v -1.962659 2.798007 1.908134
v -1.301539 2.802814 1.890608
v -1.962578 2.792691 1.890608
v -1.301512 2.801019 1.872381
v -1.962550 2.790896 1.872381
v -1.301539 2.802814 1.854155
v -1.962578 2.792691 1.854155
v -1.301621 2.808130 1.836629
v -1.962659 2.798007 1.836629
v -1.301753 2.816761 1.820476
v -1.962791 2.806639 1.820476
v -1.301931 2.828378 1.806319
v -1.962969 2.818255 1.806319
v -1.302148 2.842533 1.794700
v -1.963186 2.832410 1.794700
v -1.302395 2.858682 1.786067
v -1.963433 2.848559 1.786067
v -1.302663 2.876205 1.780750
v -1.963702 2.866082 1.780750
v -1.302942 2.894428 1.778955
v -1.963981 2.884305 1.778955
v -1.303221 2.912651 1.780750
v -1.964260 2.902528 1.780750
v -1.303490 2.930174 1.786067
v -1.964528 2.920051 1.786067
v -1.303737 2.946323 1.794700
v -1.964775 2.936200 1.794700
v -1.303954 2.960478 1.806319
v -1.964992 2.950355 1.806319
v -1.304132 2.972094 1.820476
v -1.965170 2.961971 1.820476
v -1.304264 2.980726 1.836629
v -1.965302 2.970603 1.836629
v -1.304345 2.986042 1.854155
v -1.965384 2.975919 1.854155
v -1.304373 2.987836 1.872381
v -1.965411 2.977714 1.872381
v -1.304345 2.986042 1.890608
v -1.965384 2.975919 1.890608
v -1.304264 2.980726 1.908134
v -1.965302 2.970603 1.908134
v -1.304132 2.972094 1.924286
v -1.965170 2.961971 1.924286
v -1.303954 2.960478 1.938443
v -1.964992 2.950355 1.938443
v -1.303737 2.946323 1.950062
v -1.964775 2.936200 1.950062
v -1.303490 2.930174 1.958696
v -1.964528 2.920051 1.958696
v -1.303221 2.912651 1.964012
v -1.964260 2.902528 1.964012
vn 0.2573 0.0039 0.9663
vn -0.2573 -0.0039 0.9663
vn -0.2544 -0.1925 0.9478
vn 0.2601 -0.1846 0.9478
vn -0.2516 -0.3737 0.8928
vn 0.2629 -0.3658 0.8928
vn -0.2490 -0.5408 0.8035
vn 0.2655 -0.5329 0.8035
vn -0.2468 -0.6872 0.6833
vn 0.2677 -0.6793 0.6833
vn -0.2449 -0.8073 0.5368
vn 0.2695 -0.7995 0.5368
vn -0.2436 -0.8966 0.3698
vn 0.2709 -0.8887 0.3698
vn -0.2427 -0.9516 0.1885
vn 0.2718 -0.9437 0.1885
vn -0.2424 -0.9702 -0.0000
vn 0.2720 -0.9623 -0.0000
vn -0.2427 -0.9516 -0.1885
vn 0.2718 -0.9437 -0.1885
vn -0.2436 -0.8966 -0.3698
vn 0.2709 -0.8887 -0.3698
vn -0.2449 -0.8073 -0.5368
vn 0.2695 -0.7995 -0.5368
vn -0.2468 -0.6872 -0.6833
vn 0.2677 -0.6793 -0.6833
vn -0.2490 -0.5408 -0.8035
vn 0.2655 -0.5329 -0.8035
vn -0.2516 -0.3737 -0.8928
vn 0.2629 -0.3658 -0.8928
vn -0.2544 -0.1925 -0.9478
vn 0.2601 -0.1846 -0.9478
vn -0.2573 -0.0039 -0.9663
vn 0.2573 0.0039 -0.9663
vn -0.2601 0.1846 -0.9478
vn 0.2544 0.1925 -0.9478
vn -0.2629 0.3658 -0.8928
vn 0.2516 0.3737 -0.8928
vn -0.2655 0.5329 -0.8035
vn 0.2490 0.5408 -0.8035
vn -0.2677 0.6793 -0.6833
vn 0.2468 0.6872 -0.6833
vn -0.2695 0.7995 -0.5368
vn 0.2449 0.8073 -0.5368
vn -0.2709 0.8887 -0.3698
vn 0.2436 0.8966 -0.3698
vn -0.2718 0.9437 -0.1885
vn 0.2427 0.9516 -0.1885
vn -0.2720 0.9623 -0.0000
vn 0.2424 0.9702 -0.0000
vn -0.2718 0.9437 0.1885
vn 0.2427 0.9516 0.1885
vn -0.2709 0.8887 0.3698
vn 0.2436 0.8966 0.3698
vn -0.2695 0.7995 0.5368
vn 0.2449 0.8073 0.5368
vn -0.2677 0.6793 0.6833
vn 0.2468 0.6872 0.6833
vn -0.2655 0.5329 0.8035
vn 0.2490 0.5408 0.8035
vn -0.2629 0.3658 0.8928
vn 0.2516 0.3737 0.8928
vn -0.2601 0.1846 0.9478
vn 0.2544 0.1925 0.9478
vt 1.000000 0.500000
vt 0.000000 0.500000
vt 0.750000 0.490000
vt 1.000000 1.000000
vt 0.250000 0.490000
vt 0.000000 1.000000
vt 0.968750 0.500000
vt 0.796822 0.485388
vt 0.968750 1.000000
vt 0.296822 0.485388
vt 0.937500 0.500000
vt 0.841844 0.471731
vt 0.937500 1.000000
vt 0.341844 0.471731
vt 0.906250 0.500000
vt 0.883337 0.449553
vt 0.906250 1.000000
vt 0.383337 0.449553
vt 0.875000 0.500000
vt 0.919706 0.419706
vt 0.875000 1.000000
vt 0.419706 0.419706
vt 0.843750 0.500000
vt 0.949553 0.383337
vt 0.843750 1.000000
vt 0.449553 0.383337
vt 0.812500 0.500000
vt 0.971731 0.341844
vt 0.812500 1.000000
vt 0.471731 0.341844
vt 0.781250 0.500000
vt 0.985388 0.296822
vt 0.781250 1.000000
vt 0.485388 0.296822
vt 0.750000 0.500000
vt 0.990000 0.250000
vt 0.750000 1.000000
vt 0.490000 0.250000
vt 0.718750 0.500000
vt 0.985388 0.203178
vt 0.718750 1.000000
vt 0.485388 0.203178
vt 0.687500 0.500000
vt 0.971731 0.158156
vt 0.687500 1.000000
vt 0.471731 0.158156
vt 0.656250 0.500000
vt 0.949553 0.116663
vt 0.656250 1.000000
vt 0.449553 0.116663
vt 0.625000 0.500000
vt 0.919706 0.080294
vt 0.625000 1.000000
vt 0.419706 0.080294
vt 0.593750 0.500000
vt 0.883337 0.050447
vt 0.593750 1.000000
vt 0.383337 0.050447
vt 0.562500 0.500000
vt 0.841844 0.028269
vt 0.562500 1.000000
vt 0.341844 0.028269
vt 0.531250 0.500000
vt 0.796822 0.014612
vt 0.531250 1.000000
vt 0.296822 0.014612
vt 0.500000 0.500000
vt 0.750000 0.010000
vt 0.500000 1.000000
vt 0.250000 0.010000
vt 0.468750 0.500000
vt 0.703178 0.014612
vt 0.468750 1.000000
vt 0.203178 0.014612
vt 0.437500 0.500000
vt 0.658156 0.028269
vt 0.437500 1.000000
vt 0.158156 0.028269
vt 0.406250 0.500000
vt 0.616663 0.050447
vt 0.406250 1.000000
vt 0.116663 0.050447
vt 0.375000 0.500000
vt 0.580294 0.080294
vt 0.375000 1.000000
vt 0.080294 0.080294
vt 0.343750 0.500000
vt 0.550447 0.116663
vt 0.343750 1.000000
vt 0.050447 0.116663
vt 0.312500 0.500000
vt 0.528269 0.158156
vt 0.312500 1.000000
vt 0.028269 0.158156
vt 0.281250 0.500000
vt 0.514612 0.203178
vt 0.281250 1.000000
vt 0.014612 0.203178
vt 0.250000 0.500000
vt 0.510000 0.250000
vt 0.250000 1.000000
vt 0.010000 0.250000
vt 0.218750 0.500000
vt 0.514612 0.296822
vt 0.218750 1.000000
vt 0.014612 0.296822
vt 0.187500 0.500000
vt 0.528269 0.341844
vt 0.187500 1.000000
vt 0.028269 0.341844
vt 0.156250 0.500000
vt 0.550447 0.383337
vt 0.156250 1.000000
vt 0.050447 0.383337
vt 0.125000 0.500000
vt 0.580294 0.419706
vt 0.125000 1.000000
vt 0.080294 0.419706
vt 0.093750 0.500000
vt 0.616663 0.449553
vt 0.093750 1.000000
vt 0.116663 0.449553
vt 0.062500 0.500000
vt 0.658156 0.471731
vt 0.158156 0.471731
vt 0.062500 1.000000
vt 0.031250 0.500000
vt 0.703178 0.485388
vt 0.203178 0.485388
vt 0.031250 1.000000
s 1
f 1/1/1 2/4/2 4/9/3 3/7/4
f 3/7/4 4/9/3 6/13/5 5/11/6
f 5/11/6 6/13/5 8/17/7 7/15/8
f 7/15/8 8/17/7 10/21/9 9/19/10
f 9/19/10 10/21/9 12/25/11 11/23/12
f 11/23/12 12/25/11 14/29/13 13/27/14
f 13/27/14 14/29/13 16/33/15 15/31/16
f 15/31/16 16/33/15 18/37/17 17/35/18
f 17/35/18 18/37/17 20/41/19 19/39/20
f 19/39/20 20/41/19 22/45/21 21/43/22
f 21/43/22 22/45/21 24/49/23 23/47/24
f 23/47/24 24/49/23 26/53/25 25/51/26
f 25/51/26 26/53/25 28/57/27 27/55/28
f 27/55/28 28/57/27 30/61/29 29/59/30
f 29/59/30 30/61/29 32/65/31 31/63/32
f 31/63/32 32/65/31 34/69/33 33/67/34
f 33/67/34 34/69/33 36/73/35 35/71/36
f 35/71/36 36/73/35 38/77/37 37/75/38
f 37/75/38 38/77/37 40/81/39 39/79/40
f 39/79/40 40/81/39 42/85/41 41/83/42
f 41/83/42 42/85/41 44/89/43 43/87/44
f 43/87/44 44/89/43 46/93/45 45/91/46
f 45/91/46 46/93/45 48/97/47 47/95/48
f 47/95/48 48/97/47 50/101/49 49/99/50
f 49/99/50 50/101/49 52/105/51 51/103/52
f 51/103/52 52/105/51 54/109/53 53/107/54
f 53/107/54 54/109/53 56/113/55 55/111/56
f 55/111/56 56/113/55 58/117/57 57/115/58
f 57/115/58 58/117/57 60/121/59 59/119/60
f 59/119/60 60/121/59 62/126/61 61/123/62
f 4/10/3 2/5/2 64/129/63 62/125/61 60/122/59 58/118/57 56/114/55 54/110/53 52/106/51 50/102/49 48/98/47 46/94/45 44/90/43 42/86/41 40/82/39 38/78/37 36/74/35 34/70/33 32/66/31 30/62/29 28/58/27 26/54/25 24/50/23 22/46/21 20/42/19 18/38/17 16/34/15 14/30/13 12/26/11 10/22/9 8/18/7 6/14/5
f 61/123/62 62/126/61 64/130/63 63/127/64
f 63/127/64 64/130/63 2/6/2 1/2/1
f 1/3/1 3/8/4 5/12/6 7/16/8 9/20/10 11/24/12 13/28/14 15/32/16 17/36/18 19/40/20 21/44/22 23/48/24 25/52/26 27/56/28 29/60/30 31/64/32 33/68/34 35/72/36 37/76/38 39/80/40 41/84/42 43/88/44 45/92/46 47/96/48 49/100/50 51/104/52 53/108/54 55/112/56 57/116/58 59/120/60 61/124/62 63/128/64
