# Blender v2.91.0 OBJ File: ''
# www.blender.org
o Needle_40mm_col.001
v 0.000000 -0.020000 0.000000
v -0.004258 -0.020032 0.000000
v -0.004229 -0.019895 -0.000339
v -0.004158 -0.019563 -0.000480
v -0.004088 -0.019231 -0.000339
v -0.004058 -0.019093 0.000000
v -0.004088 -0.019231 0.000339
v -0.004158 -0.019563 0.000480
v -0.004229 -0.019895 0.000339
v -0.008379 -0.018819 0.000000
v -0.008307 -0.018658 -0.000424
v -0.008135 -0.018271 -0.000600
v -0.007891 -0.017723 0.000000
v -0.008135 -0.018271 0.000600
v -0.008307 -0.018658 0.000424
v -0.012108 -0.016666 0.000000
v -0.012005 -0.016524 -0.000424
v -0.011756 -0.016180 -0.000600
v -0.007962 -0.017883 -0.000424
v -0.011506 -0.015837 -0.000424
v -0.011403 -0.015695 0.000000
v -0.007962 -0.017883 0.000424
v -0.011756 -0.016180 0.000600
v -0.012005 -0.016524 0.000424
v -0.015178 -0.013666 -0.000424
v -0.014863 -0.013383 -0.000600
v -0.014417 -0.012981 0.000000
v -0.011506 -0.015837 0.000424
v -0.014863 -0.013383 0.000600
v -0.015178 -0.013666 0.000424
v -0.017840 -0.010300 0.000000
v -0.015309 -0.013784 0.000000
v -0.017688 -0.010212 -0.000424
v -0.017321 -0.010000 -0.000600
v -0.014548 -0.013099 -0.000424
v -0.016801 -0.009700 0.000000
v -0.014548 -0.013099 0.000424
v -0.017321 -0.010000 0.000600
v -0.017688 -0.010212 0.000424
v -0.019592 -0.006366 0.000000
v -0.019425 -0.006311 -0.000424
v -0.019021 -0.006180 -0.000600
v -0.016953 -0.009788 -0.000424
v -0.018618 -0.006049 -0.000424
v -0.018618 -0.006049 0.000424
v -0.016953 -0.009788 0.000424
v -0.019021 -0.006180 0.000600
v -0.020487 -0.002153 0.000000
v -0.019890 -0.002091 -0.000600
v -0.019468 -0.002046 -0.000424
v -0.018450 -0.005995 0.000000
v -0.019468 -0.002046 0.000424
v -0.019890 -0.002091 0.000600
v -0.019425 -0.006311 0.000424
v -0.020312 -0.002135 0.000424
v -0.020312 0.002135 -0.000424
v -0.020312 -0.002135 -0.000424
v -0.019890 0.002091 -0.000600
v -0.019468 0.002046 -0.000424
v -0.019294 -0.002028 0.000000
v -0.019294 0.002028 0.000000
v -0.019468 0.002046 0.000424
v -0.020312 0.002135 0.000424
v -0.019592 0.006366 0.000000
v -0.020487 0.002153 0.000000
v -0.019425 0.006311 -0.000424
v -0.019021 0.006180 -0.000600
v -0.018450 0.005995 0.000000
v -0.019021 0.006180 0.000600
v -0.019890 0.002091 0.000600
v -0.019425 0.006311 0.000424
v -0.017840 0.010300 0.000000
v -0.017321 0.010000 -0.000600
v -0.016953 0.009788 -0.000424
v -0.018618 0.006049 -0.000424
v -0.016801 0.009700 0.000000
v -0.018618 0.006049 0.000424
v -0.016953 0.009788 0.000424
v -0.017321 0.010000 0.000600
v -0.017688 0.010212 0.000424
v -0.015309 0.013784 0.000000
v -0.017688 0.010212 -0.000424
v -0.015178 0.013667 -0.000424
v -0.014863 0.013383 -0.000600
v -0.014548 0.013099 -0.000424
v -0.014548 0.013099 0.000424
v -0.015178 0.013667 0.000424
v -0.012005 0.016524 -0.000424
v -0.011756 0.016180 -0.000600
v -0.011506 0.015837 -0.000424
v -0.014417 0.012981 0.000000
v -0.011403 0.015695 0.000000
v -0.011506 0.015837 0.000424
v -0.014863 0.013383 0.000600
v -0.012005 0.016524 0.000424
v -0.008379 0.018819 0.000000
v -0.012108 0.016666 0.000000
v -0.008307 0.018658 -0.000424
v -0.008135 0.018271 -0.000600
v -0.007962 0.017883 -0.000424
v -0.007962 0.017883 0.000424
v -0.011756 0.016180 0.000600
v -0.008135 0.018271 0.000600
v -0.004283 0.020150 0.000000
v -0.004246 0.019978 -0.000424
v -0.004070 0.019148 -0.000424
v -0.004033 0.018976 0.000000
v -0.007891 0.017723 0.000000
v -0.004158 0.019563 0.000600
v -0.008307 0.018658 0.000424
v -0.004246 0.019978 0.000424
v 0.000000 0.020424 -0.000424
v -0.004158 0.019563 -0.000600
v 0.000000 0.020000 -0.000600
v 0.000000 0.019576 -0.000424
v 0.000000 0.019400 0.000000
v -0.004070 0.019148 0.000424
v 0.000000 0.020000 0.000600
v 0.000000 0.020600 0.000000
v 0.000000 0.020424 0.000424
v 0.000000 0.019576 0.000424
vt 0.500000 0.500000
vt 0.533333 0.500000
vt 0.533333 0.625000
vt 0.500000 0.625000
vt 0.533333 0.750000
vt 0.500000 0.750000
vt 0.533333 0.875000
vt 0.500000 0.875000
vt 0.533333 1.000000
vt 0.500000 0.000000
vt 0.533333 0.000000
vt 0.533333 0.125000
vt 0.500000 0.125000
vt 0.533333 0.250000
vt 0.500000 0.250000
vt 0.533333 0.375000
vt 0.500000 0.375000
vt 0.566667 0.500000
vt 0.566667 0.625000
vt 0.566667 0.750000
vt 0.566667 1.000000
vt 0.566667 0.000000
vt 0.566667 0.250000
vt 0.566667 0.375000
vt 0.600000 0.500000
vt 0.600000 0.625000
vt 0.600000 0.750000
vt 0.566667 0.875000
vt 0.600000 0.875000
vt 0.600000 0.000000
vt 0.566667 0.125000
vt 0.600000 0.250000
vt 0.600000 0.375000
vt 0.633333 0.625000
vt 0.633333 0.750000
vt 0.633333 1.000000
vt 0.600000 1.000000
vt 0.633333 0.000000
vt 0.600000 0.125000
vt 0.633333 0.250000
vt 0.633333 0.375000
vt 0.666667 0.500000
vt 0.633333 0.500000
vt 0.666667 0.625000
vt 0.666667 0.750000
vt 0.633333 0.875000
vt 0.666667 1.000000
vt 0.666667 0.000000
vt 0.633333 0.125000
vt 0.666667 0.250000
vt 0.666667 0.375000
vt 0.700000 0.500000
vt 0.700000 0.625000
vt 0.700000 0.750000
vt 0.666667 0.875000
vt 0.700000 0.875000
vt 0.700000 0.125000
vt 0.666667 0.125000
vt 0.700000 0.250000
vt 0.733333 0.500000
vt 0.733333 0.750000
vt 0.733333 0.875000
vt 0.700000 1.000000
vt 0.700000 0.000000
vt 0.733333 0.125000
vt 0.733333 0.250000
vt 0.700000 0.375000
vt 0.733333 0.375000
vt 0.766667 0.625000
vt 0.733333 0.625000
vt 0.766667 0.750000
vt 0.766667 0.875000
vt 0.733333 1.000000
vt 0.766667 0.000000
vt 0.733333 0.000000
vt 0.766667 0.125000
vt 0.766667 0.375000
vt 0.800000 0.500000
vt 0.766667 0.500000
vt 0.800000 0.625000
vt 0.800000 0.750000
vt 0.800000 1.000000
vt 0.766667 1.000000
vt 0.800000 0.000000
vt 0.800000 0.250000
vt 0.766667 0.250000
vt 0.800000 0.375000
vt 0.833333 0.500000
vt 0.833333 0.750000
vt 0.833333 0.875000
vt 0.800000 0.875000
vt 0.833333 0.000000
vt 0.800000 0.125000
vt 0.833333 0.125000
vt 0.833333 0.250000
vt 0.833333 0.375000
vt 0.866667 0.500000
vt 0.833333 0.625000
vt 0.866667 0.625000
vt 0.866667 0.750000
vt 0.866667 0.875000
vt 0.833333 1.000000
vt 0.866667 0.125000
vt 0.866667 0.375000
vt 0.900000 0.625000
vt 0.900000 0.750000
vt 0.900000 0.875000
vt 0.866667 1.000000
vt 0.900000 0.000000
vt 0.866667 0.000000
vt 0.900000 0.125000
vt 0.866667 0.250000
vt 0.900000 0.375000
vt 0.933333 0.500000
vt 0.900000 0.500000
vt 0.933333 0.625000
vt 0.933333 0.750000
vt 0.933333 0.875000
vt 0.900000 1.000000
vt 0.933333 0.125000
vt 0.900000 0.250000
vt 0.933333 0.250000
vt 0.966667 0.500000
vt 0.966667 0.625000
vt 0.966667 0.875000
vt 0.966667 1.000000
vt 0.933333 1.000000
vt 0.966667 0.000000
vt 0.933333 0.000000
vt 0.966667 0.250000
vt 0.933333 0.375000
vt 0.966667 0.375000
vt 1.000000 0.625000
vt 0.966667 0.750000
vt 1.000000 0.750000
vt 1.000000 0.875000
vt 1.000000 0.000000
vt 0.966667 0.125000
vt 1.000000 0.250000
vt 1.000000 0.500000
vt 0.000000 0.000000
vt 0.000000 0.000000
vt 0.000000 0.000000
vt 0.000000 0.000000
vt 0.000000 0.000000
vt 0.000000 0.000000
vt 0.000000 0.000000
vt 0.000000 0.000000
vt 1.000000 1.000000
vt 1.000000 0.125000
vt 1.000000 0.375000
vn 0.0071 -0.9270 -0.3749
vn 0.0634 -0.4006 -0.9141
vn 0.1442 0.3597 -0.9219
vn 0.1445 0.3597 -0.9218
vn 0.1441 0.3572 -0.9228
vn 0.2014 0.9017 -0.3827
vn 0.2014 0.9017 0.3827
vn 0.1442 0.3597 0.9219
vn 0.1441 0.3572 0.9228
vn 0.1445 0.3597 0.9218
vn 0.0634 -0.4006 0.9141
vn 0.0071 -0.9270 0.3749
vn -0.2612 -0.8873 -0.3801
vn -0.2611 -0.8870 -0.3808
vn -0.2611 -0.8866 -0.3818
vn -0.0937 -0.3729 -0.9232
vn -0.0940 -0.3751 -0.9222
vn -0.0934 -0.3713 -0.9238
vn 0.1444 0.3584 -0.9223
vn 0.3114 0.8708 -0.3804
vn 0.3113 0.8707 -0.3808
vn 0.3115 0.8710 -0.3798
vn 0.3113 0.8707 0.3808
vn 0.3114 0.8708 0.3803
vn 0.3115 0.8711 0.3797
vn 0.1444 0.3583 0.9224
vn -0.0940 -0.3751 0.9222
vn -0.0937 -0.3729 0.9232
vn -0.0935 -0.3715 0.9237
vn -0.2611 -0.8870 0.3808
vn -0.2612 -0.8873 0.3801
vn -0.2611 -0.8866 0.3818
vn -0.4622 -0.8009 -0.3807
vn -0.4623 -0.8007 -0.3809
vn -0.1924 -0.3331 -0.9231
vn -0.1922 -0.3330 -0.9231
vn -0.1922 -0.3331 -0.9231
vn 0.1924 0.3333 -0.9230
vn 0.1923 0.3330 -0.9231
vn 0.4624 0.8008 -0.3808
vn 0.4623 0.8007 -0.3809
vn 0.4623 0.8007 -0.3810
vn 0.4623 0.8008 0.3808
vn 0.4623 0.8007 0.3809
vn 0.4623 0.8007 0.3810
vn 0.1923 0.3330 0.9231
vn 0.1924 0.3333 0.9230
vn -0.1922 -0.3330 0.9231
vn -0.1924 -0.3331 0.9231
vn -0.1923 -0.3331 0.9231
vn -0.4624 -0.8008 0.3807
vn -0.4623 -0.8007 0.3809
vn -0.6187 -0.6871 -0.3809
vn -0.2573 -0.2858 -0.9231
vn -0.2572 -0.2856 -0.9232
vn -0.2573 -0.2857 -0.9232
vn 0.2574 0.2858 -0.9231
vn 0.2575 0.2860 -0.9230
vn 0.2572 0.2856 -0.9232
vn 0.6187 0.6871 -0.3809
vn 0.6187 0.6871 -0.3808
vn 0.6187 0.6871 0.3809
vn 0.6187 0.6871 0.3811
vn 0.2572 0.2856 0.9232
vn 0.2574 0.2858 0.9231
vn 0.2572 0.2855 0.9232
vn -0.2573 -0.2857 0.9231
vn -0.2573 -0.2856 0.9232
vn -0.6187 -0.6871 0.3809
vn -0.6186 -0.6871 0.3810
vn -0.7479 -0.5435 -0.3810
vn -0.7480 -0.5435 -0.3810
vn -0.3110 -0.2260 -0.9231
vn -0.3111 -0.2260 -0.9231
vn 0.3109 0.2259 -0.9232
vn 0.3113 0.2262 -0.9230
vn 0.3110 0.2259 -0.9232
vn 0.7480 0.5435 -0.3810
vn 0.7480 0.5434 -0.3810
vn 0.7480 0.5434 0.3810
vn 0.7480 0.5435 0.3810
vn 0.3111 0.2260 0.9231
vn 0.3109 0.2259 0.9232
vn -0.3111 -0.2260 0.9231
vn -0.3110 -0.2260 0.9232
vn -0.7480 -0.5434 0.3810
vn -0.7480 -0.5435 0.3809
vn -0.7480 -0.5435 0.3810
vn -0.8447 -0.3761 -0.3809
vn -0.8446 -0.3762 -0.3809
vn -0.8447 -0.3762 -0.3809
vn -0.3515 -0.1564 -0.9230
vn -0.3512 -0.1564 -0.9232
vn -0.3514 -0.1565 -0.9230
vn 0.3513 0.1565 -0.9231
vn 0.3514 0.1564 -0.9231
vn 0.8447 0.3761 -0.3809
vn 0.8446 0.3761 -0.3810
vn 0.8446 0.3761 0.3810
vn 0.8447 0.3761 0.3809
vn 0.3514 0.1564 0.9231
vn 0.3513 0.1564 0.9231
vn -0.3514 -0.1565 0.9230
vn -0.3513 -0.1564 0.9231
vn -0.3514 -0.1565 0.9231
vn -0.8446 -0.3762 0.3809
vn -0.8446 -0.3761 0.3810
vn -0.8447 -0.3762 0.3809
vn -0.9044 -0.1922 -0.3810
vn -0.9043 -0.1921 -0.3811
vn -0.3762 -0.0800 -0.9231
vn -0.3762 -0.0799 -0.9231
vn 0.3762 0.0799 -0.9231
vn 0.3765 0.0800 -0.9230
vn 0.9044 0.1922 -0.3809
vn 0.9044 0.1922 -0.3808
vn 0.9044 0.1922 0.3809
vn 0.9045 0.1922 0.3808
vn 0.3762 0.0799 0.9231
vn 0.3761 0.0799 0.9231
vn -0.3762 -0.0799 0.9231
vn -0.3760 -0.0798 0.9232
vn -0.3762 -0.0800 0.9231
vn -0.9044 -0.1922 0.3809
vn -0.9043 -0.1921 0.3811
vn -0.9044 -0.1921 0.3811
vn -0.9246 0.0000 -0.3809
vn -0.9245 0.0000 -0.3811
vn -0.3849 0.0000 -0.9229
vn 0.3845 0.0000 -0.9231
vn 0.3846 -0.0000 -0.9231
vn 0.9246 -0.0000 -0.3809
vn 0.9246 -0.0000 0.3809
vn 0.3845 0.0000 0.9231
vn 0.3846 -0.0000 0.9231
vn -0.3846 0.0000 0.9231
vn -0.3845 -0.0000 0.9231
vn -0.9246 0.0000 0.3810
vn -0.9246 -0.0000 0.3809
vn -0.9044 0.1922 -0.3808
vn -0.9042 0.1921 -0.3814
vn -0.3762 0.0800 -0.9231
vn -0.3762 0.0799 -0.9231
vn -0.3761 0.0799 -0.9231
vn 0.3762 -0.0799 -0.9231
vn 0.3765 -0.0800 -0.9230
vn 0.3761 -0.0799 -0.9231
vn 0.9044 -0.1922 -0.3809
vn 0.9044 -0.1922 0.3809
vn 0.9045 -0.1922 0.3808
vn 0.3762 -0.0799 0.9231
vn 0.3761 -0.0799 0.9231
vn 0.3764 -0.0800 0.9230
vn -0.3762 0.0799 0.9231
vn -0.3761 0.0799 0.9231
vn -0.3763 0.0799 0.9231
vn -0.9043 0.1921 0.3811
vn -0.9044 0.1922 0.3808
vn -0.9044 0.1922 0.3809
vn -0.8447 0.3761 -0.3809
vn -0.8447 0.3761 -0.3808
vn -0.3515 0.1564 -0.9230
vn -0.3512 0.1564 -0.9232
vn -0.3514 0.1564 -0.9231
vn 0.3513 -0.1565 -0.9231
vn 0.3514 -0.1564 -0.9231
vn 0.3513 -0.1564 -0.9231
vn 0.8447 -0.3760 -0.3810
vn 0.8447 -0.3761 -0.3809
vn 0.8446 -0.3761 0.3810
vn 0.8447 -0.3761 0.3809
vn 0.3514 -0.1564 0.9231
vn 0.3513 -0.1564 0.9231
vn -0.3513 0.1564 0.9231
vn -0.3515 0.1564 0.9230
vn -0.3514 0.1564 0.9231
vn -0.8446 0.3762 0.3809
vn -0.8446 0.3761 0.3810
vn -0.8447 0.3761 0.3808
vn -0.7480 0.5434 -0.3810
vn -0.3109 0.2259 -0.9232
vn -0.3111 0.2260 -0.9231
vn -0.3110 0.2260 -0.9232
vn 0.3110 -0.2260 -0.9231
vn 0.3112 -0.2261 -0.9230
vn 0.3110 -0.2259 -0.9232
vn 0.7480 -0.5435 -0.3810
vn 0.7480 -0.5434 -0.3810
vn 0.7481 -0.5434 -0.3810
vn 0.7480 -0.5434 0.3810
vn 0.7480 -0.5435 0.3810
vn 0.7481 -0.5434 0.3810
vn 0.3110 -0.2260 0.9231
vn 0.3108 -0.2259 0.9232
vn 0.3109 -0.2260 0.9232
vn -0.3111 0.2260 0.9231
vn -0.3110 0.2260 0.9231
vn -0.7480 0.5434 0.3810
vn -0.6187 0.6872 -0.3808
vn -0.6187 0.6871 -0.3808
vn -0.2573 0.2857 -0.9231
vn -0.2574 0.2858 -0.9231
vn 0.2574 -0.2860 -0.9230
vn 0.2573 -0.2857 -0.9232
vn 0.2574 -0.2858 -0.9231
vn 0.6187 -0.6871 -0.3809
vn 0.6187 -0.6871 -0.3810
vn 0.6187 -0.6870 0.3810
vn 0.6187 -0.6871 0.3808
vn 0.6187 -0.6871 0.3809
vn 0.2572 -0.2856 0.9232
vn 0.2574 -0.2858 0.9231
vn 0.2573 -0.2857 0.9231
vn -0.2573 0.2857 0.9231
vn -0.2572 0.2855 0.9232
vn -0.2574 0.2858 0.9231
vn -0.6187 0.6871 0.3809
vn -0.6187 0.6872 0.3808
vn -0.4623 0.8008 -0.3808
vn -0.4623 0.8007 -0.3810
vn -0.1922 0.3330 -0.9231
vn -0.1923 0.3332 -0.9231
vn -0.1922 0.3331 -0.9231
vn 0.1923 -0.3330 -0.9231
vn 0.1922 -0.3331 -0.9231
vn 0.1922 -0.3330 -0.9231
vn 0.4623 -0.8007 -0.3809
vn 0.4624 -0.8009 -0.3805
vn 0.4623 -0.8008 0.3808
vn 0.4623 -0.8007 0.3809
vn 0.4624 -0.8009 0.3805
vn 0.1923 -0.3330 0.9231
vn 0.1924 -0.3333 0.9230
vn 0.1923 -0.3331 0.9231
vn -0.1922 0.3330 0.9231
vn -0.1924 0.3331 0.9231
vn -0.1923 0.3331 0.9231
vn -0.4624 0.8008 0.3807
vn -0.4623 0.8007 0.3809
vn -0.4623 0.8007 0.3810
vn -0.2857 0.8794 -0.3808
vn -0.2857 0.8794 -0.3809
vn -0.1188 0.3658 -0.9231
vn -0.1188 0.3657 -0.9231
vn 0.1189 -0.3658 -0.9231
vn 0.1188 -0.3656 -0.9232
vn 0.1189 -0.3657 -0.9231
vn 0.2857 -0.8794 -0.3809
vn 0.2857 -0.8794 -0.3808
vn 0.2857 -0.8794 0.3808
vn 0.2857 -0.8794 0.3809
vn 0.1188 -0.3658 0.9231
vn 0.1188 -0.3657 0.9231
vn -0.1188 0.3658 0.9231
vn -0.1188 0.3657 0.9231
vn -0.2857 0.8794 0.3809
vn -0.0966 0.9196 -0.3809
vn -0.0966 0.9195 -0.3809
vn -0.0402 0.3825 -0.9231
vn -0.0402 0.3829 -0.9229
vn -0.0402 0.3824 -0.9231
vn 0.0402 -0.3827 -0.9230
vn 0.0402 -0.3829 -0.9229
vn 0.0966 -0.9196 -0.3808
vn 0.0966 -0.9196 -0.3809
vn 0.0966 -0.9196 0.3809
vn 0.0966 -0.9196 0.3808
vn 0.0402 -0.3829 0.9229
vn 0.0402 -0.3827 0.9230
vn 0.0402 -0.3826 0.9231
vn -0.0402 0.3826 0.9230
vn -0.0402 0.3829 0.9229
vn -0.0402 0.3826 0.9231
vn -0.0966 0.9195 0.3809
vn -0.0966 0.9195 0.3810
vn -0.0966 0.9196 0.3808
vn 1.0000 0.0000 0.0000
vn -0.2611 -0.8875 -0.3798
vn -0.0943 -0.3760 -0.9218
vn 0.1438 0.3549 -0.9238
vn 0.3111 0.8703 -0.3817
vn 0.3111 0.8703 0.3818
vn 0.1438 0.3549 0.9238
vn -0.0943 -0.3760 0.9218
vn -0.2611 -0.8874 0.3798
vn -0.1923 -0.3331 -0.9231
vn 0.1923 0.3331 -0.9231
vn 0.4624 0.8009 0.3805
vn 0.1923 0.3331 0.9231
vn -0.4623 -0.8007 0.3810
vn -0.6187 -0.6871 -0.3808
vn -0.2573 -0.2856 -0.9232
vn 0.2573 0.2857 -0.9231
vn 0.6187 0.6871 -0.3810
vn 0.2573 0.2857 0.9231
vn -0.2573 -0.2857 0.9232
vn -0.7480 -0.5435 -0.3809
vn 0.3112 0.2261 -0.9231
vn 0.7481 0.5434 -0.3810
vn 0.7481 0.5434 0.3810
vn 0.3110 0.2259 0.9232
vn -0.8447 -0.3761 -0.3808
vn -0.3514 -0.1564 -0.9231
vn 0.3513 0.1564 -0.9231
vn 0.8447 0.3761 -0.3808
vn -0.8447 -0.3761 0.3808
vn -0.9044 -0.1922 -0.3811
vn -0.3761 -0.0799 -0.9231
vn 0.3761 0.0799 -0.9231
vn 0.3764 0.0800 0.9230
vn -0.3763 -0.0799 0.9231
vn -0.3846 -0.0000 -0.9231
vn 0.3844 0.0000 0.9232
vn -0.3849 0.0000 0.9229
vn -0.9044 0.1921 -0.3811
vn 0.9044 -0.1922 -0.3808
vn -0.3759 0.0799 0.9232
vn -0.3514 0.1565 -0.9230
vn 0.8445 -0.3764 -0.3810
vn -0.3513 0.1565 0.9231
vn -0.8447 0.3762 0.3809
vn -0.7480 0.5434 -0.3811
vn 0.3110 -0.2260 -0.9232
vn 0.3111 -0.2260 0.9231
vn -0.3110 0.2259 0.9232
vn -0.7480 0.5434 0.3811
vn -0.6187 0.6871 -0.3809
vn -0.2573 0.2856 -0.9232
vn 0.2573 -0.2856 -0.9232
vn 0.6187 -0.6871 -0.3808
vn 0.2572 -0.2855 0.9232
vn -0.2573 0.2856 0.9232
vn -0.6187 0.6871 0.3808
vn -0.4623 0.8007 -0.3809
vn 0.4623 -0.8007 0.3810
vn -0.1188 0.3656 -0.9232
vn 0.2857 -0.8793 0.3811
vn -0.0966 0.9196 -0.3808
vn -0.0402 0.3826 -0.9230
vn 0.0402 -0.3825 -0.9231
vn 0.0966 -0.9195 0.3810
vn 0.0402 -0.3825 0.9231
vn -0.0402 0.3831 0.9228
vn -0.0966 0.9196 0.3809
s 1
f 1/1/1 2/2/1 3/3/1
f 1/4/2 3/3/2 4/5/2
f 1/6/3 4/5/4 5/7/5
f 1/8/6 5/7/6 6/9/6
f 1/10/7 6/11/7 7/12/7
f 1/13/8 7/12/9 8/14/10
f 1/15/11 8/14/11 9/16/11
f 1/17/12 9/16/12 2/2/12
f 10/18/13 3/3/14 2/2/15
f 11/19/16 4/5/17 3/3/18
f 12/20/19 5/7/5 4/5/4
f 5/7/20 13/21/21 6/9/22
f 13/22/23 7/12/24 6/11/25
f 7/12/9 14/23/26 8/14/10
f 8/14/27 15/24/28 9/16/29
f 9/16/30 10/18/31 2/2/32
f 16/25/33 11/19/34 10/18/34
f 17/26/35 12/20/36 11/19/37
f 18/27/38 19/28/39 12/20/39
f 20/29/40 13/21/41 19/28/42
f 21/30/43 22/31/44 13/22/45
f 22/31/46 23/32/47 14/23/46
f 14/23/48 24/33/49 15/24/50
f 24/33/51 10/18/52 15/24/52
f 16/25/53 25/34/53 17/26/53
f 25/34/54 18/27/55 17/26/56
f 26/35/57 20/29/58 18/27/59
f 20/29/60 27/36/60 21/37/61
f 27/38/62 28/39/63 21/30/62
f 28/39/64 29/40/65 23/32/66
f 29/40/67 24/33/67 23/32/68
f 30/41/69 16/25/70 24/33/69
f 31/42/71 25/34/72 32/43/72
f 33/44/73 26/35/73 25/34/74
f 34/45/75 35/46/76 26/35/77
f 35/46/78 36/47/79 27/36/78
f 36/48/80 37/49/81 27/38/81
f 37/49/82 38/50/83 29/40/82
f 29/40/84 39/51/85 30/41/84
f 39/51/86 32/43/87 30/41/88
f 40/52/89 33/44/90 31/42/91
f 41/53/92 34/45/93 33/44/94
f 42/54/95 43/55/96 34/45/96
f 44/56/97 36/47/98 43/55/97
f 36/48/99 45/57/100 46/58/100
f 46/58/101 47/59/102 38/50/101
f 47/59/103 39/51/104 38/50/105
f 39/51/106 40/52/107 31/42/108
f 48/60/109 41/53/110 40/52/110
f 41/53/111 49/61/112 42/54/111
f 42/54/113 50/62/114 44/56/113
f 50/62/115 51/63/115 44/56/116
f 51/64/117 52/65/118 45/57/117
f 52/65/119 47/59/120 45/57/119
f 53/66/121 54/67/122 47/59/123
f 55/68/124 40/52/125 54/67/126
f 48/60/127 56/69/128 57/70/127
f 56/69/129 49/61/129 57/70/129
f 58/71/130 50/62/130 49/61/131
f 59/72/132 60/73/132 50/62/132
f 61/74/133 52/65/133 60/75/133
f 62/76/134 53/66/134 52/65/135
f 53/66/136 63/77/136 55/68/137
f 63/77/138 48/60/138 55/68/139
f 64/78/140 56/69/140 65/79/141
f 66/80/142 58/71/143 56/69/144
f 67/81/145 59/72/146 58/71/147
f 59/72/148 68/82/148 61/83/148
f 68/84/149 62/76/150 61/74/149
f 62/76/151 69/85/152 70/86/153
f 69/85/154 63/77/155 70/86/156
f 71/87/157 65/79/158 63/77/159
f 72/88/160 66/80/161 64/78/160
f 66/80/162 73/89/163 67/81/164
f 67/81/165 74/90/166 75/91/167
f 74/90/168 68/82/169 75/91/169
f 76/92/170 77/93/171 68/84/171
f 78/94/172 69/85/173 77/93/173
f 79/95/174 71/87/175 69/85/176
f 80/96/177 64/78/178 71/87/179
f 81/97/180 82/98/180 72/88/180
f 83/99/181 73/89/182 82/98/183
f 84/100/184 74/90/185 73/89/186
f 85/101/187 76/102/188 74/90/189
f 76/92/190 86/103/191 78/94/192
f 86/103/193 79/95/194 78/94/195
f 79/95/196 87/104/196 80/96/197
f 87/104/198 72/88/198 80/96/198
f 81/97/199 88/105/200 83/99/199
f 88/105/201 84/100/202 83/99/201
f 89/106/203 85/101/204 84/100/205
f 90/107/206 91/108/206 85/101/207
f 92/109/208 86/103/209 91/110/210
f 93/111/211 94/112/212 86/103/213
f 94/112/214 95/113/215 87/104/216
f 95/113/217 81/97/218 87/104/218
f 96/114/219 88/105/220 97/115/220
f 98/116/221 89/106/222 88/105/223
f 99/117/224 90/107/225 89/106/226
f 100/118/227 92/119/227 90/107/228
f 92/109/229 101/120/230 93/111/231
f 101/120/232 102/121/233 93/111/234
f 103/122/235 95/113/236 102/121/237
f 95/113/238 96/114/239 97/115/240
f 104/123/241 98/116/242 96/114/241
f 105/124/243 99/117/244 98/116/244
f 99/117/245 106/125/246 100/118/247
f 100/118/248 107/126/249 108/127/248
f 107/128/250 101/120/250 108/129/251
f 101/120/252 109/130/253 103/122/253
f 109/130/254 110/131/255 103/122/255
f 111/132/256 96/114/256 110/131/256
f 104/123/257 112/133/258 105/124/258
f 112/133/259 113/134/260 105/124/261
f 114/135/262 106/125/263 113/134/263
f 115/136/264 107/126/265 106/125/264
f 116/137/266 117/138/267 107/128/266
f 117/138/268 118/139/269 109/130/270
f 118/139/271 111/132/272 109/130/273
f 111/132/274 119/140/275 104/123/276
f 114/141/277 112/142/277 115/143/277
f 112/142/277 120/144/277 115/143/277
f 115/143/277 120/144/277 121/145/277
f 116/146/277 115/143/277 121/145/277
f 121/145/277 120/144/277 118/147/277
f 112/142/277 119/148/277 120/144/277
f 10/18/13 11/19/278 3/3/14
f 11/19/16 12/20/279 4/5/17
f 12/20/19 19/28/280 5/7/5
f 5/7/20 19/28/281 13/21/21
f 13/22/23 22/31/282 7/12/24
f 7/12/9 22/31/283 14/23/26
f 8/14/27 14/23/284 15/24/28
f 9/16/30 15/24/285 10/18/31
f 16/25/33 17/26/34 11/19/34
f 17/26/35 18/27/286 12/20/36
f 18/27/38 20/29/287 19/28/39
f 20/29/40 21/37/42 13/21/41
f 21/30/43 28/39/288 22/31/44
f 22/31/46 28/39/289 23/32/47
f 14/23/48 23/32/50 24/33/49
f 24/33/51 16/25/290 10/18/52
f 16/25/53 32/43/291 25/34/53
f 25/34/54 26/35/292 18/27/55
f 26/35/57 35/46/293 20/29/58
f 20/29/60 35/46/294 27/36/60
f 27/38/62 37/49/62 28/39/63
f 28/39/64 37/49/295 29/40/65
f 29/40/67 30/41/296 24/33/67
f 30/41/69 32/43/69 16/25/70
f 31/42/71 33/44/297 25/34/72
f 33/44/73 34/45/73 26/35/73
f 34/45/75 43/55/298 35/46/76
f 35/46/78 43/55/299 36/47/79
f 36/48/80 46/58/300 37/49/81
f 37/49/82 46/58/301 38/50/83
f 29/40/84 38/50/85 39/51/85
f 39/51/86 31/42/86 32/43/87
f 40/52/89 41/53/302 33/44/90
f 41/53/92 42/54/303 34/45/93
f 42/54/95 44/56/304 43/55/96
f 44/56/97 51/63/305 36/47/98
f 36/48/99 51/64/100 45/57/100
f 46/58/101 45/57/102 47/59/102
f 47/59/103 54/67/105 39/51/104
f 39/51/106 54/67/306 40/52/107
f 48/60/109 57/70/307 41/53/110
f 41/53/111 57/70/308 49/61/112
f 42/54/113 49/61/309 50/62/114
f 50/62/115 60/73/115 51/63/115
f 51/64/117 60/75/117 52/65/118
f 52/65/119 53/66/310 47/59/120
f 53/66/121 55/68/311 54/67/122
f 55/68/124 48/60/124 40/52/125
f 48/60/127 65/79/127 56/69/128
f 56/69/129 58/71/312 49/61/129
f 58/71/130 59/72/130 50/62/130
f 59/72/132 61/83/132 60/73/132
f 61/74/133 62/76/133 52/65/133
f 62/76/134 70/86/313 53/66/134
f 53/66/136 70/86/314 63/77/136
f 63/77/138 65/79/139 48/60/138
f 64/78/140 66/80/315 56/69/140
f 66/80/142 67/81/142 58/71/143
f 67/81/145 75/91/145 59/72/146
f 59/72/148 75/91/316 68/82/148
f 68/84/149 77/93/149 62/76/150
f 62/76/151 77/93/151 69/85/152
f 69/85/154 71/87/317 63/77/155
f 71/87/157 64/78/157 65/79/158
f 72/88/160 82/98/160 66/80/161
f 66/80/162 82/98/318 73/89/163
f 67/81/165 73/89/166 74/90/166
f 74/90/168 76/102/319 68/82/169
f 76/92/170 78/94/171 77/93/171
f 78/94/172 79/95/172 69/85/173
f 79/95/174 80/96/320 71/87/175
f 80/96/177 72/88/321 64/78/178
f 81/97/180 83/99/322 82/98/180
f 83/99/181 84/100/182 73/89/182
f 84/100/184 85/101/323 74/90/185
f 85/101/187 91/108/187 76/102/188
f 76/92/190 91/110/191 86/103/191
f 86/103/193 94/112/324 79/95/194
f 79/95/196 94/112/325 87/104/196
f 87/104/198 81/97/326 72/88/198
f 81/97/199 97/115/327 88/105/200
f 88/105/201 89/106/328 84/100/202
f 89/106/203 90/107/329 85/101/204
f 90/107/206 92/119/330 91/108/206
f 92/109/208 93/111/210 86/103/209
f 93/111/211 102/121/331 94/112/212
f 94/112/214 102/121/332 95/113/215
f 95/113/217 97/115/333 81/97/218
f 96/114/219 98/116/334 88/105/220
f 98/116/221 99/117/221 89/106/222
f 99/117/224 100/118/224 90/107/225
f 100/118/227 108/127/227 92/119/227
f 92/109/229 108/129/335 101/120/230
f 101/120/232 103/122/232 102/121/233
f 103/122/235 110/131/237 95/113/236
f 95/113/238 110/131/239 96/114/239
f 104/123/241 105/124/241 98/116/242
f 105/124/243 113/134/336 99/117/244
f 99/117/245 113/134/246 106/125/246
f 100/118/248 106/125/248 107/126/249
f 107/128/250 117/138/337 101/120/250
f 101/120/252 117/138/252 109/130/253
f 109/130/254 111/132/254 110/131/255
f 111/132/256 104/123/256 96/114/256
f 104/123/257 119/140/338 112/133/258
f 112/133/259 114/135/339 113/134/260
f 114/135/262 115/136/340 106/125/263
f 115/136/264 116/149/265 107/126/265
f 116/137/266 121/150/341 117/138/267
f 117/138/268 121/150/342 118/139/269
f 118/139/271 120/151/343 111/132/272
f 111/132/274 120/151/344 119/140/275
