# Blender v3.1.2 OBJ File: '14.blend'
# www.blender.org
mtllib n.mtl
o Cylinder014_网格.016
v 0.016415 -0.000238 -0.000287
v 0.015467 -0.000238 -0.005664
v 0.012737 -0.000238 -0.010393
v 0.008554 -0.000238 -0.013903
v 0.003422 -0.000238 -0.015771
v -0.002038 -0.000238 -0.015771
v -0.007169 -0.000238 -0.013903
v -0.011352 -0.000238 -0.010393
v -0.014083 -0.000238 -0.005664
v -0.015031 -0.000238 -0.000287
v -0.014083 -0.000238 0.005091
v -0.011352 -0.000238 0.009820
v -0.007169 -0.000238 0.013330
v -0.002038 -0.000238 0.015197
v 0.003422 -0.000238 0.015197
v 0.008554 -0.000238 0.013330
v 0.012737 -0.000238 0.009820
v 0.015467 -0.000238 0.005091
v 0.016415 0.004492 -0.000287
v 0.015467 0.004492 -0.005664
v 0.012737 0.004492 -0.010393
v 0.008554 0.004492 -0.013903
v 0.003422 0.004492 -0.015771
v -0.002038 0.004492 -0.015771
v -0.007169 0.004492 -0.013903
v -0.011352 0.004492 -0.010393
v -0.014083 0.004492 -0.005664
v -0.015031 0.004492 -0.000287
v -0.014083 0.004492 0.005091
v -0.011352 0.004492 0.009820
v -0.007169 0.004492 0.013330
v -0.002038 0.004492 0.015197
v 0.003422 0.004492 0.015197
v 0.008554 0.004492 0.013330
v 0.012737 0.004492 0.009820
v 0.015467 0.004492 0.005091
vt 0.861111 0.000000
vt 0.805556 0.000000
vt 0.750000 0.000000
vt 0.340035 0.000000
vt 0.195328 0.000000
vt 0.087369 0.000000
vt 0.029179 0.000000
vt 0.027778 0.000000
vt 0.083333 0.000000
vt 0.189144 0.000000
vt 0.332450 0.000000
vt 0.495964 0.000000
vt 0.659965 0.000000
vt 0.804672 0.000000
vt 0.912631 0.000000
vt 0.970820 0.000000
vt 0.972222 0.000000
vt 0.916667 0.000000
vt 0.805556 1.000000
vt 0.750000 1.000000
vt 0.861111 1.000000
vt 0.916667 1.000000
vt 0.972222 1.000000
vt 0.027778 1.000000
vt -0.027778 1.000000
vt -0.027778 0.000000
vt 0.027778 0.000000
vt 0.083333 1.000000
vt 0.083333 0.000000
vt 0.138889 1.000000
vt 0.138889 0.000000
vt 0.194444 1.000000
vt 0.194444 0.000000
vt 0.250000 1.000000
vt 0.250000 0.000000
vt 0.305556 1.000000
vt 0.305556 0.000000
vt 0.361111 1.000000
vt 0.361111 0.000000
vt 0.416667 1.000000
vt 0.416667 0.000000
vt 0.472222 1.000000
vt 0.472222 0.000000
vt 0.527778 1.000000
vt 0.527778 0.000000
vt 0.583333 1.000000
vt 0.583333 0.000000
vt 0.638889 1.000000
vt 0.638889 0.000000
vt 0.694444 1.000000
vt 0.694444 0.000000
vt 0.029179 1.000000
vt 0.087368 1.000000
vt 0.195327 1.000000
vt 0.970821 1.000000
vt 0.912631 1.000000
vt 0.804673 1.000000
vt 0.659966 1.000000
vt 0.495965 1.000000
vt 0.332450 1.000000
vt 0.189145 1.000000
vt 0.083333 1.000000
vt 0.027778 1.000000
vn -0.0000 -1.0000 0.0000
vn 0.9397 0.0000 -0.3420
vn 1.0000 0.0000 0.0000
vn 0.7660 0.0000 -0.6428
vn 0.5000 0.0000 -0.8660
vn 0.1736 0.0000 -0.9848
vn -0.1736 0.0000 -0.9848
vn -0.5000 0.0000 -0.8660
vn -0.7660 0.0000 -0.6428
vn -0.9397 0.0000 -0.3420
vn -1.0000 -0.0000 -0.0000
vn -0.9397 -0.0000 0.3420
vn -0.7660 0.0000 0.6428
vn -0.5000 0.0000 0.8660
vn -0.1736 0.0000 0.9848
vn 0.1736 0.0000 0.9848
vn 0.5000 0.0000 0.8660
vn 0.7660 0.0000 0.6428
vn 0.9397 0.0000 0.3420
vn 0.0000 1.0000 0.0000
usemtl Material_#25.008
s 1
f 3/1/1 2/2/1 1/3/1
f 1/3/1 18/4/1 17/5/1
f 17/5/1 16/6/1 15/7/1
f 1/3/1 17/5/1 15/7/1
f 3/1/1 1/3/1 15/7/1
f 15/7/1 14/8/1 13/9/1
f 13/9/1 12/10/1 11/11/1
f 15/7/1 13/9/1 11/11/1
f 3/1/1 15/7/1 11/11/1
f 11/11/1 10/12/1 9/13/1
f 9/13/1 8/14/1 7/15/1
f 11/11/1 9/13/1 7/15/1
f 3/1/1 11/11/1 7/15/1
f 7/15/1 6/16/1 5/17/1
f 3/1/1 7/15/1 5/17/1
f 3/1/1 5/17/1 4/18/1
f 20/19/2 19/20/3 1/3/3
f 1/3/3 2/2/2 20/19/2
f 21/21/4 20/19/2 2/2/2
f 2/2/2 3/1/4 21/21/4
f 22/22/5 21/21/4 3/1/4
f 3/1/4 4/18/5 22/22/5
f 23/23/6 22/22/5 4/18/5
f 4/18/5 5/17/6 23/23/6
f 24/24/7 23/25/6 5/26/6
f 5/26/6 6/27/7 24/24/7
f 25/28/8 24/24/7 6/27/7
f 6/27/7 7/29/8 25/28/8
f 26/30/9 25/28/8 7/29/8
f 7/29/8 8/31/9 26/30/9
f 27/32/10 26/30/9 8/31/9
f 8/31/9 9/33/10 27/32/10
f 28/34/11 27/32/10 9/33/10
f 9/33/10 10/35/11 28/34/11
f 29/36/12 28/34/11 10/35/11
f 10/35/11 11/37/12 29/36/12
f 30/38/13 29/36/12 11/37/12
f 11/37/12 12/39/13 30/38/13
f 31/40/14 30/38/13 12/39/13
f 12/39/13 13/41/14 31/40/14
f 32/42/15 31/40/14 13/41/14
f 13/41/14 14/43/15 32/42/15
f 33/44/16 32/42/15 14/43/15
f 14/43/15 15/45/16 33/44/16
f 34/46/17 33/44/16 15/45/16
f 15/45/16 16/47/17 34/46/17
f 35/48/18 34/46/17 16/47/17
f 16/47/17 17/49/18 35/48/18
f 36/50/19 35/48/18 17/49/18
f 17/49/18 18/51/19 36/50/19
f 19/20/3 36/50/19 18/51/19
f 18/51/19 1/3/3 19/20/3
f 33/52/20 34/53/20 35/54/20
f 35/54/20 36/50/20 19/20/20
f 19/20/20 20/19/20 21/21/20
f 35/54/20 19/20/20 21/21/20
f 33/52/20 35/54/20 21/21/20
f 21/21/20 22/22/20 23/23/20
f 23/23/20 24/55/20 25/56/20
f 21/21/20 23/23/20 25/56/20
f 33/52/20 21/21/20 25/56/20
f 25/56/20 26/57/20 27/58/20
f 27/58/20 28/59/20 29/60/20
f 25/56/20 27/58/20 29/60/20
f 33/52/20 25/56/20 29/60/20
f 29/60/20 30/61/20 31/62/20
f 33/52/20 29/60/20 31/62/20
f 33/52/20 31/62/20 32/63/20
o Line025_网格.017
v 0.001007 0.004361 0.000375
v 0.000815 0.004361 0.001092
v 0.000290 0.004361 0.001616
v -0.000426 0.004361 0.001808
v -0.001143 0.004361 0.001616
v -0.001667 0.004361 0.001092
v -0.001859 0.004361 0.000375
v -0.001667 0.004361 -0.000341
v -0.001143 0.004361 -0.000866
v -0.000426 0.004361 -0.001058
v 0.000290 0.004361 -0.000866
v 0.000815 0.004361 -0.000341
v 0.001007 0.081168 0.000375
v 0.000815 0.081360 0.001092
v 0.000290 0.081885 0.001616
v -0.000426 0.082601 0.001808
v -0.001143 0.083318 0.001616
v -0.001667 0.083842 0.001092
v -0.001859 0.084034 0.000375
v -0.001667 0.083842 -0.000341
v -0.001143 0.083318 -0.000866
v -0.000426 0.082601 -0.001058
v 0.000290 0.081885 -0.000866
v 0.000815 0.081360 -0.000341
v 0.019471 0.081168 0.000375
v 0.019358 0.081360 0.001092
v 0.019052 0.081885 0.001616
v 0.018632 0.082601 0.001808
v 0.018213 0.083318 0.001616
v 0.017907 0.083842 0.001092
v 0.017794 0.084034 0.000375
v 0.017907 0.083842 -0.000341
v 0.018213 0.083318 -0.000866
v 0.018632 0.082601 -0.001058
v 0.019052 0.081885 -0.000866
v 0.019358 0.081360 -0.000341
v 0.035778 0.110163 0.000375
v 0.035763 0.110528 0.001092
v 0.035722 0.111526 0.001616
v 0.035667 0.112888 0.001808
v 0.035611 0.114250 0.001616
v 0.035570 0.115248 0.001092
v 0.035555 0.115613 0.000375
v 0.035570 0.115248 -0.000341
v 0.035611 0.114250 -0.000866
v 0.035667 0.112888 -0.001058
v 0.035722 0.111526 -0.000866
v 0.035763 0.110528 -0.000341
v 0.056104 0.080082 0.000375
v 0.056125 0.080394 0.001092
v 0.056183 0.081245 0.001616
v 0.056262 0.082408 0.001808
v 0.056341 0.083571 0.001616
v 0.056399 0.084422 0.001092
v 0.056420 0.084733 0.000375
v 0.056399 0.084422 -0.000341
v 0.056341 0.083571 -0.000866
v 0.056262 0.082408 -0.001058
v 0.056183 0.081245 -0.000866
v 0.056125 0.080394 -0.000341
v 0.077063 0.103507 0.000375
v 0.076920 0.103635 0.001092
v 0.076529 0.103984 0.001616
v 0.075995 0.104462 0.001808
v 0.075461 0.104940 0.001616
v 0.075070 0.105290 0.001092
v 0.074927 0.105418 0.000375
v 0.075070 0.105290 -0.000341
v 0.075461 0.104940 -0.000866
v 0.075995 0.104462 -0.001058
v 0.076529 0.103984 -0.000866
v 0.076920 0.103635 -0.000341
vn 1.0000 0.0000 -0.0000
vn 0.8310 -0.0000 0.5563
vn 0.8660 -0.0000 0.5000
vn 0.2085 -0.2085 0.9555
vn 0.5000 -0.0000 0.8660
vn -0.0652 0.0652 0.9957
vn -0.0000 -0.0000 1.0000
vn -0.3332 0.3332 0.8820
vn -0.5000 -0.0000 0.8660
vn -0.9047 -0.0000 0.4260
vn -0.8660 -0.0000 0.5000
vn -1.0000 0.0000 0.0000
vn -0.9047 0.0000 -0.4260
vn -0.8660 0.0000 -0.5000
vn -0.3332 0.3332 -0.8820
vn -0.5000 0.0000 -0.8660
vn -0.0652 0.0652 -0.9957
vn -0.0000 0.0000 -1.0000
vn 0.2085 -0.2085 -0.9555
vn 0.5000 0.0000 -0.8660
vn 0.8310 0.0000 -0.5563
vn 0.8660 0.0000 -0.5000
vn -0.0000 -1.0000 -0.0000
vn 0.4342 -0.7423 0.5104
vn -0.0000 -0.8310 0.5563
vn 0.2583 -0.4416 0.8592
vn 0.0381 -0.0652 0.9971
vn -0.1940 0.3317 0.9232
vn -0.0000 0.8438 0.5367
vn -0.0000 0.9047 0.4260
vn -0.0000 1.0000 0.0000
vn -0.4064 0.6949 -0.5932
vn -0.0000 0.9047 -0.4260
vn -0.1940 0.3317 -0.9232
vn 0.0381 -0.0652 -0.9971
vn 0.2583 -0.4416 -0.8592
vn -0.0000 -0.8900 -0.4560
vn -0.0000 -0.8310 -0.5563
vn 0.8716 -0.4902 -0.0000
vn 0.7112 -0.4000 0.5781
vn 0.0083 -0.2017 0.9794
vn -0.0037 0.0894 0.9960
vn -0.0163 0.3963 0.9180
vn -0.8030 0.4516 0.3890
vn -0.7354 0.4136 0.5367
vn -0.8716 0.4902 0.0000
vn -0.8030 0.4516 -0.3890
vn -0.0163 0.3963 -0.9180
vn -0.0037 0.0894 -0.9960
vn 0.0083 -0.2017 -0.9794
vn 0.7112 -0.4000 -0.5781
vn 0.7757 -0.4363 -0.4560
vn -0.8286 -0.5599 -0.0000
vn -0.7566 -0.5112 0.4078
vn -0.6761 -0.4568 0.5781
vn -0.0296 -0.4359 0.8995
vn -0.0063 -0.0929 0.9957
vn 0.0167 0.2457 0.9692
vn 0.6824 0.4611 0.5672
vn 0.7633 0.5158 0.3890
vn 0.8286 0.5599 0.0000
vn 0.6824 0.4611 -0.5672
vn 0.7633 0.5158 -0.3890
vn 0.0167 0.2457 -0.9692
vn -0.0063 -0.0929 -0.9957
vn -0.0296 -0.4359 -0.8995
vn -0.7566 -0.5112 -0.4078
vn -0.6761 -0.4568 -0.5781
vn 0.7452 -0.6668 -0.0000
vn 0.6454 -0.5775 0.5000
vn 0.6805 -0.6088 0.4078
vn 0.3726 -0.3334 0.8660
vn -0.3726 0.3334 0.8660
vn -0.6454 0.5775 0.5000
vn -0.6138 0.5492 0.5672
vn -0.7452 0.6668 0.0000
vn -0.6454 0.5775 -0.5000
vn -0.6138 0.5492 -0.5672
vn -0.3726 0.3334 -0.8660
vn 0.3726 -0.3334 -0.8660
vn 0.6454 -0.5775 -0.5000
vn 0.6805 -0.6088 -0.4078
vn 0.6668 0.7452 0.0000
usemtl Material_#25.008
s 1
f 37//21 49//21 50//22 38//23
f 38//23 50//22 51//24 39//25
f 39//25 51//24 52//26 40//27
f 40//27 52//26 53//28 41//29
f 41//29 53//28 54//30 42//31
f 42//31 54//30 55//32 43//32
f 43//32 55//32 56//33 44//34
f 44//34 56//33 57//35 45//36
f 45//36 57//35 58//37 46//38
f 46//38 58//37 59//39 47//40
f 47//40 59//39 60//41 48//42
f 48//42 60//41 49//21 37//21
f 49//43 61//43 62//44 50//45
f 50//45 62//44 63//46 51//24
f 51//24 63//46 64//47 52//26
f 52//26 64//47 65//48 53//28
f 53//28 65//48 66//49 54//50
f 54//50 66//49 67//51 55//51
f 55//51 67//51 68//52 56//53
f 56//53 68//52 69//54 57//35
f 57//35 69//54 70//55 58//37
f 58//37 70//55 71//56 59//39
f 59//39 71//56 72//57 60//58
f 60//58 72//57 61//43 49//43
f 61//59 73//59 74//60 62//44
f 62//44 74//60 75//61 63//46
f 63//46 75//61 76//62 64//47
f 64//47 76//62 77//63 65//48
f 65//48 77//63 78//64 66//65
f 66//65 78//64 79//66 67//66
f 67//66 79//66 80//67 68//52
f 68//52 80//67 81//68 69//54
f 69//54 81//68 82//69 70//55
f 70//55 82//69 83//70 71//56
f 71//56 83//70 84//71 72//72
f 72//72 84//71 73//59 61//59
f 73//73 85//73 86//74 74//75
f 74//75 86//74 87//76 75//61
f 75//61 87//76 88//77 76//62
f 76//62 88//77 89//78 77//63
f 77//63 89//78 90//79 78//80
f 78//80 90//79 91//81 79//81
f 79//81 91//81 92//82 80//83
f 80//83 92//82 93//84 81//68
f 81//68 93//84 94//85 82//69
f 82//69 94//85 95//86 83//70
f 83//70 95//86 96//87 84//88
f 84//88 96//87 85//73 73//73
f 85//89 97//89 98//90 86//91
f 86//91 98//90 99//92 87//76
f 87//76 99//92 100//27 88//77
f 88//77 100//27 101//93 89//78
f 89//78 101//93 102//94 90//95
f 90//95 102//94 103//96 91//96
f 91//96 103//96 104//97 92//98
f 92//98 104//97 105//99 93//84
f 93//84 105//99 106//38 94//85
f 94//85 106//38 107//100 95//86
f 95//86 107//100 108//101 96//102
f 96//102 108//101 97//89 85//89
f 37//43 38//43 39//43 40//43 41//43 42//43 43//43 44//43 45//43 46//43 47//43 48//43
f 97//103 108//103 107//103 106//103 105//103 104//103 103//103 102//103 101//103 100//103 99//103 98//103
