# Blender v3.1.2 OBJ File: '9.blend'
# www.blender.org
mtllib e.mtl
o Cylinder009_网格.008
v 0.018874 -0.000238 -0.000287
v 0.017925 -0.000238 -0.005664
v 0.015195 -0.000238 -0.010393
v 0.011012 -0.000238 -0.013903
v 0.005881 -0.000238 -0.015771
v 0.000420 -0.000238 -0.015771
v -0.004711 -0.000238 -0.013903
v -0.008894 -0.000238 -0.010393
v -0.011624 -0.000238 -0.005664
v -0.012572 -0.000238 -0.000287
v -0.011624 -0.000238 0.005091
v -0.008894 -0.000238 0.009820
v -0.004711 -0.000238 0.013330
v 0.000420 -0.000238 0.015197
v 0.005881 -0.000238 0.015197
v 0.011012 -0.000238 0.013330
v 0.015195 -0.000238 0.009820
v 0.017925 -0.000238 0.005091
v 0.018874 0.004492 -0.000287
v 0.017925 0.004492 -0.005664
v 0.015195 0.004492 -0.010393
v 0.011012 0.004492 -0.013903
v 0.005881 0.004492 -0.015771
v 0.000420 0.004492 -0.015771
v -0.004711 0.004492 -0.013903
v -0.008894 0.004492 -0.010393
v -0.011624 0.004492 -0.005664
v -0.012572 0.004492 -0.000287
v -0.011624 0.004492 0.005091
v -0.008894 0.004492 0.009820
v -0.004711 0.004492 0.013330
v 0.000420 0.004492 0.015197
v 0.005881 0.004492 0.015197
v 0.011012 0.004492 0.013330
v 0.015195 0.004492 0.009820
v 0.017925 0.004492 0.005091
vt 0.861111 0.000000
vt 0.805556 0.000000
vt 0.750000 0.000000
vt 0.340035 0.000000
vt 0.195328 0.000000
vt 0.087369 0.000000
vt 0.029179 0.000000
vt 0.027778 0.000000
vt 0.083333 0.000000
vt 0.189144 0.000000
vt 0.332450 0.000000
vt 0.495964 0.000000
vt 0.659965 0.000000
vt 0.804672 0.000000
vt 0.912631 0.000000
vt 0.970820 0.000000
vt 0.972222 0.000000
vt 0.916667 0.000000
vt 0.805556 1.000000
vt 0.750000 1.000000
vt 0.861111 1.000000
vt 0.916667 1.000000
vt 0.972222 1.000000
vt 0.027778 1.000000
vt -0.027778 1.000000
vt -0.027778 0.000000
vt 0.027778 0.000000
vt 0.083333 1.000000
vt 0.083333 0.000000
vt 0.138889 1.000000
vt 0.138889 0.000000
vt 0.194444 1.000000
vt 0.194444 0.000000
vt 0.250000 1.000000
vt 0.250000 0.000000
vt 0.305556 1.000000
vt 0.305556 0.000000
vt 0.361111 1.000000
vt 0.361111 0.000000
vt 0.416667 1.000000
vt 0.416667 0.000000
vt 0.472222 1.000000
vt 0.472222 0.000000
vt 0.527778 1.000000
vt 0.527778 0.000000
vt 0.583333 1.000000
vt 0.583333 0.000000
vt 0.638889 1.000000
vt 0.638889 0.000000
vt 0.694444 1.000000
vt 0.694444 0.000000
vt 0.029179 1.000000
vt 0.087368 1.000000
vt 0.195327 1.000000
vt 0.970821 1.000000
vt 0.912631 1.000000
vt 0.804673 1.000000
vt 0.659966 1.000000
vt 0.495965 1.000000
vt 0.332450 1.000000
vt 0.189145 1.000000
vt 0.083333 1.000000
vt 0.027778 1.000000
vn -0.0000 -1.0000 0.0000
vn 0.9397 0.0000 -0.3420
vn 1.0000 -0.0000 0.0000
vn 0.7660 0.0000 -0.6428
vn 0.5000 0.0000 -0.8660
vn 0.1736 0.0000 -0.9848
vn -0.1736 0.0000 -0.9848
vn -0.5000 0.0000 -0.8660
vn -0.7660 0.0000 -0.6428
vn -0.9397 0.0000 -0.3420
vn -1.0000 -0.0000 -0.0000
vn -0.9397 -0.0000 0.3420
vn -0.7660 0.0000 0.6428
vn -0.5000 0.0000 0.8660
vn -0.1736 0.0000 0.9848
vn 0.1736 0.0000 0.9848
vn 0.5000 0.0000 0.8660
vn 0.7660 0.0000 0.6428
vn 0.9397 0.0000 0.3420
vn 0.0000 1.0000 -0.0000
usemtl Material_#25.004
s 1
f 3/1/1 2/2/1 1/3/1
f 1/3/1 18/4/1 17/5/1
f 17/5/1 16/6/1 15/7/1
f 1/3/1 17/5/1 15/7/1
f 3/1/1 1/3/1 15/7/1
f 15/7/1 14/8/1 13/9/1
f 13/9/1 12/10/1 11/11/1
f 15/7/1 13/9/1 11/11/1
f 3/1/1 15/7/1 11/11/1
f 11/11/1 10/12/1 9/13/1
f 9/13/1 8/14/1 7/15/1
f 11/11/1 9/13/1 7/15/1
f 3/1/1 11/11/1 7/15/1
f 7/15/1 6/16/1 5/17/1
f 3/1/1 7/15/1 5/17/1
f 3/1/1 5/17/1 4/18/1
f 20/19/2 19/20/3 1/3/3
f 1/3/3 2/2/2 20/19/2
f 21/21/4 20/19/2 2/2/2
f 2/2/2 3/1/4 21/21/4
f 22/22/5 21/21/4 3/1/4
f 3/1/4 4/18/5 22/22/5
f 23/23/6 22/22/5 4/18/5
f 4/18/5 5/17/6 23/23/6
f 24/24/7 23/25/6 5/26/6
f 5/26/6 6/27/7 24/24/7
f 25/28/8 24/24/7 6/27/7
f 6/27/7 7/29/8 25/28/8
f 26/30/9 25/28/8 7/29/8
f 7/29/8 8/31/9 26/30/9
f 27/32/10 26/30/9 8/31/9
f 8/31/9 9/33/10 27/32/10
f 28/34/11 27/32/10 9/33/10
f 9/33/10 10/35/11 28/34/11
f 29/36/12 28/34/11 10/35/11
f 10/35/11 11/37/12 29/36/12
f 30/38/13 29/36/12 11/37/12
f 11/37/12 12/39/13 30/38/13
f 31/40/14 30/38/13 12/39/13
f 12/39/13 13/41/14 31/40/14
f 32/42/15 31/40/14 13/41/14
f 13/41/14 14/43/15 32/42/15
f 33/44/16 32/42/15 14/43/15
f 14/43/15 15/45/16 33/44/16
f 34/46/17 33/44/16 15/45/16
f 15/45/16 16/47/17 34/46/17
f 35/48/18 34/46/17 16/47/17
f 16/47/17 17/49/18 35/48/18
f 36/50/19 35/48/18 17/49/18
f 17/49/18 18/51/19 36/50/19
f 19/20/3 36/50/19 18/51/19
f 18/51/19 1/3/3 19/20/3
f 33/52/20 34/53/20 35/54/20
f 35/54/20 36/50/20 19/20/20
f 19/20/20 20/19/20 21/21/20
f 35/54/20 19/20/20 21/21/20
f 33/52/20 35/54/20 21/21/20
f 21/21/20 22/22/20 23/23/20
f 23/23/20 24/55/20 25/56/20
f 21/21/20 23/23/20 25/56/20
f 33/52/20 21/21/20 25/56/20
f 25/56/20 26/57/20 27/58/20
f 27/58/20 28/59/20 29/60/20
f 25/56/20 27/58/20 29/60/20
f 33/52/20 25/56/20 29/60/20
f 29/60/20 30/61/20 31/62/20
f 33/52/20 29/60/20 31/62/20
f 33/52/20 31/62/20 32/63/20
o Line015_网格.009
v 0.005002 0.003718 0.000375
v 0.004810 0.003718 0.001092
v 0.004286 0.003718 0.001616
v 0.003569 0.003718 0.001808
v 0.002853 0.003718 0.001616
v 0.002328 0.003718 0.001092
v 0.002136 0.003718 0.000375
v 0.002328 0.003718 -0.000341
v 0.002853 0.003718 -0.000866
v 0.003569 0.003718 -0.001058
v 0.004286 0.003718 -0.000866
v 0.004810 0.003718 -0.000341
v 0.005002 0.066691 0.000375
v 0.004810 0.066499 0.001092
v 0.004286 0.065975 0.001616
v 0.003569 0.065258 0.001808
v 0.002853 0.064542 0.001616
v 0.002328 0.064017 0.001092
v 0.002136 0.063825 0.000375
v 0.002328 0.064017 -0.000341
v 0.002853 0.064542 -0.000866
v 0.003569 0.065258 -0.001058
v 0.004286 0.065975 -0.000866
v 0.004810 0.066499 -0.000341
v -0.025135 0.066691 0.000375
v -0.025212 0.066499 0.001092
v -0.025420 0.065975 0.001616
v -0.025705 0.065258 0.001808
v -0.025990 0.064542 0.001616
v -0.026199 0.064017 0.001092
v -0.026275 0.063825 0.000375
v -0.026199 0.064017 -0.000341
v -0.025990 0.064542 -0.000866
v -0.025705 0.065258 -0.001058
v -0.025420 0.065975 -0.000866
v -0.025212 0.066499 -0.000341
v -0.046212 0.086613 0.000375
v -0.046471 0.086593 0.001092
v -0.047176 0.086538 0.001616
v -0.048140 0.086463 0.001808
v -0.049104 0.086388 0.001616
v -0.049809 0.086333 0.001092
v -0.050067 0.086313 0.000375
v -0.049809 0.086333 -0.000341
v -0.049104 0.086388 -0.000866
v -0.048140 0.086463 -0.001058
v -0.047176 0.086538 -0.000866
v -0.046471 0.086593 -0.000341
v -0.028285 0.109789 0.000375
v -0.028379 0.109981 0.001092
v -0.028637 0.110506 0.001616
v -0.028988 0.111222 0.001808
v -0.029340 0.111939 0.001616
v -0.029597 0.112463 0.001092
v -0.029692 0.112655 0.000375
v -0.029597 0.112463 -0.000341
v -0.029340 0.111939 -0.000866
v -0.028988 0.111222 -0.001058
v -0.028637 0.110506 -0.000866
v -0.028379 0.109981 -0.000341
v 0.001771 0.109789 0.000375
v 0.001902 0.109981 0.001092
v 0.002260 0.110506 0.001616
v 0.002748 0.111222 0.001808
v 0.003237 0.111939 0.001616
v 0.003595 0.112463 0.001092
v 0.003726 0.112655 0.000375
v 0.003595 0.112463 -0.000341
v 0.003237 0.111939 -0.000866
v 0.002748 0.111222 -0.001058
v 0.002260 0.110506 -0.000866
v 0.001902 0.109981 -0.000341
v 0.009128 0.091041 0.000375
v 0.009410 0.090849 0.001092
v 0.010179 0.090325 0.001616
v 0.011230 0.089608 0.001808
v 0.012281 0.088892 0.001616
v 0.013050 0.088367 0.001092
v 0.013332 0.088175 0.000375
v 0.013050 0.088367 -0.000341
v 0.012281 0.088892 -0.000866
v 0.011230 0.089608 -0.001058
v 0.010179 0.090325 -0.000866
v 0.009410 0.090849 -0.000341
v -0.017224 0.091041 0.000375
v -0.017224 0.090849 0.001092
v -0.017224 0.090325 0.001616
v -0.017224 0.089608 0.001808
v -0.017224 0.088892 0.001616
v -0.017224 0.088367 0.001092
v -0.017224 0.088175 0.000375
v -0.017224 0.088367 -0.000341
v -0.017224 0.088892 -0.000866
v -0.017224 0.089608 -0.001058
v -0.017224 0.090325 -0.000866
v -0.017224 0.090849 -0.000341
vn 1.0000 0.0000 -0.0000
vn 0.5886 0.5886 0.5542
vn 0.8660 -0.0000 0.5000
vn 0.3332 0.3332 0.8820
vn 0.5000 -0.0000 0.8660
vn 0.0652 0.0652 0.9957
vn 0.0000 -0.0000 1.0000
vn -0.2085 -0.2085 0.9555
vn -0.5000 -0.0000 0.8660
vn -0.8310 -0.0000 0.5563
vn -0.8660 -0.0000 0.5000
vn -1.0000 0.0000 -0.0000
vn -0.8310 0.0000 -0.5563
vn -0.8660 0.0000 -0.5000
vn -0.2085 -0.2085 -0.9555
vn -0.5000 0.0000 -0.8660
vn 0.0652 0.0652 -0.9957
vn 0.0000 0.0000 -1.0000
vn 0.3332 0.3332 -0.8820
vn 0.5000 0.0000 -0.8660
vn 0.9047 0.0000 -0.4260
vn 0.8660 0.0000 -0.5000
vn 0.0000 1.0000 -0.0000
vn 0.3077 0.7734 0.5542
vn 0.1579 0.3970 0.9041
vn -0.0215 -0.0539 0.9983
vn -0.1922 -0.4831 0.8542
vn -0.3206 -0.8060 0.4975
vn -0.0000 -0.8310 0.5563
vn -0.0000 -1.0000 -0.0000
vn -0.3206 -0.8060 -0.4975
vn 0.0000 -0.8310 -0.5563
vn -0.1922 -0.4831 -0.8542
vn -0.0215 -0.0539 -0.9983
vn 0.1579 0.3970 -0.9041
vn 0.3077 0.7734 -0.5542
vn 0.0000 0.9047 -0.4260
vn 0.6869 0.7268 -0.0000
vn 0.5726 0.6059 0.5523
vn 0.3126 0.0243 0.9496
vn -0.0902 -0.0070 0.9959
vn -0.4805 -0.0374 0.8762
vn -0.6193 -0.6553 0.4325
vn -0.9970 -0.0775 -0.0000
vn -0.6869 -0.7268 -0.0000
vn -0.6193 -0.6553 -0.4325
vn -0.4805 -0.0374 -0.8762
vn -0.0902 -0.0070 -0.9959
vn 0.3126 0.0243 -0.9496
vn 0.5726 0.6059 -0.5523
vn 0.7910 -0.6118 -0.0000
vn 0.3611 -0.7358 0.5729
vn 0.6594 -0.5101 0.5523
vn 0.1789 -0.3646 0.9138
vn -0.0298 0.0607 0.9977
vn -0.2277 0.4640 0.8560
vn -0.3807 0.7758 0.5031
vn -0.7132 0.5516 0.4325
vn -0.7910 0.6118 0.0000
vn -0.3807 0.7758 -0.5031
vn -0.7132 0.5516 -0.4325
vn -0.2277 0.4640 -0.8560
vn -0.0298 0.0607 -0.9977
vn 0.1789 -0.3646 -0.9138
vn 0.3611 -0.7358 -0.5729
vn 0.6594 -0.5101 -0.5523
vn 0.0000 -0.8405 0.5417
vn -0.2039 -0.2991 0.9322
vn 0.0461 0.0676 0.9966
vn 0.2841 0.4166 0.8636
vn 0.0000 0.8937 0.4487
vn -0.0000 0.8937 -0.4487
vn 0.2841 0.4166 -0.8636
vn 0.0461 0.0676 -0.9966
vn -0.2039 -0.2991 -0.9322
vn 0.0000 -0.8405 -0.5417
vn -0.9309 -0.3653 -0.0000
vn -0.7627 -0.2993 0.5734
vn -0.7825 -0.3070 0.5417
vn -0.1821 0.1242 0.9754
vn 0.0756 -0.0515 0.9958
vn 0.3426 -0.2336 0.9100
vn 0.8543 0.3352 0.3971
vn 0.8319 0.3264 0.4487
vn 0.9309 0.3653 -0.0000
vn 0.8543 0.3352 -0.3971
vn 0.8319 0.3264 -0.4487
vn 0.3426 -0.2336 -0.9100
vn 0.0756 -0.0515 -0.9958
vn -0.1821 0.1242 -0.9754
vn -0.7627 -0.2993 -0.5734
vn -0.7825 -0.3070 -0.5417
vn 0.0000 0.8660 0.5000
vn 0.0000 0.8193 0.5734
vn 0.0000 0.5000 0.8660
vn 0.0000 -0.5000 0.8660
vn 0.0000 -0.8660 0.5000
vn 0.0000 -0.9178 0.3971
vn 0.0000 -0.8660 -0.5000
vn 0.0000 -0.9178 -0.3971
vn 0.0000 -0.5000 -0.8660
vn 0.0000 0.5000 -0.8660
vn 0.0000 0.8660 -0.5000
vn 0.0000 0.8193 -0.5734
usemtl Material_#25.004
s 1
f 37//21 49//21 50//22 38//23
f 38//23 50//22 51//24 39//25
f 39//25 51//24 52//26 40//27
f 40//27 52//26 53//28 41//29
f 41//29 53//28 54//30 42//31
f 42//31 54//30 55//32 43//32
f 43//32 55//32 56//33 44//34
f 44//34 56//33 57//35 45//36
f 45//36 57//35 58//37 46//38
f 46//38 58//37 59//39 47//40
f 47//40 59//39 60//41 48//42
f 48//42 60//41 49//21 37//21
f 49//43 61//43 62//44 50//22
f 50//22 62//44 63//45 51//24
f 51//24 63//45 64//46 52//26
f 52//26 64//46 65//47 53//28
f 53//28 65//47 66//48 54//49
f 54//49 66//48 67//50 55//50
f 55//50 67//50 68//51 56//52
f 56//52 68//51 69//53 57//35
f 57//35 69//53 70//54 58//37
f 58//37 70//54 71//55 59//39
f 59//39 71//55 72//56 60//57
f 60//57 72//56 61//43 49//43
f 61//58 73//58 74//59 62//44
f 62//44 74//59 75//60 63//45
f 63//45 75//60 76//61 64//46
f 64//46 76//61 77//62 65//47
f 65//47 77//62 78//63 66//48
f 66//48 78//63 79//64 67//65
f 67//65 79//64 80//66 68//51
f 68//51 80//66 81//67 69//53
f 69//53 81//67 82//68 70//54
f 70//54 82//68 83//69 71//55
f 71//55 83//69 84//70 72//56
f 72//56 84//70 73//58 61//58
f 73//71 85//71 86//72 74//73
f 74//73 86//72 87//74 75//60
f 75//60 87//74 88//75 76//61
f 76//61 88//75 89//76 77//62
f 77//62 89//76 90//77 78//78
f 78//78 90//77 91//79 79//64
f 79//64 91//79 92//80 80//81
f 80//81 92//80 93//82 81//67
f 81//67 93//82 94//83 82//68
f 82//68 94//83 95//84 83//69
f 83//69 95//84 96//85 84//86
f 84//86 96//85 85//71 73//71
f 85//50 97//50 98//87 86//72
f 86//72 98//87 99//88 87//74
f 87//74 99//88 100//89 88//75
f 88//75 100//89 101//90 89//76
f 89//76 101//90 102//91 90//77
f 90//77 102//91 103//43 91//43
f 91//43 103//43 104//92 92//80
f 92//80 104//92 105//93 93//82
f 93//82 105//93 106//94 94//83
f 94//83 106//94 107//95 95//84
f 95//84 107//95 108//96 96//85
f 96//85 108//96 97//50 85//50
f 97//97 109//97 110//98 98//99
f 98//99 110//98 111//100 99//88
f 99//88 111//100 112//101 100//89
f 100//89 112//101 113//102 101//90
f 101//90 113//102 114//103 102//104
f 102//104 114//103 115//105 103//105
f 103//105 115//105 116//106 104//107
f 104//107 116//106 117//108 105//93
f 105//93 117//108 118//109 106//94
f 106//94 118//109 119//110 107//95
f 107//95 119//110 120//111 108//112
f 108//112 120//111 109//97 97//97
f 109//43 121//43 122//113 110//114
f 110//114 122//113 123//115 111//100
f 111//100 123//115 124//27 112//101
f 112//101 124//27 125//116 113//102
f 113//102 125//116 126//117 114//118
f 114//118 126//117 127//50 115//50
f 115//50 127//50 128//119 116//120
f 116//120 128//119 129//121 117//108
f 117//108 129//121 130//38 118//109
f 118//109 130//38 131//122 119//110
f 119//110 131//122 132//123 120//124
f 120//124 132//123 121//43 109//43
f 37//50 38//50 39//50 40//50 41//50 42//50 43//50 44//50 45//50 46//50 47//50 48//50
f 121//32 132//32 131//32 130//32 129//32 128//32 127//32 126//32 125//32 124//32 123//32 122//32
